<svg width="65" height="65" viewBox="0 0 65 65" fill="none" xmlns="http://www.w3.org/2000/svg">
<path d="M36.3179 32.5013L47.9637 20.8826C48.4737 20.3726 48.7602 19.6809 48.7602 18.9596C48.7602 18.2384 48.4737 17.5467 47.9637 17.0367C47.4537 16.5267 46.762 16.2402 46.0408 16.2402C45.3195 16.2402 44.6278 16.5267 44.1179 17.0367L32.4991 28.6826L20.8804 17.0367C20.3704 16.5267 19.6787 16.2402 18.9574 16.2402C18.2362 16.2402 17.5445 16.5267 17.0345 17.0367C16.5245 17.5467 16.238 18.2384 16.238 18.9596C16.238 19.6809 16.5245 20.3726 17.0345 20.8826L28.6804 32.5013L17.0345 44.1201C16.7807 44.3718 16.5792 44.6714 16.4417 45.0014C16.3042 45.3315 16.2334 45.6855 16.2334 46.043C16.2334 46.4005 16.3042 46.7545 16.4417 47.0845C16.5792 47.4146 16.7807 47.7141 17.0345 47.9659C17.2863 48.2197 17.5858 48.4212 17.9159 48.5587C18.2459 48.6962 18.5999 48.767 18.9574 48.767C19.315 48.767 19.669 48.6962 19.999 48.5587C20.329 48.4212 20.6286 48.2197 20.8804 47.9659L32.4991 36.3201L44.1179 47.9659C44.3696 48.2197 44.6692 48.4212 44.9992 48.5587C45.3292 48.6962 45.6832 48.767 46.0408 48.767C46.3983 48.767 46.7523 48.6962 47.0823 48.5587C47.4124 48.4212 47.7119 48.2197 47.9637 47.9659C48.2175 47.7141 48.419 47.4146 48.5565 47.0845C48.694 46.7545 48.7648 46.4005 48.7648 46.043C48.7648 45.6855 48.694 45.3315 48.5565 45.0014C48.419 44.6714 48.2175 44.3718 47.9637 44.1201L36.3179 32.5013Z" fill="#231F20"/>
</svg>
