<svg width="152" height="51" viewBox="0 0 152 51" fill="none" xmlns="http://www.w3.org/2000/svg">
<path d="M19.8874 18.2939V23.4864H32.3918C31.7704 30.7327 25.6736 33.8327 19.8874 33.8327C12.5091 33.8327 6.06276 28.0977 6.06276 20.0377C6.06276 12.2102 12.1984 6.16516 19.8874 6.16516C25.8289 6.16516 29.3239 9.92391 29.3239 9.92391L32.9743 6.16516C32.9743 6.16516 28.2754 0.972656 19.6933 0.972656C8.74226 0.972656 0.31543 10.0789 0.31543 19.9214C0.31543 29.5702 8.27626 38.9864 19.9651 38.9864C30.2559 38.9864 37.7896 32.0114 37.7896 21.7039C37.7896 19.5339 37.4789 18.2552 37.4789 18.2552L19.8874 18.2939ZM52.0026 14.5739C44.7408 14.5739 39.5759 20.1539 39.5759 26.7027C39.5759 33.3289 44.6243 39.0252 52.0803 39.0252C58.8373 39.0252 64.3904 33.9102 64.3904 26.8577C64.4293 18.7202 57.9829 14.5739 52.0026 14.5739ZM52.0803 19.3402C55.6529 19.3402 59.0314 22.1689 59.0314 26.7802C59.0314 31.2752 55.6529 34.1814 52.0803 34.1814C48.1193 34.1814 45.0126 31.0427 45.0126 26.7414C45.0126 22.5177 48.0804 19.3402 52.0803 19.3402ZM79.0694 14.5739C71.8076 14.5739 66.6428 20.1539 66.6428 26.7027C66.6428 33.3289 71.6911 39.0252 79.1471 39.0252C85.9041 39.0252 91.4573 33.9102 91.4573 26.8577C91.4573 18.7202 85.0109 14.5739 79.0694 14.5739ZM79.1471 19.3402C82.7198 19.3402 86.0983 22.1689 86.0983 26.7802C86.0983 31.2752 82.7198 34.1814 79.1471 34.1814C75.1861 34.1814 72.0794 31.0427 72.0794 26.7414C72.0406 22.5177 75.1084 19.3402 79.1471 19.3402ZM105.593 14.5739C98.9521 14.5739 93.7096 20.3089 93.7096 26.7802C93.7096 34.1427 99.7676 39.0252 105.476 39.0252C109.01 39.0252 110.874 37.6302 112.272 36.0414V38.4439C112.272 42.6677 109.67 45.1864 105.787 45.1864C102.02 45.1864 100.117 42.3964 99.4569 40.8464L94.7193 42.8227C96.3891 46.3489 99.8064 50.0302 105.826 50.0302C112.427 50.0302 117.476 45.9227 117.476 37.2814V15.3102H112.272V17.3639C110.641 15.6589 108.466 14.5739 105.593 14.5739ZM106.059 19.3789C109.321 19.3789 112.66 22.1302 112.66 26.8189C112.66 31.5852 109.321 34.2202 105.981 34.2202C102.447 34.2202 99.1463 31.3914 99.1463 26.8577C99.1463 22.1689 102.564 19.3789 106.059 19.3789ZM140.504 14.5352C134.252 14.5352 128.97 19.4564 128.97 26.7414C128.97 34.4527 134.834 38.9864 141.125 38.9864C146.368 38.9864 149.552 36.1577 151.494 33.6389L147.222 30.8102C146.096 32.5152 144.271 34.1814 141.164 34.1814C137.669 34.1814 136.077 32.2827 135.106 30.4614L151.688 23.6802L150.833 21.7039C149.164 17.7902 145.436 14.5352 140.504 14.5352ZM140.698 19.2239C142.95 19.2239 144.581 20.4252 145.28 21.8202L134.213 26.3927C133.747 22.8664 137.125 19.2239 140.698 19.2239ZM121.048 38.2889H126.485V2.25141H121.048V38.2889Z" fill="black"/>
</svg>
