<svg width="588" height="429" viewBox="0 0 588 429" fill="none" xmlns="http://www.w3.org/2000/svg">
<path d="M261 52H515C518.866 52 522 55.134 522 59V199C522 202.866 518.866 206 515 206H268C264.134 206 261 202.866 261 199V52Z" fill="white"/>
<path d="M281.655 92.4831L281.277 91.7054L285.947 89.4365L286.324 90.2146L281.655 92.4831ZM272.316 97.0212L271.939 96.2431L276.608 93.9742L276.985 94.7523L272.316 97.0212ZM262.978 101.559L262.6 100.781L267.27 98.5119L267.647 99.29L262.978 101.559ZM253.639 106.096L253.261 105.319L257.93 103.05L258.309 103.828L253.639 106.096ZM244.297 110.634L243.923 109.854L248.591 107.588L248.97 108.365L244.297 110.634ZM234.737 114.761L234.424 113.954C236.044 113.326 237.656 112.667 239.213 111.995L239.556 112.789C237.989 113.465 236.367 114.129 234.737 114.761ZM224.91 118.196L224.65 117.371C226.319 116.846 227.973 116.298 229.565 115.742L229.851 116.559C228.251 117.118 226.588 117.669 224.91 118.196ZM214.9 121.04L214.686 120.202C216.378 119.769 218.061 119.315 219.688 118.854L219.924 119.686C218.29 120.149 216.599 120.605 214.9 121.04ZM205.138 124.217L204.754 123.442C206.318 122.667 207.962 122.015 209.64 121.502L209.892 122.329C208.26 122.828 206.66 123.463 205.138 124.217ZM196.948 130.248L196.315 129.659C196.567 129.389 196.824 129.122 197.089 128.86C198.056 127.903 199.121 126.997 200.256 126.167L200.767 126.865C199.667 127.67 198.635 128.547 197.698 129.475C197.442 129.728 197.192 129.986 196.948 130.248ZM191.659 138.896L190.844 138.604C191.435 136.963 192.203 135.365 193.129 133.855L193.867 134.307C192.972 135.767 192.229 137.311 191.659 138.896ZM199.055 139.771C197.415 139.459 195.704 139.279 193.968 139.237L193.989 138.372C195.772 138.416 197.531 138.6 199.217 138.921L199.055 139.771ZM183.822 140.488L183.595 139.653C185.285 139.194 187.017 138.852 188.744 138.637L188.851 139.495C187.164 139.705 185.472 140.039 183.822 140.488ZM208.377 143.646C207.117 142.687 205.63 141.859 203.955 141.185L204.278 140.382C206.025 141.086 207.58 141.953 208.901 142.958L208.377 143.646ZM174.435 144.538L173.98 143.803C175.448 142.893 177.016 142.078 178.639 141.38L178.981 142.175C177.397 142.856 175.868 143.651 174.435 144.538ZM189.579 149.014C189.48 148.194 189.43 147.352 189.43 146.511C189.43 145.596 189.489 144.661 189.606 143.731L190.465 143.839C190.352 144.733 190.295 145.632 190.295 146.511C190.295 147.318 190.344 148.125 190.438 148.91L189.579 149.014ZM166.719 151.211L166.056 150.655C167.179 149.316 168.419 148.056 169.743 146.911L170.309 147.565C169.02 148.68 167.813 149.906 166.719 151.211ZM213.76 152.118L212.895 152.099L212.897 151.868C212.897 150.572 212.633 149.302 212.133 148.196C212.003 147.907 211.859 147.626 211.704 147.352L212.456 146.925C212.625 147.222 212.78 147.526 212.921 147.839C213.472 149.056 213.763 150.45 213.763 151.868L213.76 152.118ZM193.765 158.621C192.601 157.37 191.643 155.861 190.917 154.135L191.715 153.799C192.401 155.431 193.304 156.855 194.399 158.033L193.765 158.621ZM161.061 159.826L160.326 159.37C161.236 157.904 162.133 156.426 163.017 154.941L163.76 155.383C162.874 156.873 161.975 158.354 161.061 159.826ZM208.558 161.075L208.125 160.325C209.551 159.504 210.744 158.299 211.576 156.842L212.328 157.271C211.419 158.862 210.115 160.176 208.558 161.075ZM202.813 162.553C201.216 162.553 199.604 162.245 198.15 161.664L198.471 160.861C199.824 161.401 201.325 161.688 202.813 161.688C202.942 161.674 203.051 161.677 203.158 161.677C203.229 161.677 203.298 161.677 203.373 161.674L203.415 162.539C203.214 162.549 202.975 162.535 202.813 162.553ZM155.404 168.548L154.688 168.064C155.657 166.635 156.611 165.196 157.551 163.746L158.277 164.217C157.334 165.67 156.377 167.116 155.404 168.548ZM149.382 177.028L148.688 176.509C149.704 175.146 150.729 173.738 151.734 172.323L152.44 172.821C151.431 174.243 150.402 175.658 149.382 177.028ZM142.978 185.22L142.31 184.674C143.39 183.359 144.479 181.996 145.547 180.629L146.229 181.162C145.157 182.536 144.063 183.902 142.978 185.22ZM136.175 193.091L135.536 192.51C136.683 191.251 137.839 189.946 138.972 188.635L139.627 189.199C138.489 190.517 137.328 191.825 136.175 193.091ZM128.966 200.592L128.358 199.976C129.578 198.775 130.803 197.537 131.998 196.291L132.621 196.89C131.421 198.139 130.191 199.384 128.966 200.592ZM121.464 207.778L120.867 207.151L124.623 203.571L125.221 204.193L121.464 207.778Z" fill="#3DA353"/>
<path d="M260.299 53.2682V188.096C260.299 198.893 269.086 207.677 279.888 207.677H502.3C513.103 207.677 521.891 198.893 521.891 188.096V53.2682H260.299ZM502.3 208.542H279.888C268.612 208.542 259.434 199.367 259.434 188.096V52.4033H522.757V188.096C522.757 199.367 513.581 208.542 502.3 208.542Z" fill="black"/>
<path d="M502.301 0.432617H279.889C268.834 0.432617 259.867 9.39042 259.867 20.4472V52.8353H522.325V20.4472C522.325 9.39042 513.36 0.432617 502.301 0.432617Z" fill="#E2FFE9"/>
<path d="M260.299 52.403H521.891V20.4474C521.891 9.64973 513.103 0.864919 502.3 0.864919H279.888C269.086 0.864919 260.299 9.64973 260.299 20.4474V52.403ZM522.757 53.2679H259.434V20.4474C259.434 9.17264 268.612 0 279.888 0H502.3C513.581 0 522.757 9.17264 522.757 20.4474V53.2679Z" fill="black"/>
<path d="M473.958 26.6338C473.958 32.6941 469.043 37.6069 462.979 37.6069C456.915 37.6069 452 32.6941 452 26.6338C452 20.5739 456.915 15.6611 462.979 15.6611C469.043 15.6611 473.958 20.5739 473.958 26.6338Z" fill="#047E1F"/>
<path d="M506.294 26.6338C506.294 32.6941 501.379 37.6069 495.315 37.6069C489.251 37.6069 484.336 32.6941 484.336 26.6338C484.336 20.5739 489.251 15.6611 495.315 15.6611C501.379 15.6611 506.294 20.5739 506.294 26.6338Z" fill="#8EB5FF"/>
<path d="M144.031 172.856C141.527 164.179 136.226 156.571 128.953 151.214L126.031 149.062L128.511 200.346L147.686 185.522L144.031 172.856Z" fill="#62E17E"/>
<path d="M205.658 234.846L201.399 226.508C200.32 224.394 198.404 222.834 196.117 222.201L183.582 218.731L151.337 198.153L147.691 185.521L128.516 200.346L128.69 203.948C129.039 211.175 133.473 217.572 140.119 220.437L171.428 233.936L186.311 234.268C191.106 235.919 192.76 240.053 195.737 238.565C196.846 238.012 192.512 230.878 192.512 230.878L199.705 238.811L205.658 234.846Z" fill="#FFBC96"/>
<path d="M147.495 203.432L146.738 202.789L150.955 197.831L151.711 198.475L147.495 203.432Z" fill="#D28572"/>
<path d="M149.574 255.617L173.034 253.548C188.305 252.199 201.589 264.526 202.333 280.734L207.634 396.222L175.273 397.229L149.574 255.617Z" fill="black"/>
<path d="M177.875 396.081L178.867 427.983H226.822L203.176 408.315L201.687 392.943L177.875 396.081Z" fill="#747474"/>
<path d="M193.695 416.867L192.484 415.296L202.571 407.529L203.782 409.1L193.695 416.867Z" fill="white"/>
<path d="M166.961 396.081L167.953 427.983H215.908L192.262 408.315L190.774 392.943L166.961 396.081Z" fill="#9A9A9A"/>
<path d="M182.781 416.867L181.57 415.296L191.658 407.529L192.869 409.1L182.781 416.867Z" fill="white"/>
<path d="M202.681 399.223H162.994L134.707 312.229L130.748 300.051L74.1941 299.802C70.7013 299.754 67.3577 298.138 64.5201 295.747C58.5075 290.679 55.7395 282.718 56.8309 274.93L61.7919 239.559L145.809 250.474C161.744 252.55 174.612 264.468 177.887 280.189L202.681 399.223Z" fill="#151515"/>
<path d="M142.404 300.051L134.705 312.229L130.746 300.051H142.404Z" fill="#000019"/>
<path d="M132.019 233.151C131.612 234.787 131.186 236.424 130.749 238.07L127.773 250.217L88.5815 248.591L60.364 247.422C52.8828 247.114 47.4655 240.17 48.9934 232.843L62.15 169.562C63.8364 158.801 72.5775 150.52 83.4221 149.399L115.618 146.087L126.036 149.062C136.206 154.516 136.216 164.403 136.702 170.88C138.835 199.222 136.206 216.389 132.019 233.151Z" fill="#76FF94"/>
<path fill-rule="evenodd" clip-rule="evenodd" d="M127.769 250.218L88.5779 248.592C74.8857 238.268 69.7565 215.805 64.7656 187.66L78.4882 202.322L72.1773 205.235L81.593 227.526C82.4064 229.46 83.3887 231.314 84.5396 233.041C86.0775 235.341 87.913 237.435 90.0462 239.22C93.4296 242.046 97.418 244.15 101.655 245.229C103.772 245.776 105.957 246.063 108.161 246.063H108.273L128.819 245.931L127.769 250.218Z" fill="#42D462"/>
<path d="M97.657 164.394C99.3738 166.231 101.328 167.836 103.514 169.033C105.69 170.23 108.058 171.105 110.512 171.396C112.939 171.711 115.501 171.507 117.632 170.348C119.811 169.265 121.197 166.978 121.458 164.504L121.845 164.528C121.831 165.826 121.504 167.137 120.859 168.303C120.207 169.469 119.213 170.438 118.059 171.105C115.727 172.451 112.959 172.697 110.386 172.368C107.797 172.012 105.304 171.105 103.094 169.76C100.868 168.431 98.9239 166.67 97.3594 164.643L97.657 164.394Z" fill="#1B1B43"/>
<path d="M137.568 203.056L136.826 203.004C137.539 193.026 136.817 180.761 134.68 166.556L135.416 166.445C137.561 180.706 138.285 193.023 137.568 203.056Z" fill="#1B1B43"/>
<path d="M204.165 238.232H167.289V245.505H204.165V238.232Z" fill="#343443"/>
<path d="M267.996 245.505H193.914L227.979 180.384H302.062L267.996 245.505Z" fill="#242424"/>
<path d="M105.818 94.0216C97.1363 85.4679 80.7651 89.0629 81.0132 103.443C63.154 108.154 62.1617 127.74 69.3553 137.781L75.5562 138.277L76.9203 130.963L80.5172 138.401L97.8801 139.516L105.818 94.0216Z" fill="#1B1B43"/>
<path d="M120.33 126.005V153.327C120.33 153.575 120.32 153.813 120.301 154.051C119.874 159.674 114.427 163.65 108.861 162.214C100.655 160.09 94.9502 152.672 95.0202 144.203L95.159 126.005H120.33Z" fill="#FFBC96"/>
<path d="M120.328 137.816V153.326C120.328 153.574 120.318 153.812 120.298 154.05C112.986 152.85 104.532 144.391 102.469 135.178L120.328 137.816Z" fill="#1B1B43"/>
<path d="M135.123 128.028C134.747 130.2 134.24 132.422 133.566 134.534C131.383 141.466 127.464 147.218 120.449 146.216C103.959 143.856 94.7812 126.878 94.7812 126.878L106.063 113.985L113.633 103.811L136.324 113.609C136.324 113.609 136.443 120.541 135.123 128.028Z" fill="#FFBC96"/>
<path d="M99.6588 122.534C106.896 122.303 112.493 118.618 114.872 108.155C114.872 108.155 131.739 122.7 140.007 114.931C146.931 108.426 135.185 93.4592 115.743 91.6761C108.661 91.0264 101.601 93.2364 96.0504 97.6818C86.6274 105.229 85.7271 122.782 94.5326 128.857L99.6588 122.534Z" fill="#1B1B43"/>
<path d="M91.1829 104.187C90.7101 102.478 91.0625 100.584 91.8257 98.9539C92.6003 97.3127 93.7955 95.8835 95.2219 94.7757C96.6486 93.6662 98.3232 92.8725 100.083 92.5041C101.836 92.1436 103.7 92.1993 105.321 92.9061C103.648 93.4448 102.198 94.0163 100.835 94.7193C99.4769 95.414 98.2208 96.2198 97.0453 97.1265C95.8723 98.0361 94.7827 99.047 93.8017 100.192C92.8149 101.344 91.9492 102.607 91.1829 104.187Z" fill="#76FF94"/>
<path d="M102.728 121.597C104.127 125.091 102.916 128.862 100.022 130.019C97.1291 131.177 93.6491 129.283 92.2497 125.789C90.8506 122.294 92.0617 118.523 94.955 117.365C97.8483 116.208 101.328 118.102 102.728 121.597Z" fill="#FFBC96"/>
<path d="M97.4878 127.436C97.6117 126.228 97.6196 125.086 97.268 124.034C96.9264 122.979 96.2559 122.059 95.4844 121.114L95.7277 120.812C96.8499 121.396 97.8017 122.442 98.2081 123.732C98.6162 125.021 98.4389 126.427 97.8592 127.548L97.4878 127.436Z" fill="#1B1B43"/>
<path d="M124.59 123.779C124.59 124.803 123.84 125.633 122.914 125.633C121.989 125.633 121.238 124.803 121.238 123.779C121.238 122.755 121.989 121.925 122.914 121.925C123.84 121.925 124.59 122.755 124.59 123.779Z" fill="#1B1B43"/>
<path d="M133.39 125.239C133.278 126.143 132.525 126.795 131.707 126.694C130.889 126.594 130.316 125.779 130.428 124.874C130.539 123.97 131.293 123.318 132.11 123.418C132.928 123.519 133.501 124.334 133.39 125.239Z" fill="#1B1B43"/>
<path d="M124.504 119.126C124.57 119.992 123.184 120.074 121.142 120.135C119.099 120.196 117.688 120.827 117.672 120.28C117.656 119.732 119.167 118.325 121.181 117.985C123.26 117.633 124.424 118.095 124.504 119.126Z" fill="#1B1B43"/>
<path d="M131.03 119.96C130.88 120.813 131.899 121.033 133.409 121.298C134.919 121.562 135.893 122.329 135.969 121.787C136.045 121.245 135.086 119.697 133.629 119.158C132.127 118.602 131.209 118.944 131.03 119.96Z" fill="#1B1B43"/>
<path d="M128.602 126.779C128.989 127.252 129.42 127.663 129.861 128.083L130.53 128.705C130.761 128.915 131.012 129.146 131.235 129.495C131.344 129.673 131.433 129.901 131.448 130.156C131.468 130.414 131.387 130.666 131.282 130.859C131.053 131.244 130.779 131.466 130.482 131.666C129.889 132.056 129.248 132.217 128.627 132.338L128.482 131.978C129.016 131.634 129.547 131.325 129.961 130.968C130.159 130.793 130.353 130.578 130.423 130.413C130.5 130.248 130.478 130.192 130.386 129.999C130.166 129.638 129.603 129.156 129.236 128.654C128.835 128.156 128.473 127.59 128.262 126.965L128.602 126.779Z" fill="#1B1B43"/>
<path d="M120.202 132.884C121.216 134.04 122.271 135.11 123.541 135.789C124.802 136.487 126.239 136.684 127.759 136.52L127.862 136.894C127.128 137.219 126.3 137.395 125.464 137.347C124.628 137.311 123.8 137.059 123.071 136.657C121.607 135.844 120.527 134.53 119.875 133.092L120.202 132.884Z" fill="#1B1B43"/>
<path d="M114.251 131.831C111.989 131.831 110.156 129.999 110.156 127.739C110.156 125.479 111.989 123.646 114.251 123.646C116.512 123.646 118.345 125.479 118.345 127.739C118.345 129.999 116.512 131.831 114.251 131.831Z" fill="#FFA988"/>
<path d="M133.565 134.533C132.93 133.809 132.543 132.867 132.543 131.826C132.543 130.1 133.615 128.632 135.122 128.027C134.746 130.199 134.239 132.421 133.565 134.533Z" fill="#FFA988"/>
<path d="M88.4124 176.416L64.7656 187.657L72.1821 205.228L96.9757 193.801L88.4124 176.416Z" fill="#76FF94"/>
<path d="M176.004 237.361C175.348 237.032 174.938 236.811 174.938 236.811L175.174 236.344C175.174 236.344 175.611 236.555 176.245 236.894L176.004 237.361Z" fill="#C5C5FF"/>
<path d="M185.814 239.804C185.05 241.312 179.196 238.645 176.467 237.306C178.581 238.475 182.222 240.776 180.605 242.035C179.305 243.038 176.428 240.904 167.002 236.998C168.431 237.673 176.854 241.679 174.731 243.194C172.419 244.841 162.497 241.212 162.497 241.212L153.896 245.834H143.974L108.275 246.062C106.033 246.073 103.81 245.785 101.657 245.228C97.4204 244.149 93.432 242.046 90.0486 239.219C87.9154 237.434 86.0799 235.341 84.542 233.04C83.3911 231.314 82.4088 229.459 81.5954 227.525L72.1797 205.235L96.9739 193.797L109.912 220.049L152.576 229.31L164.482 226.335C167.042 225.692 170.663 226.774 172.916 228.151C178.412 231.514 186.528 238.364 185.814 239.804Z" fill="#FFBC96"/>
<path d="M101.654 245.229C97.4175 244.15 93.429 242.046 90.0456 239.22C87.9124 237.435 86.0769 235.341 84.5391 233.041C86.4144 231.532 88.7954 230.633 91.3855 230.633C97.4175 230.633 102.299 235.511 102.299 241.541C102.299 242.839 102.071 244.081 101.654 245.229Z" fill="#FFA988"/>
<path d="M152.516 229.124C155.474 228.141 158.472 227.293 161.531 226.653C163.06 226.338 164.609 226.082 166.188 225.993C166.977 225.948 167.776 225.961 168.582 226.055C168.98 226.134 169.377 226.238 169.775 226.332C170.153 226.463 170.523 226.619 170.897 226.761C173.8 228.075 176.329 229.957 178.774 231.891C181.219 233.839 183.527 235.932 185.771 238.112L185.874 238.212L185.896 238.34C185.975 238.811 185.921 239.243 185.66 239.682C185.5 239.866 185.336 240.07 185.121 240.156C184.913 240.291 184.707 240.34 184.501 240.374C183.679 240.509 182.96 240.34 182.273 240.156C180.893 239.776 179.663 239.146 178.421 238.537C177.207 237.89 176.01 237.216 174.85 236.486C173.67 235.787 172.549 235.005 171.399 234.265L171.923 233.424C173.953 234.628 175.927 235.891 177.815 237.323C178.751 238.053 179.679 238.793 180.477 239.769C180.668 240.028 180.86 240.288 180.994 240.641C181.067 240.807 181.107 241.018 181.112 241.246C181.094 241.485 181.02 241.738 180.857 241.924C180.545 242.284 180.169 242.405 179.851 242.485C179.52 242.571 179.21 242.589 178.896 242.62L178.799 242.63L178.693 242.585L167.923 238.077L168.245 237.319C169.942 238.101 171.593 238.942 173.168 239.977C173.936 240.523 174.744 241.021 175.309 241.969C175.438 242.208 175.531 242.575 175.397 242.917C175.262 243.249 174.999 243.46 174.758 243.575C174.26 243.827 173.758 243.879 173.276 243.907C171.345 243.952 169.533 243.498 167.733 243.056C165.939 242.582 164.177 242.021 162.433 241.392L162.564 241.028C164.304 241.61 166.076 242.122 167.86 242.547C169.637 242.948 171.469 243.339 173.238 243.253C174.082 243.218 175.088 242.848 174.677 242.291C174.29 241.641 173.491 241.087 172.758 240.599C171.234 239.631 169.577 238.811 167.915 238.074L168.237 237.316L179.046 241.731L178.844 241.696C179.11 241.668 179.385 241.651 179.62 241.585C179.864 241.533 180.061 241.423 180.127 241.343C180.278 241.281 180.075 240.748 179.737 240.35C179.051 239.516 178.143 238.779 177.234 238.084C175.395 236.7 173.422 235.451 171.429 234.282L171.954 233.445C173.095 234.175 174.202 234.963 175.364 235.655C176.508 236.378 177.681 237.046 178.865 237.686C180.063 238.281 181.273 238.901 182.527 239.247C183.141 239.423 183.795 239.544 184.32 239.454L184.512 239.423C184.571 239.406 184.607 239.368 184.657 239.347C184.772 239.312 184.807 239.222 184.884 239.167C184.981 239.018 185.024 238.741 184.99 238.541L185.115 238.769C182.92 236.603 180.61 234.528 178.227 232.566C175.838 230.625 173.348 228.74 170.596 227.453L169.549 227.034C169.191 226.947 168.837 226.847 168.477 226.771C167.739 226.678 166.982 226.65 166.22 226.684C164.695 226.747 163.162 226.958 161.644 227.238C158.606 227.802 155.596 228.58 152.638 229.494L152.516 229.124Z" fill="#D28572"/>
<path d="M72.335 205.57L72.0234 204.896L96.4899 193.614L86.2995 169.776L86.9838 169.482L97.4584 193.984L72.335 205.57Z" fill="#1B1B43"/>
<path d="M75.8331 309.969H74.5352V421.702H75.8331V309.969Z" fill="#1B1B43"/>
<path d="M106.439 314.927H43.9314C39.6848 314.927 36.2422 311.485 36.2422 307.24C36.2422 302.995 39.6848 299.556 43.9314 299.556H106.439C110.686 299.556 114.128 302.995 114.128 307.24C114.128 311.485 110.686 314.927 106.439 314.927Z" fill="#6D6D6D"/>
<path d="M101.476 428.975H48.8906V427.705C48.8906 421.322 54.067 416.146 60.4531 416.146H89.9138C96.2995 416.146 101.476 421.322 101.476 427.705V428.975Z" fill="black"/>
<path d="M260.504 428.557L149.711 253.023L150.808 252.331L261.602 427.865L260.504 428.557Z" fill="#1B1B43"/>
<path d="M150.808 428.557L149.711 427.865L260.504 252.331L261.602 253.023L150.808 428.557Z" fill="#1B1B43"/>
<path d="M302.722 245.505H108.586V260.139H302.722V245.505Z" fill="#535353"/>
<path d="M531.806 427.678H0V428.975H531.806V427.678Z" fill="#1B1B43"/>
<path d="M474.51 198.569H469.318V197.704H474.51V198.569ZM484.894 198.569H479.702V197.704H484.894V198.569ZM495.278 198.569H490.086V197.704H495.278V198.569ZM505.661 198.569H500.47V197.704H505.661V198.569ZM516.045 198.569H510.853V197.704H516.045V198.569ZM526.429 198.569H521.237V197.704H526.429V198.569ZM536.813 198.569H531.621V197.704H536.813V198.569ZM547.197 198.569H542.005V197.704H547.197V198.569ZM557.581 198.569H552.389V197.704H557.581V198.569ZM567.965 198.569H562.773V197.704H567.965V198.569ZM577.871 200.285C576.365 199.517 574.756 198.998 573.084 198.745L573.212 197.891C574.977 198.157 576.677 198.704 578.265 199.514L577.871 200.285ZM459.477 200.493L459.062 199.735C460.63 198.877 462.312 198.282 464.067 197.967L464.223 198.818C462.558 199.116 460.962 199.68 459.477 200.493ZM584.838 207.36C584.094 205.848 583.115 204.468 581.924 203.26L582.544 202.655C583.797 203.928 584.832 205.381 585.617 206.979L584.838 207.36ZM452.714 207.761L451.925 207.402C452.666 205.782 453.659 204.298 454.877 202.99L455.511 203.582C454.355 204.821 453.413 206.225 452.714 207.761ZM587.313 217.293H586.448V214.293C586.448 213.584 586.399 212.868 586.306 212.166L587.161 212.051C587.261 212.788 587.313 213.542 587.313 214.293V217.293ZM451.295 217.749H450.43V214.293C450.43 213.705 450.461 213.107 450.523 212.518L451.385 212.612C451.326 213.169 451.295 213.736 451.295 214.293V217.749ZM587.313 227.672H586.448V222.482H587.313V227.672ZM451.295 228.128H450.43V222.939H451.295V228.128ZM587.313 238.051H586.448V232.861H587.313V238.051ZM451.295 238.508H450.43V233.318H451.295V238.508ZM587.313 248.43H586.448V243.24H587.313V248.43ZM451.295 248.887H450.43V243.697H451.295V248.887ZM587.313 258.809H586.448V253.619H587.313V258.809ZM451.295 259.266H450.43V254.076H451.295V259.266ZM587.313 269.188H586.448V263.998H587.313V269.188ZM451.295 269.645H450.43V264.455H451.295V269.645ZM586.804 279.629L585.967 279.418C586.285 278.159 586.448 276.855 586.448 275.543V274.377H587.313V275.543C587.313 276.927 587.144 278.301 586.804 279.629ZM451.06 280.086C450.641 278.616 450.43 277.086 450.43 275.543V274.834H451.295V275.543C451.295 277.007 451.496 278.456 451.89 279.847L451.06 280.086ZM581.149 288.444L580.605 287.773C581.921 286.708 583.052 285.448 583.963 284.027L584.693 284.497C583.731 285.995 582.537 287.324 581.149 288.444ZM456.965 288.735C455.545 287.652 454.317 286.358 453.313 284.888L454.026 284.4C454.978 285.794 456.144 287.023 457.487 288.05L456.965 288.735ZM571.339 292.122L571.308 291.257C573.004 291.195 574.666 290.863 576.241 290.271L576.545 291.081C574.88 291.704 573.132 292.053 571.339 292.122ZM466.874 292.133C465.081 292.115 463.323 291.814 461.644 291.24L461.925 290.423C463.513 290.967 465.182 291.25 466.881 291.268L466.874 292.133ZM477.262 292.133H472.07V291.268H477.262V292.133ZM487.645 292.133H482.454V291.268H487.645V292.133ZM498.029 292.133H492.837V291.268H498.029V292.133ZM508.413 292.133H503.221V291.268H508.413V292.133ZM518.797 292.133H513.605V291.268H518.797V292.133ZM529.181 292.133H523.989V291.268H529.181V292.133ZM539.565 292.133H534.373V291.268H539.565V292.133ZM549.949 292.133H544.757V291.268H549.949V292.133ZM560.333 292.133H555.141V291.268H560.333V292.133ZM570.716 292.133H565.524V291.268H570.716V292.133Z" fill="#008B1E"/>
<path d="M561.243 276.811H450.776C443.904 276.811 438.33 271.24 438.33 264.368V193.77C438.33 186.898 443.904 181.33 450.776 181.33H561.243C568.118 181.33 573.688 186.898 573.688 193.77V264.368C573.688 271.24 568.118 276.811 561.243 276.811Z" fill="white" stroke="black" stroke-width="0.66"/>
<path d="M476.38 237.158H461.652V267.053H476.38V237.158Z" fill="#A276FF"/>
<path d="M501.041 238.116H486.316V267.053H501.041V238.116Z" fill="#A276FF"/>
<path d="M525.708 223.001H510.98V267.053H525.708V223.001Z" fill="#A276FF"/>
<path d="M550.372 210.079H535.645V267.053H550.372V210.079Z" fill="#A276FF"/>
<path d="M545.525 194.542H466.5V197.995H545.525V194.542Z" fill="#A276FF"/>
<path d="M294 168.132H489.326" stroke="#263238" stroke-width="0.829701" stroke-linecap="round" stroke-linejoin="round"/>
<path d="M313.533 168.131V166.168" stroke="#263238" stroke-width="0.829701" stroke-linecap="round" stroke-linejoin="round"/>
<path d="M333.066 168.131V166.168" stroke="#263238" stroke-width="0.829701" stroke-linecap="round" stroke-linejoin="round"/>
<path d="M352.6 168.131V166.168" stroke="#263238" stroke-width="0.829701" stroke-linecap="round" stroke-linejoin="round"/>
<path d="M372.135 168.131V166.168" stroke="#263238" stroke-width="0.829701" stroke-linecap="round" stroke-linejoin="round"/>
<path d="M391.668 168.131V166.168" stroke="#263238" stroke-width="0.829701" stroke-linecap="round" stroke-linejoin="round"/>
<path d="M411.201 168.131V166.168" stroke="#263238" stroke-width="0.829701" stroke-linecap="round" stroke-linejoin="round"/>
<path d="M430.734 168.131V166.168" stroke="#263238" stroke-width="0.829701" stroke-linecap="round" stroke-linejoin="round"/>
<path d="M450.268 168.131V166.168" stroke="#263238" stroke-width="0.829701" stroke-linecap="round" stroke-linejoin="round"/>
<path d="M469.801 168.131V166.168" stroke="#263238" stroke-width="0.829701" stroke-linecap="round" stroke-linejoin="round"/>
<path d="M489.326 168.131V166.168" stroke="#263238" stroke-width="0.829701" stroke-linecap="round" stroke-linejoin="round"/>
<path d="M294 168.132V160.386V81.6699" stroke="#263238" stroke-width="0.829701" stroke-linecap="round" stroke-linejoin="round"/>
<path d="M294 160.386H298.886" stroke="#263238" stroke-width="0.829701" stroke-linecap="round" stroke-linejoin="round"/>
<path d="M294 147.262H298.886" stroke="#263238" stroke-width="0.829701" stroke-linecap="round" stroke-linejoin="round"/>
<path d="M294 134.139H298.886" stroke="#263238" stroke-width="0.829701" stroke-linecap="round" stroke-linejoin="round"/>
<path d="M294 121.032H298.886" stroke="#263238" stroke-width="0.829701" stroke-linecap="round" stroke-linejoin="round"/>
<path d="M294 107.908H298.886" stroke="#263238" stroke-width="0.829701" stroke-linecap="round" stroke-linejoin="round"/>
<path d="M294 94.7939H298.886" stroke="#263238" stroke-width="0.829701" stroke-linecap="round" stroke-linejoin="round"/>
<path d="M294 81.6699H298.886" stroke="#263238" stroke-width="0.829701" stroke-linecap="round" stroke-linejoin="round"/>
<path d="M323.296 128.777L303.771 168.131" stroke="#76FF94" stroke-width="2.21254" stroke-linecap="round" stroke-linejoin="round"/>
<path d="M342.837 155.007L323.295 128.777" stroke="#76FF94" stroke-width="2.21254" stroke-linecap="round" stroke-linejoin="round"/>
<path d="M362.371 134.021L342.838 155.007" stroke="#76FF94" stroke-width="2.21254" stroke-linecap="round" stroke-linejoin="round"/>
<path d="M381.896 89.4238L362.371 134.022" stroke="#76FF94" stroke-width="2.21254" stroke-linecap="round" stroke-linejoin="round"/>
<path d="M401.439 102.539L381.896 89.4238" stroke="#76FF94" stroke-width="2.21254" stroke-linecap="round" stroke-linejoin="round"/>
<path d="M420.964 148.455L401.439 102.539" stroke="#76FF94" stroke-width="2.21254" stroke-linecap="round" stroke-linejoin="round"/>
<path d="M440.496 144.52L420.963 148.455" stroke="#76FF94" stroke-width="2.21254" stroke-linecap="round" stroke-linejoin="round"/>
<path d="M460.039 139.266L440.496 144.519" stroke="#76FF94" stroke-width="2.21254" stroke-linecap="round" stroke-linejoin="round"/>
<path d="M479.564 115.653L460.039 139.266" stroke="#76FF94" stroke-width="2.21254" stroke-linecap="round" stroke-linejoin="round"/>
<path d="M303.772 166.123C304.314 166.123 304.834 166.338 305.217 166.722C305.6 167.105 305.815 167.625 305.815 168.167C305.815 168.71 305.6 169.231 305.217 169.615C304.834 170 304.314 170.217 303.772 170.22C303.228 170.217 302.707 170 302.323 169.616C301.938 169.231 301.721 168.711 301.719 168.167C301.721 167.624 301.938 167.104 302.323 166.721C302.708 166.338 303.229 166.123 303.772 166.123Z" fill="white" stroke="#263238" stroke-width="0.829701" stroke-linecap="round" stroke-linejoin="round"/>
<path d="M323.296 126.733C323.839 126.733 324.36 126.948 324.744 127.332C325.129 127.715 325.346 128.234 325.349 128.777C325.346 129.32 325.129 129.84 324.744 130.223C324.36 130.606 323.839 130.821 323.296 130.821C322.754 130.821 322.234 130.606 321.851 130.223C321.467 129.839 321.252 129.319 321.252 128.777C321.252 128.235 321.467 127.715 321.851 127.332C322.234 126.949 322.754 126.733 323.296 126.733Z" fill="white" stroke="#263238" stroke-width="0.829701" stroke-linecap="round" stroke-linejoin="round"/>
<path d="M342.829 152.964C343.371 152.964 343.891 153.179 344.274 153.562C344.658 153.946 344.873 154.466 344.873 155.008C344.873 155.551 344.658 156.071 344.275 156.456C343.892 156.841 343.372 157.058 342.829 157.061C342.286 157.058 341.766 156.841 341.383 156.456C341 156.071 340.785 155.551 340.785 155.008C340.785 154.466 341 153.946 341.384 153.562C341.767 153.179 342.287 152.964 342.829 152.964Z" fill="white" stroke="#263238" stroke-width="0.829701" stroke-linecap="round" stroke-linejoin="round"/>
<path d="M362.426 131.978C362.966 131.98 363.484 132.196 363.865 132.579C364.247 132.962 364.461 133.481 364.461 134.021C364.461 134.562 364.247 135.08 363.865 135.464C363.484 135.847 362.966 136.063 362.426 136.065C361.883 136.065 361.362 135.85 360.977 135.467C360.593 135.084 360.375 134.564 360.373 134.021C360.375 133.479 360.593 132.959 360.977 132.576C361.362 132.193 361.883 131.978 362.426 131.978Z" fill="white" stroke="#263238" stroke-width="0.829701" stroke-linecap="round" stroke-linejoin="round"/>
<path d="M381.895 87.3711C382.44 87.3711 382.962 87.5874 383.347 87.9724C383.732 88.3573 383.948 88.8795 383.948 89.4239C383.946 89.9668 383.729 90.4867 383.344 90.8697C382.959 91.2528 382.438 91.4678 381.895 91.4678C381.627 91.4678 381.361 91.415 381.113 91.3122C380.865 91.2095 380.64 91.059 380.45 90.8692C380.26 90.6794 380.11 90.4541 380.007 90.2061C379.904 89.9581 379.852 89.6923 379.852 89.4239C379.852 88.881 380.067 88.3603 380.45 87.9755C380.833 87.5908 381.353 87.3735 381.895 87.3711Z" fill="white" stroke="#263238" stroke-width="0.829701" stroke-linecap="round" stroke-linejoin="round"/>
<path d="M401.438 100.494C401.98 100.496 402.498 100.713 402.881 101.095C403.264 101.478 403.48 101.997 403.482 102.538C403.482 103.081 403.267 103.602 402.884 103.986C402.501 104.371 401.981 104.589 401.438 104.591C400.896 104.589 400.376 104.371 399.993 103.986C399.61 103.602 399.395 103.081 399.395 102.538C399.395 101.996 399.61 101.476 399.993 101.093C400.376 100.709 400.896 100.494 401.438 100.494Z" fill="white" stroke="#263238" stroke-width="0.829701" stroke-linecap="round" stroke-linejoin="round"/>
<path d="M420.936 146.411C421.479 146.411 422 146.626 422.385 147.009C422.77 147.392 422.987 147.912 422.989 148.455C422.987 148.998 422.77 149.518 422.385 149.901C422 150.284 421.479 150.499 420.936 150.499C420.394 150.499 419.875 150.284 419.491 149.9C419.108 149.517 418.893 148.997 418.893 148.455C418.893 147.913 419.108 147.393 419.491 147.01C419.875 146.626 420.394 146.411 420.936 146.411Z" fill="white" stroke="#263238" stroke-width="0.829701" stroke-linecap="round" stroke-linejoin="round"/>
<path d="M440.542 142.475C441.084 142.475 441.604 142.69 441.987 143.073C442.37 143.457 442.586 143.976 442.586 144.519C442.586 145.061 442.371 145.582 441.988 145.967C441.605 146.352 441.085 146.569 440.542 146.571C439.999 146.569 439.479 146.352 439.096 145.967C438.713 145.582 438.498 145.061 438.498 144.519C438.498 143.976 438.713 143.457 439.097 143.073C439.48 142.69 440 142.475 440.542 142.475Z" fill="white" stroke="#263238" stroke-width="0.829701" stroke-linecap="round" stroke-linejoin="round"/>
<path d="M460.039 137.222C460.58 137.224 461.097 137.44 461.479 137.823C461.86 138.207 462.074 138.725 462.074 139.266C462.074 139.806 461.86 140.325 461.479 140.708C461.097 141.091 460.58 141.307 460.039 141.309C459.496 141.309 458.975 141.094 458.591 140.711C458.206 140.328 457.989 139.808 457.986 139.266C457.989 138.723 458.206 138.203 458.591 137.82C458.975 137.437 459.496 137.222 460.039 137.222Z" fill="white" stroke="#263238" stroke-width="0.829701" stroke-linecap="round" stroke-linejoin="round"/>
<path d="M479.563 113.609C480.106 113.609 480.627 113.824 481.012 114.207C481.397 114.591 481.614 115.11 481.616 115.653C481.614 116.196 481.397 116.716 481.012 117.099C480.627 117.482 480.106 117.697 479.563 117.697C479.021 117.697 478.501 117.482 478.118 117.099C477.735 116.715 477.52 116.195 477.52 115.653C477.52 115.111 477.735 114.591 478.118 114.208C478.501 113.825 479.021 113.609 479.563 113.609Z" fill="white" stroke="#263238" stroke-width="0.829701" stroke-linecap="round" stroke-linejoin="round"/>
<path d="M323.5 119C323.5 118.724 323.276 118.5 323 118.5C322.724 118.5 322.5 118.724 322.5 119L323.5 119ZM323.5 127L323.5 119L322.5 119L322.5 127L323.5 127Z" fill="#263238"/>
<path d="M382.145 80.6387C382.145 80.3625 381.921 80.1387 381.645 80.1387C381.368 80.1387 381.145 80.3625 381.145 80.6387H382.145ZM382.145 87.4516V80.6387H381.145V87.4516H382.145Z" fill="#263238"/>
<path d="M479.5 106C479.5 105.724 479.276 105.5 479 105.5C478.724 105.5 478.5 105.724 478.5 106L479.5 106ZM479.5 114L479.5 106L478.5 106L478.5 114L479.5 114Z" fill="#263238"/>
<path d="M323.139 115.447V105.144H323.799V115.447H323.139ZM325.042 108.44C325.005 108.089 324.847 107.815 324.567 107.619C324.291 107.424 323.932 107.326 323.489 107.326C323.178 107.326 322.911 107.373 322.688 107.466C322.465 107.56 322.295 107.688 322.177 107.849C322.059 108.01 321.998 108.194 321.996 108.4C321.996 108.572 322.035 108.721 322.112 108.847C322.193 108.973 322.302 109.08 322.438 109.169C322.575 109.255 322.727 109.327 322.893 109.386C323.06 109.445 323.227 109.495 323.396 109.535L324.169 109.728C324.48 109.801 324.779 109.899 325.067 110.022C325.356 110.146 325.615 110.301 325.843 110.489C326.074 110.677 326.256 110.903 326.391 111.169C326.525 111.435 326.592 111.746 326.592 112.103C326.592 112.586 326.468 113.011 326.222 113.379C325.975 113.744 325.618 114.029 325.151 114.236C324.687 114.44 324.125 114.542 323.465 114.542C322.823 114.542 322.267 114.442 321.795 114.244C321.325 114.045 320.957 113.756 320.692 113.375C320.429 112.994 320.287 112.529 320.265 111.982H321.734C321.756 112.269 321.844 112.508 322 112.698C322.155 112.889 322.358 113.031 322.607 113.125C322.86 113.219 323.141 113.266 323.453 113.266C323.777 113.266 324.062 113.218 324.306 113.121C324.553 113.022 324.746 112.885 324.885 112.711C325.025 112.533 325.096 112.327 325.099 112.091C325.096 111.876 325.033 111.699 324.91 111.56C324.786 111.417 324.613 111.299 324.39 111.205C324.17 111.109 323.913 111.023 323.618 110.948L322.68 110.706C322.001 110.532 321.464 110.268 321.07 109.913C320.678 109.557 320.482 109.083 320.482 108.493C320.482 108.007 320.614 107.582 320.877 107.217C321.143 106.852 321.503 106.569 321.96 106.368C322.416 106.164 322.932 106.062 323.509 106.062C324.094 106.062 324.606 106.164 325.046 106.368C325.489 106.569 325.837 106.849 326.089 107.209C326.341 107.566 326.471 107.976 326.479 108.44H325.042Z" fill="#263238"/>
<rect x="307.5" y="102.5" width="33" height="16" rx="8" stroke="#263238"/>
<path d="M381.139 77.4473V67.1443H381.799V77.4473H381.139ZM383.042 70.4404C383.005 70.0889 382.847 69.8153 382.567 69.6194C382.291 69.4235 381.932 69.3256 381.489 69.3256C381.178 69.3256 380.911 69.3726 380.688 69.4665C380.465 69.5604 380.295 69.6878 380.177 69.8488C380.059 70.0098 379.998 70.1936 379.996 70.4002C379.996 70.5719 380.035 70.7208 380.112 70.8469C380.193 70.973 380.302 71.0803 380.438 71.1689C380.575 71.2547 380.727 71.3272 380.893 71.3862C381.06 71.4452 381.227 71.4949 381.396 71.5351L382.169 71.7283C382.48 71.8008 382.779 71.8987 383.067 72.0221C383.356 72.1455 383.615 72.3011 383.843 72.489C384.074 72.6768 384.256 72.9035 384.391 73.1691C384.525 73.4347 384.592 73.746 384.592 74.1028C384.592 74.5858 384.468 75.0111 384.222 75.3786C383.975 75.7435 383.618 76.0293 383.151 76.2359C382.687 76.4398 382.125 76.5418 381.465 76.5418C380.823 76.5418 380.267 76.4425 379.795 76.2439C379.325 76.0454 378.957 75.7556 378.692 75.3746C378.429 74.9936 378.287 74.5294 378.265 73.9821H379.734C379.756 74.2692 379.844 74.508 380 74.6985C380.155 74.889 380.358 75.0312 380.607 75.1251C380.86 75.219 381.141 75.266 381.453 75.266C381.777 75.266 382.062 75.2177 382.306 75.1211C382.553 75.0218 382.746 74.885 382.885 74.7106C383.025 74.5335 383.096 74.3269 383.099 74.0908C383.096 73.8761 383.033 73.699 382.91 73.5595C382.786 73.4173 382.613 73.2993 382.39 73.2053C382.17 73.1088 381.913 73.0229 381.618 72.9478L380.68 72.7063C380.001 72.5319 379.464 72.2676 379.07 71.9134C378.678 71.5566 378.482 71.083 378.482 70.4927C378.482 70.0071 378.614 69.5818 378.877 69.2169C379.143 68.852 379.503 68.569 379.96 68.3677C380.416 68.1638 380.932 68.0619 381.509 68.0619C382.094 68.0619 382.606 68.1638 383.046 68.3677C383.489 68.569 383.837 68.8494 384.089 69.2089C384.341 69.5657 384.471 69.9763 384.479 70.4404H383.042Z" fill="#263238"/>
<rect x="365.5" y="64.5" width="33" height="16" rx="8" stroke="#263238"/>
<path d="M478.139 102.447V92.1443H478.799V102.447H478.139ZM480.042 95.4404C480.005 95.0889 479.847 94.8153 479.567 94.6194C479.291 94.4235 478.932 94.3256 478.489 94.3256C478.178 94.3256 477.911 94.3726 477.688 94.4665C477.465 94.5604 477.295 94.6878 477.177 94.8488C477.059 95.0098 476.998 95.1936 476.996 95.4002C476.996 95.5719 477.035 95.7208 477.112 95.8469C477.193 95.973 477.302 96.0803 477.438 96.1689C477.575 96.2547 477.727 96.3272 477.893 96.3862C478.06 96.4452 478.227 96.4949 478.396 96.5351L479.169 96.7283C479.48 96.8008 479.779 96.8987 480.067 97.0221C480.356 97.1455 480.615 97.3011 480.843 97.489C481.074 97.6768 481.256 97.9035 481.391 98.1691C481.525 98.4347 481.592 98.746 481.592 99.1028C481.592 99.5858 481.468 100.011 481.222 100.379C480.975 100.744 480.618 101.029 480.151 101.236C479.687 101.44 479.125 101.542 478.465 101.542C477.823 101.542 477.267 101.442 476.795 101.244C476.325 101.045 475.957 100.756 475.692 100.375C475.429 99.9936 475.287 99.5294 475.265 98.9821H476.734C476.756 99.2692 476.844 99.508 477 99.6985C477.155 99.889 477.358 100.031 477.607 100.125C477.86 100.219 478.141 100.266 478.453 100.266C478.777 100.266 479.062 100.218 479.306 100.121C479.553 100.022 479.746 99.885 479.885 99.7106C480.025 99.5335 480.096 99.3269 480.099 99.0908C480.096 98.8761 480.033 98.699 479.91 98.5595C479.786 98.4173 479.613 98.2993 479.39 98.2053C479.17 98.1088 478.913 98.0229 478.618 97.9478L477.68 97.7063C477.001 97.5319 476.464 97.2676 476.07 96.9134C475.678 96.5566 475.482 96.083 475.482 95.4927C475.482 95.0071 475.614 94.5818 475.877 94.2169C476.143 93.852 476.503 93.569 476.96 93.3677C477.416 93.1638 477.932 93.0619 478.509 93.0619C479.094 93.0619 479.606 93.1638 480.046 93.3677C480.489 93.569 480.837 93.8494 481.089 94.2089C481.341 94.5657 481.471 94.9763 481.479 95.4404H480.042Z" fill="#263238"/>
<rect x="462.5" y="89.5" width="33" height="16" rx="8" stroke="#263238"/>
</svg>
