<svg width="160" height="43" viewBox="0 0 160 43" fill="none" xmlns="http://www.w3.org/2000/svg">
<path fill-rule="evenodd" clip-rule="evenodd" d="M19.6388 0.0050803C17.8784 0.0510323 16.106 0.414394 14.4215 1.01347C7.89809 3.70081 3.36094 9.56565 1.30831 16.6023C0.961755 17.923 0.680715 19.2454 0.529851 20.6095C0.529851 20.6537 0.42209 21.9965 0.616059 21.634C0.810028 21.3149 0.896237 20.8452 1.00486 20.4818C1.99798 17.1775 3.20921 14.1702 5.067 11.3127C9.51795 4.85047 16.6681 0.693509 24.2286 2.99622C25.6338 3.46425 26.8864 4.14757 28.139 4.95769C28.376 5.12873 30.1261 6.49368 29.7373 5.25637C29.4131 4.27692 28.5924 3.44297 27.8795 2.78177C25.476 0.730101 22.5742 -0.0723574 19.6388 0.0050803ZM74.8191 6.4707C73.8045 6.4707 73.0269 6.81364 72.4863 7.51738C71.9243 8.19901 71.6656 9.22272 71.6656 10.5672V20.2912C70.4122 18.9271 69.1173 17.9451 67.8 17.2822C66.8931 16.8499 65.9233 16.5623 64.925 16.4304C64.2672 16.3427 63.6034 16.3002 62.9396 16.3036C59.6344 16.3036 56.9335 17.4541 54.9041 19.7559C52.8722 22.0595 51.8575 25.2591 51.8575 29.3744C51.8575 31.3154 52.1179 33.1263 52.6144 34.7899C53.1343 36.4535 53.8895 37.9027 54.8826 39.14C55.8378 40.3356 57.0464 41.3117 58.424 41.9984C59.7852 42.6579 61.2534 43 62.8525 43C63.5663 43 64.2577 42.9345 64.9259 42.8068C65.3509 42.7405 65.7698 42.6409 66.1793 42.5098C67.1914 42.1695 68.1449 41.6802 69.0096 41.0598C69.8966 40.419 70.7596 39.5885 71.6674 38.5861V39.2243C71.6674 40.442 71.9708 41.3585 72.5527 42.0188C73.1355 42.6579 73.9148 43 74.8209 43C75.7269 43 76.4838 42.68 77.0675 42.0614C77.6511 41.4215 77.9304 40.4846 77.9304 39.2243V10.2243C77.9304 9.00997 77.6718 8.07136 77.1312 7.43144C76.5709 6.79236 75.7924 6.47155 74.82 6.47155L74.8191 6.4707ZM156.345 6.4707C155.33 6.4707 154.552 6.81364 154.013 7.51738C153.472 8.19901 153.191 9.22272 153.191 10.5672V20.2912C151.939 18.9271 150.642 17.9451 149.326 17.2822C148.504 16.8771 147.533 16.5801 146.452 16.4304C145.794 16.3427 145.129 16.3002 144.464 16.3036C141.161 16.3036 138.482 17.4541 136.429 19.7559C134.399 22.0595 133.383 25.2591 133.383 29.3744C133.383 31.3154 133.643 33.1263 134.161 34.7899C134.679 36.4535 135.413 37.9027 136.407 39.14C137.363 40.3365 138.573 41.3117 139.951 41.9984C141.311 42.6579 142.781 43 144.379 43C145.112 43 145.804 42.9345 146.452 42.8068C146.885 42.7439 147.294 42.6375 147.704 42.5098C148.715 42.1695 149.67 41.681 150.533 41.0598C151.421 40.419 152.306 39.5885 153.191 38.5861V39.2243C153.191 40.442 153.494 41.3585 154.077 42.0188C154.683 42.6579 155.438 43 156.345 43C157.252 43 158.029 42.68 158.615 42.0614C159.198 41.4215 159.5 40.4846 159.5 39.2243V10.2243C159.5 9.00997 159.22 8.07136 158.68 7.43144C158.118 6.79236 157.362 6.47155 156.346 6.47155L156.345 6.4707ZM17.9362 8.24666C17.0233 8.22283 16.1189 8.42706 15.306 8.83893C12.6059 10.1818 11.5249 13.4443 12.9077 16.1096C14.268 18.7756 17.5724 19.8427 20.2733 18.4786C22.9734 17.135 24.0536 13.8724 22.6716 11.208C21.7673 9.4346 19.9474 8.29687 17.9362 8.24666ZM93.2022 16.2159C91.2789 16.2381 89.5298 16.5572 87.9314 17.1528C86.2892 17.7945 84.9073 18.7118 83.7848 19.8844C82.6607 21.0775 81.7969 22.508 81.2132 24.1699C80.6296 25.8344 80.3279 27.6469 80.3279 29.5863C80.3279 33.7236 81.5374 36.9633 83.9133 39.3723C86.1599 41.6555 89.2504 42.8485 93.2031 42.9753C93.4402 42.9974 93.6566 42.9983 93.8945 42.9983C95.7738 42.9983 97.4161 42.7626 98.8635 42.2733C100.31 41.7814 101.498 41.1857 102.448 40.4599C103.421 39.7153 104.112 38.9469 104.588 38.1572C105.063 37.3692 105.3 36.6654 105.3 36.0902C105.3 35.429 105.085 34.8963 104.674 34.5321C104.243 34.1713 103.68 33.9781 103.01 33.9781C102.34 33.9781 101.889 34.1287 101.541 34.4053C100.877 35.0299 100.2 35.6409 99.511 36.2391C98.967 36.6901 98.3971 37.1105 97.804 37.4968C97.1764 37.8806 96.5514 38.1801 95.8807 38.3503C95.2333 38.5418 94.4988 38.6269 93.6996 38.6269C93.5264 38.6269 93.354 38.6269 93.2031 38.6048C92.21 38.541 91.2798 38.2644 90.4393 37.7513C89.4668 37.1769 88.6668 36.3242 88.0849 35.2154C87.4797 34.064 87.1763 32.7416 87.1547 31.2499H100.202C101.932 31.2499 103.292 30.9938 104.264 30.5249C105.215 30.0134 105.69 28.9463 105.69 27.3048C105.69 25.5136 105.236 23.7657 104.307 22.0391C103.378 20.332 101.975 18.9262 100.117 17.837C98.2584 16.7512 96.0109 16.2159 93.4203 16.2159H93.2039H93.2022ZM119.881 16.2159C117.958 16.2381 116.187 16.5572 114.61 17.1528C112.968 17.7945 111.585 18.7118 110.44 19.8844C109.338 21.0775 108.475 22.508 107.893 24.1699C107.309 25.8344 107.006 27.6469 107.006 29.5863C107.006 33.7236 108.194 36.9633 110.57 39.3723C112.816 41.6555 115.928 42.8485 119.881 42.9753C120.098 42.9974 120.333 42.9983 120.571 42.9983C122.429 42.9983 124.093 42.7626 125.54 42.2733C126.986 41.7814 128.175 41.1857 129.125 40.4599C130.077 39.7153 130.788 38.9469 131.265 38.1572C131.74 37.3692 131.978 36.6654 131.978 36.0902C131.978 35.429 131.761 34.8963 131.329 34.5321C130.918 34.1713 130.358 33.9781 129.666 33.9781C129.038 33.9781 128.563 34.1287 128.218 34.4053C127.375 35.1728 126.707 35.7915 126.188 36.2391C125.636 36.691 125.059 37.1105 124.459 37.4968C123.856 37.8806 123.206 38.1801 122.56 38.3503C121.889 38.5418 121.178 38.6269 120.378 38.6269C120.204 38.6269 120.032 38.6269 119.881 38.6048C118.887 38.541 117.958 38.2644 117.115 37.7513C116.122 37.1769 115.343 36.3242 114.739 35.2154C114.155 34.064 113.852 32.7416 113.831 31.2499H126.856C128.607 31.2499 129.968 30.9938 130.918 30.5249C131.891 30.0134 132.365 28.9463 132.365 27.3048C132.365 25.5136 131.892 23.7657 130.962 22.0391C130.034 20.332 128.65 18.9262 126.771 17.837C124.913 16.7512 122.689 16.2159 120.074 16.2159H119.881ZM29.1528 16.2602C28.1804 16.2602 27.4234 16.5793 26.8838 17.1971C26.3226 17.7945 26.0415 18.7331 26.0415 19.99V38.9886C26.0415 40.2676 26.3441 41.27 26.97 41.9533C27.5976 42.6562 28.3743 42.9983 29.3468 42.9983C30.3192 42.9983 31.139 42.6554 31.7666 41.9967C32.3925 41.3142 32.7175 40.3314 32.7175 38.9886V30.7793C32.7175 28.0707 32.8684 26.259 33.1925 25.277C33.646 24.0414 34.3813 23.0824 35.3529 22.3786C36.3253 21.6961 37.4055 21.3336 38.5935 21.3336C40.4064 21.3336 41.6384 21.9097 42.2435 23.0594C42.8479 24.2124 43.1513 25.8735 43.1513 28.0503V38.9886C43.1513 40.2676 43.4522 41.27 44.0798 41.9533C44.7057 42.6562 45.5057 42.9983 46.4988 42.9983C47.4919 42.9983 48.2695 42.6554 48.8747 41.9737C49.4799 41.3142 49.8032 40.3101 49.8032 38.9886V26.7713C49.8032 25.3221 49.7394 24.1265 49.6092 23.21C49.4799 22.2714 49.1997 21.3991 48.7463 20.5873C48.0549 19.202 47.0393 18.1357 45.6565 17.3886C44.2738 16.6414 42.6979 16.2593 40.947 16.2593C39.1961 16.2593 37.534 16.6201 36.1296 17.3247C34.7477 18.0489 33.4736 19.1586 32.2839 20.6928V19.8844C32.2839 19.1169 32.1554 18.4557 31.8744 17.9008C31.5942 17.3469 31.2045 16.941 30.7295 16.6635C30.2528 16.3861 29.7347 16.2602 29.1528 16.2602ZM93.1815 20.8009H93.2022C94.929 20.8009 96.3333 21.3549 97.392 22.4646C98.4739 23.5725 99.0773 25.2574 99.2497 27.5184H87.153C87.3909 25.3017 88.0392 23.6159 89.097 22.4867C90.1556 21.3566 91.516 20.8018 93.1807 20.8018L93.1815 20.8009ZM119.86 20.8009H119.882C121.61 20.8009 123.012 21.3549 124.07 22.4646C125.13 23.5725 125.756 25.2574 125.907 27.5184H113.832C114.047 25.3017 114.696 23.6159 115.776 22.4867C116.835 21.3566 118.196 20.8018 119.859 20.8018L119.86 20.8009ZM64.8405 21.1847H64.925C66.0698 21.1847 67.1293 21.5259 68.0802 22.188C69.0733 22.8483 69.8527 23.8082 70.4354 25.0659C70.9984 26.3245 71.3001 27.8384 71.3001 29.5871C71.3001 31.4626 70.9984 33.0191 70.4354 34.2555C69.8535 35.4928 69.0742 36.4084 68.1026 37.005C67.1509 37.6023 66.0707 37.9027 64.9259 37.9027H64.906C63.7396 37.9027 62.6801 37.5828 61.7077 36.9641C60.7154 36.325 59.9585 35.3864 59.3973 34.15C58.8352 32.8914 58.555 31.3775 58.555 29.5863C58.555 27.9014 58.8154 26.4088 59.3335 25.151C59.8732 23.872 60.6077 22.89 61.5792 22.2084C62.5301 21.5038 63.6319 21.1847 64.8422 21.1847H64.8405ZM146.386 21.1847H146.451C147.596 21.1847 148.655 21.5259 149.627 22.188C150.6 22.8483 151.378 23.8082 151.96 25.0659C152.544 26.3245 152.825 27.8384 152.825 29.5871C152.825 31.4626 152.544 33.0191 151.96 34.2555C151.378 35.4928 150.598 36.4084 149.648 37.005C148.691 37.5998 147.583 37.9112 146.451 37.9027H146.431C145.265 37.9027 144.205 37.5828 143.232 36.9641C142.262 36.325 141.484 35.3864 140.922 34.15C140.361 32.8914 140.08 31.3775 140.08 29.5863C140.08 27.9014 140.337 26.4096 140.878 25.151C141.397 23.872 142.153 22.89 143.104 22.2084C144.077 21.5038 145.156 21.1847 146.386 21.1847ZM21.6354 21.3991C19.9061 22.4203 17.8767 22.9973 15.7163 22.9973C15.2637 22.9973 14.831 22.9768 14.3767 22.9334V38.6278C14.3767 40.0778 14.7224 41.1653 15.3931 41.8912C16.0844 42.6375 16.9276 43 17.9853 43C19.0431 43 19.9518 42.6375 20.619 41.9125C21.2897 41.1874 21.6345 40.0999 21.6345 38.6286V21.4009L21.6354 21.3991Z" fill="black"/>
</svg>
