<svg width="178" height="50" viewBox="0 0 178 50" fill="none" xmlns="http://www.w3.org/2000/svg">
<path d="M0.5 10.3218H7.19107V33.7247H18.9909V39.2114H0.5V10.3218Z" fill="black"/>
<path d="M28.2763 12.4232C28.2763 14.223 26.9109 15.682 24.6661 15.682C22.5515 15.682 21.189 14.223 21.189 12.4232C21.189 10.6234 22.5978 9.16444 24.7558 9.16444C26.9138 9.16444 28.233 10.5784 28.2763 12.4232ZM21.3654 39.2117V18.2507H28.0565V39.2117H21.3654Z" fill="black"/>
<path d="M32.06 24.9369C32.06 22.3231 31.9732 20.1374 31.8836 18.2503H37.6952L38.0048 21.1655H38.1378C39.0172 19.7938 41.1753 17.7799 44.7855 17.7799C49.1884 17.7799 52.4891 20.6529 52.4891 26.824V39.2113H45.798V27.5957C45.798 24.8946 44.8289 23.0526 42.4076 23.0526C40.5591 23.0526 39.457 24.2947 38.9739 25.4946C38.7974 25.9227 38.754 26.5226 38.754 27.1225V39.2085H32.0629V24.9341L32.06 24.9369Z" fill="black"/>
<path d="M63.1853 27.0804H63.2721C63.7581 26.1791 64.2846 25.3229 64.814 24.5511L69.1734 18.2504H77.2299L69.5264 26.7368L78.3321 39.2114H70.0991L64.8603 30.5955L63.1882 32.6516V39.2114H56.4971V8.77829H63.1882V27.0804H63.1853Z" fill="black"/>
<path d="M83.524 30.81C83.7005 33.5111 86.4747 34.7955 89.5989 34.7955C91.8871 34.7955 93.7356 34.4941 95.5436 33.8942L96.423 38.3078C94.2216 39.2091 91.5371 39.6372 88.6298 39.6372C81.3226 39.6372 77.1396 35.5222 77.1396 28.9652C77.1396 23.6503 80.5299 17.7777 88.0136 17.7777C94.9708 17.7777 97.612 23.0504 97.612 28.2357C97.612 29.351 97.4789 30.3368 97.3921 30.8072H83.524V30.81ZM91.404 26.3514C91.404 24.7656 90.7011 22.1068 87.6173 22.1068C84.7997 22.1068 83.6542 24.6361 83.4777 26.3514H91.404Z" fill="black"/>
<path d="M121.118 8.77829V32.953C121.118 35.3105 121.205 37.7975 121.295 39.2114H115.35L115.087 36.1667H114.954C113.632 38.4819 110.991 39.6818 108.216 39.6818C103.111 39.6818 99.0144 35.4372 99.0144 28.9225C98.971 21.85 103.504 17.735 108.656 17.735C111.341 17.735 113.366 18.6786 114.335 20.0925H114.422V8.77829H121.118ZM114.427 27.1255C114.427 26.7819 114.427 26.3115 114.341 25.9256C113.944 24.2103 112.492 22.7541 110.424 22.7541C107.34 22.7541 105.801 25.413 105.801 28.7112C105.801 32.2686 107.606 34.4965 110.38 34.4965C112.318 34.4965 113.901 33.2121 114.297 31.3672C114.387 30.8969 114.43 30.3814 114.43 29.866V27.1227L114.427 27.1255Z" fill="black"/>
<path fill-rule="evenodd" clip-rule="evenodd" d="M177.5 44.5434C177.5 47.2501 175.255 49.4414 172.487 49.4414H132.777C130.006 49.4414 127.764 47.2473 127.764 44.5434V5.33943C127.764 2.6327 130.009 0.441406 132.777 0.441406H172.487C175.258 0.441406 177.5 2.63552 177.5 5.33943V44.5434ZM143.944 12.4237C143.944 14.2235 142.579 15.6825 140.334 15.6825C138.222 15.6825 136.857 14.2235 136.857 12.4237C136.857 10.6239 138.266 9.16494 140.424 9.16494C142.582 9.16494 143.901 10.5789 143.944 12.4237ZM137.033 39.2122V18.2512H143.724V39.2122H137.033ZM147.551 18.2508C147.641 20.1379 147.728 22.3236 147.728 24.9374L147.731 24.9346V39.209H154.422V27.123C154.422 26.5231 154.465 25.9232 154.642 25.4951C155.128 24.2952 156.227 23.0531 158.075 23.0531C160.497 23.0531 161.466 24.8951 161.466 27.5962V39.2118H168.157V26.8245C168.157 20.6534 164.856 17.7804 160.453 17.7804C156.843 17.7804 154.685 19.7943 153.806 21.166H153.673L153.363 18.2508H147.551Z" fill="black"/>
</svg>
