<svg width="500" height="509" viewBox="0 0 500 509" fill="none" xmlns="http://www.w3.org/2000/svg">
<path d="M148.249 245.603L133.249 251.103L125.339 267.763C124.969 271.203 116.339 305.933 116.339 305.933L107.689 336.843C124.249 344.413 146.209 355.213 168.199 354.343L170.999 327.823L186.079 270.193L174.569 247.333L170.629 246.803L148.249 245.603Z" fill="#76FF94"/>
<path d="M78.4799 471.573L67.1699 486.313C67.1699 486.313 78.3699 502.753 76.5399 505.683L47.1699 484.803L63.8299 461.103L78.4799 471.573Z" fill="#455A64"/>
<g opacity="0.6">
<path d="M58.9999 478.583C58.655 478.468 58.28 478.484 57.9462 478.628C57.6123 478.772 57.3431 479.033 57.1899 479.363C57.067 479.703 57.077 480.078 57.2179 480.411C57.3587 480.745 57.6201 481.013 57.9499 481.163C58.3144 481.283 58.7104 481.263 59.0614 481.108C59.4124 480.953 59.6934 480.673 59.8499 480.323C59.9462 479.954 59.8958 479.563 59.7093 479.231C59.5228 478.899 59.2147 478.652 58.8499 478.543" fill="white"/>
</g>
<g opacity="0.6">
<path d="M47.1699 484.802L48.9399 482.442L76.4399 503.342C76.4399 503.342 77.3499 504.842 76.5399 505.652L47.1699 484.802Z" fill="white"/>
</g>
<path d="M67.7595 486.502C67.6495 486.642 66.8894 486.202 65.8494 486.162C64.8094 486.122 64.0194 486.452 63.9194 486.302C63.8194 486.152 64.6294 485.472 65.9194 485.552C67.2094 485.632 67.8795 486.442 67.7595 486.502Z" fill="#263238"/>
<path d="M69.9299 489.972C69.8699 490.132 69.0699 489.972 68.1499 490.192C67.2299 490.412 66.6399 490.992 66.4999 490.892C66.3599 490.792 66.8499 489.892 67.9899 489.602C69.1299 489.312 69.9999 489.832 69.9299 489.972Z" fill="#263238"/>
<path d="M69.0595 494.903C68.9095 494.843 69.2195 493.983 70.1495 493.463C71.0795 492.943 71.9695 493.103 71.9395 493.263C71.9095 493.423 71.1995 493.553 70.4495 493.993C69.6995 494.433 69.2095 494.993 69.0595 494.903Z" fill="#263238"/>
<path d="M70.0002 482.863C69.8502 482.943 69.3302 482.283 68.4802 481.763C67.6302 481.243 66.8202 481.043 66.8302 480.873C66.8402 480.703 67.8302 480.613 68.8302 481.243C69.8302 481.873 70.1102 482.793 70.0002 482.863Z" fill="#263238"/>
<g opacity="0.3">
<path d="M73.3395 478.702L71.3295 481.332L56.9795 470.932L58.6895 468.492L73.3395 478.702Z" fill="black"/>
</g>
<path d="M72.19 479.843C72.19 479.903 71.51 479.593 70.72 478.843C70.2566 478.371 69.8536 477.844 69.52 477.273C69.3215 476.951 69.1444 476.617 68.99 476.273C68.8927 476.063 68.8253 475.841 68.79 475.613C68.7691 475.444 68.8049 475.272 68.8918 475.126C68.9786 474.979 69.1116 474.866 69.27 474.803C69.4131 474.757 69.5648 474.744 69.7137 474.764C69.8626 474.785 70.0049 474.839 70.13 474.923C70.3216 475.05 70.4906 475.209 70.63 475.393C71.3008 476.171 71.7711 477.101 72 478.103C72.1863 478.692 72.1863 479.324 72 479.913C71.9 479.913 71.89 479.233 71.56 478.223C71.2729 477.28 70.7811 476.413 70.12 475.683C69.87 475.383 69.6 475.193 69.42 475.273C69.24 475.353 69.34 475.323 69.34 475.463C69.3647 475.63 69.4153 475.791 69.49 475.943C69.6213 476.286 69.7749 476.62 69.95 476.943C70.2369 477.491 70.5715 478.013 70.95 478.503C71.72 479.333 72.24 479.763 72.19 479.843Z" fill="#263238"/>
<path d="M71.8496 479.913C71.8784 479.299 72.0948 478.709 72.4696 478.223C72.8322 477.659 73.2889 477.162 73.8196 476.753C74.1314 476.51 74.4664 476.299 74.8196 476.123C75.0371 475.984 75.2866 475.904 75.5441 475.89C75.8016 475.876 76.0584 475.929 76.2896 476.043C76.4188 476.139 76.5177 476.27 76.5744 476.421C76.6311 476.571 76.6434 476.735 76.6096 476.893C76.5621 477.119 76.4848 477.337 76.3796 477.543C75.885 478.513 75.0311 479.252 73.9996 479.603C73.7129 479.722 73.4053 479.784 73.0946 479.784C72.7839 479.784 72.4763 479.722 72.1896 479.603C72.7504 479.481 73.3044 479.331 73.8496 479.153C74.4004 478.907 74.8941 478.549 75.2996 478.103C75.5291 477.838 75.724 477.546 75.8796 477.233C76.0496 476.883 76.1096 476.553 75.9796 476.503C75.8372 476.455 75.6859 476.441 75.5371 476.46C75.3882 476.479 75.2455 476.531 75.1196 476.613C74.7941 476.764 74.4828 476.945 74.1896 477.153C73.6715 477.509 73.2126 477.944 72.8296 478.443C72.1696 479.303 71.9996 479.953 71.8496 479.913Z" fill="#263238"/>
<path d="M167.83 481.442L161.32 497.822C161.32 497.822 180.02 504.592 180.26 508.032L144.26 508.322L149.88 481.532L167.83 481.442Z" fill="#455A64"/>
<g opacity="0.6">
<path d="M150.16 496.383C149.817 496.495 149.526 496.729 149.342 497.039C149.158 497.35 149.094 497.717 149.16 498.073C149.261 498.419 149.489 498.715 149.799 498.901C150.109 499.086 150.477 499.147 150.83 499.073C151.197 498.959 151.508 498.712 151.702 498.381C151.896 498.05 151.96 497.658 151.88 497.283C151.741 496.923 151.466 496.632 151.114 496.475C150.761 496.317 150.361 496.306 150 496.443" fill="white"/>
</g>
<g opacity="0.6">
<path d="M144.21 508.352L144.82 505.442L178.82 506.242C178.82 506.242 180.43 506.932 180.26 508.062L144.21 508.352Z" fill="white"/>
</g>
<path d="M161.9 497.673C161.9 497.843 161.01 497.933 160.15 498.503C159.29 499.073 158.84 499.823 158.67 499.753C158.5 499.683 158.77 498.663 159.82 497.993C160.87 497.323 161.93 497.503 161.9 497.673Z" fill="#263238"/>
<path d="M165.69 499.203C165.69 499.373 164.97 499.683 164.38 500.423C163.79 501.163 163.62 501.963 163.45 501.963C163.28 501.963 163.15 500.963 163.91 500.043C164.67 499.123 165.69 499.033 165.69 499.203Z" fill="#263238"/>
<path d="M167.87 503.712C167.71 503.712 167.46 502.872 167.87 501.902C168.28 500.932 169.13 500.542 169.21 500.692C169.29 500.842 168.78 501.352 168.43 502.152C168.08 502.952 168.05 503.692 167.87 503.712Z" fill="#263238"/>
<path d="M163.29 494.322C163.22 494.482 162.41 494.252 161.41 494.322C160.41 494.392 159.65 494.722 159.55 494.572C159.45 494.422 160.2 493.782 161.37 493.712C162.54 493.642 163.37 494.182 163.29 494.322Z" fill="#263238"/>
<path d="M163.63 492.172C163.041 492.331 162.419 492.331 161.83 492.172C161.18 492.061 160.546 491.873 159.94 491.612C159.576 491.457 159.225 491.273 158.89 491.062C158.688 490.953 158.506 490.811 158.35 490.642C158.234 490.519 158.161 490.361 158.145 490.193C158.129 490.024 158.169 489.855 158.26 489.712C158.349 489.59 158.465 489.49 158.598 489.419C158.731 489.348 158.879 489.308 159.03 489.302C159.257 489.298 159.483 489.328 159.7 489.392C160.088 489.479 160.466 489.603 160.83 489.762C161.439 490.033 162.003 490.398 162.5 490.842C163.35 491.612 163.64 492.272 163.58 492.302C163.52 492.332 163.09 491.812 162.23 491.182C161.731 490.817 161.186 490.518 160.61 490.292C160.286 490.158 159.952 490.051 159.61 489.972C159.23 489.882 158.91 489.882 158.81 490.052C158.71 490.222 158.81 490.142 158.81 490.252C158.93 490.372 159.064 490.476 159.21 490.562C159.533 490.757 159.867 490.934 160.21 491.092C160.771 491.366 161.357 491.587 161.96 491.752C162.527 491.848 163.085 491.988 163.63 492.172Z" fill="#263238"/>
<path d="M163.589 492.172C163.242 491.661 163.07 491.05 163.099 490.432C163.059 489.757 163.136 489.08 163.329 488.432C163.442 488.051 163.593 487.683 163.779 487.332C163.873 487.093 164.028 486.882 164.228 486.721C164.428 486.56 164.666 486.453 164.919 486.412C165.081 486.412 165.239 486.46 165.374 486.549C165.509 486.638 165.615 486.764 165.679 486.912C165.775 487.121 165.84 487.344 165.869 487.572C165.934 487.973 165.934 488.381 165.869 488.782C165.783 489.459 165.525 490.103 165.119 490.652C164.419 491.592 163.689 491.812 163.669 491.752C163.649 491.692 164.219 491.322 164.759 490.422C165.064 489.902 165.251 489.322 165.309 488.722C165.364 488.374 165.364 488.02 165.309 487.672C165.249 487.292 165.109 486.982 164.959 487.022C164.809 487.062 164.479 487.312 164.339 487.622C164.157 487.938 164.009 488.274 163.899 488.622C163.702 489.203 163.587 489.809 163.559 490.422C163.489 491.442 163.679 492.142 163.589 492.172Z" fill="#263238"/>
<path d="M209.999 186.113L204.459 223.783L179.069 248.123L188.479 264.333L217.289 237.443C219.462 235.79 220.989 233.431 221.609 230.773V191.803L221.419 179.123L209.999 186.113Z" fill="#FFD6BD"/>
<path d="M108.36 333.912C107.62 335.442 93.9996 406.212 93.9996 406.212L55.8896 468.212L75.6996 482.642L122.79 421.272L148.53 343.272L108.36 333.912Z" fill="#263238"/>
<path d="M160.11 341.272C161.22 342.012 190.38 402.852 190.01 407.272C189.64 411.692 167.66 492.922 167.66 492.922L145.27 488.802L159.14 409.572L132.83 372.632L141.42 339.022L160.11 341.272Z" fill="#263238"/>
<path d="M190.65 234.692L176.2 246.692L173.5 247.122L184.38 271.152L204.44 254.962L190.65 234.692Z" fill="#76FF94"/>
<path d="M148.249 245.603L133.249 251.103L125.339 267.763C124.969 271.203 116.339 305.933 116.339 305.933L107.689 336.843C124.249 344.413 146.209 355.213 168.199 354.343L170.999 327.823L186.219 269.673L174.569 247.333L170.629 246.803L148.249 245.603Z" fill="#76FF94"/>
<path d="M170.27 250.143C170.63 247.363 170.94 245.053 170.99 244.773C170.99 244.773 180.49 245.123 182.38 235.923C183.3 231.473 184.44 222.173 185.38 213.733C185.859 209.365 184.678 204.978 182.071 201.441C179.465 197.904 175.623 195.478 171.31 194.643L170.42 194.473C160.72 193.183 154.2 200.693 153.17 210.423L148.51 245.953C148.51 245.953 157.51 253.953 162.74 256.563C169.51 259.893 170.27 250.143 170.27 250.143Z" fill="#FFD6BD"/>
<path d="M171 244.642C166.728 243.896 162.775 241.898 159.64 238.902C159.64 238.902 161.2 246.082 170.56 247.032L171 244.642Z" fill="#FFB394"/>
<path d="M183.109 218.063C182.919 218.223 181.669 217.683 179.939 217.803C178.209 217.923 176.939 218.613 176.759 218.483C176.579 218.353 176.859 218.143 177.409 217.823C178.187 217.394 179.052 217.148 179.939 217.103C180.802 217.029 181.669 217.163 182.469 217.493C182.999 217.743 183.209 217.993 183.109 218.063Z" fill="#263238"/>
<path d="M168.61 216.842C168.37 216.902 167.49 215.842 165.89 215.222C164.29 214.602 162.89 214.622 162.76 214.412C162.63 214.202 162.99 214.162 163.62 214.122C164.504 214.094 165.385 214.258 166.2 214.602C167 214.921 167.715 215.421 168.29 216.062C168.67 216.522 168.73 216.822 168.61 216.842Z" fill="#263238"/>
<path d="M167.74 219.232C167.719 219.365 167.672 219.493 167.601 219.608C167.53 219.722 167.437 219.821 167.327 219.899C167.216 219.976 167.092 220.031 166.96 220.059C166.828 220.087 166.692 220.088 166.56 220.062C166.429 220.046 166.303 220.004 166.188 219.939C166.073 219.874 165.973 219.787 165.892 219.683C165.811 219.579 165.752 219.46 165.717 219.333C165.682 219.206 165.673 219.073 165.69 218.942C165.71 218.809 165.757 218.681 165.828 218.567C165.899 218.452 165.993 218.353 166.103 218.276C166.213 218.198 166.338 218.144 166.47 218.116C166.601 218.088 166.738 218.086 166.87 218.112C167.001 218.128 167.127 218.17 167.242 218.235C167.356 218.3 167.457 218.387 167.538 218.491C167.619 218.595 167.678 218.714 167.713 218.842C167.747 218.969 167.757 219.102 167.74 219.232Z" fill="#263238"/>
<path d="M181.71 221.733C181.69 221.867 181.644 221.996 181.574 222.111C181.503 222.227 181.41 222.327 181.3 222.406C181.189 222.484 181.064 222.54 180.932 222.568C180.799 222.597 180.662 222.599 180.53 222.573C180.399 222.557 180.272 222.515 180.158 222.45C180.043 222.385 179.942 222.298 179.862 222.194C179.781 222.09 179.721 221.971 179.687 221.844C179.652 221.716 179.643 221.584 179.66 221.453C179.679 221.319 179.725 221.19 179.795 221.074C179.866 220.959 179.959 220.859 180.069 220.78C180.18 220.702 180.305 220.646 180.437 220.617C180.57 220.589 180.707 220.587 180.84 220.613C180.97 220.629 181.097 220.671 181.211 220.736C181.326 220.801 181.427 220.888 181.507 220.992C181.588 221.096 181.648 221.215 181.682 221.342C181.717 221.469 181.726 221.602 181.71 221.733Z" fill="#263238"/>
<path d="M171.66 226.952C172.45 226.85 173.25 226.85 174.04 226.952C174.41 226.952 174.76 226.952 174.87 226.742C174.985 226.378 174.985 225.987 174.87 225.622C174.7 224.682 174.52 223.692 174.33 222.622C173.6 218.412 173.15 214.982 173.33 214.952C173.51 214.922 174.23 218.312 174.95 222.522C175.13 223.522 175.29 224.522 175.44 225.522C175.587 226.003 175.559 226.521 175.36 226.982C175.281 227.099 175.178 227.196 175.057 227.267C174.936 227.338 174.8 227.381 174.66 227.392C174.451 227.419 174.239 227.419 174.03 227.392C173.224 227.349 172.428 227.201 171.66 226.952Z" fill="#263238"/>
<path d="M169.07 209.733C168.88 210.053 167.67 209.653 166.17 209.553C164.67 209.453 163.4 209.633 163.26 209.283C163.26 209.113 163.48 208.823 164.02 208.573C164.733 208.273 165.509 208.152 166.28 208.223C167.048 208.275 167.792 208.512 168.45 208.913C168.94 209.243 169.16 209.573 169.07 209.733Z" fill="#263238"/>
<path d="M183.51 214.362C183.32 214.632 182.14 214.172 180.67 213.952C179.2 213.732 177.96 213.772 177.84 213.462C177.79 213.312 178.06 213.092 178.6 212.932C179.323 212.736 180.081 212.699 180.82 212.822C181.567 212.939 182.281 213.208 182.92 213.612C183.4 213.942 183.6 214.242 183.51 214.362Z" fill="#263238"/>
<path d="M152.61 217.442C152.46 217.342 146.61 214.342 145.61 220.682C144.61 227.022 151.17 226.732 151.21 226.552C151.25 226.372 152.61 217.442 152.61 217.442Z" fill="#FFD6BD"/>
<path d="M149.67 223.803C149.67 223.803 149.54 223.863 149.34 223.923C149.058 223.99 148.761 223.947 148.51 223.803C148.143 223.476 147.869 223.058 147.716 222.59C147.563 222.123 147.537 221.624 147.64 221.143C147.713 220.597 147.908 220.074 148.21 219.613C148.303 219.42 148.444 219.253 148.619 219.129C148.793 219.005 148.997 218.927 149.21 218.903C149.344 218.886 149.48 218.919 149.592 218.994C149.704 219.069 149.785 219.183 149.82 219.313C149.87 219.503 149.82 219.623 149.82 219.633C149.82 219.643 149.98 219.553 149.97 219.283C149.956 219.12 149.889 218.965 149.78 218.843C149.706 218.763 149.616 218.698 149.517 218.654C149.417 218.609 149.309 218.585 149.2 218.583C148.932 218.594 148.671 218.673 148.441 218.813C148.212 218.953 148.022 219.149 147.89 219.383C147.528 219.888 147.297 220.476 147.22 221.093C147.098 221.653 147.144 222.236 147.352 222.77C147.56 223.303 147.921 223.764 148.39 224.093C148.547 224.165 148.717 224.202 148.89 224.202C149.063 224.202 149.233 224.165 149.39 224.093C149.63 223.953 149.69 223.823 149.67 223.803Z" fill="#FFB394"/>
<path d="M169.63 231.183C169.72 231.033 168.51 230.513 167.78 229.183C167.47 228.627 167.238 228.031 167.09 227.413C166.96 226.933 166.85 226.623 166.78 226.643C166.71 226.663 166.69 226.963 166.78 227.483C166.824 228.186 167.029 228.871 167.38 229.483C167.733 230.088 168.245 230.586 168.86 230.923C169.28 231.183 169.61 231.233 169.63 231.183Z" fill="#263238"/>
<path d="M198.7 206.862C198.672 206.664 198.604 206.473 198.501 206.301C198.398 206.13 198.262 205.98 198.1 205.862C197.394 205.442 196.591 205.215 195.77 205.202C193.297 204.859 190.968 203.838 189.04 202.252C188.229 200.735 187.296 199.287 186.25 197.922C183.78 194.682 181.7 192.432 179.42 191.182C175.889 189.408 171.94 188.634 168 188.942C164.67 189.402 161.46 191.682 160.61 194.942C158.98 193.192 156.26 192.882 153.95 193.512H153.89C151.33 194.092 149.63 196.512 148.6 198.952C147.57 201.392 146.95 204.012 145.36 206.102C145.02 206.542 144.63 207.102 144.81 207.582C144.893 207.774 145.034 207.935 145.214 208.043C145.393 208.151 145.602 208.199 145.81 208.182C146.236 208.146 146.65 208.016 147.02 207.802C146.67 208.432 146.31 209.052 145.96 209.672C146.837 209.928 147.761 209.976 148.66 209.812C148.857 212.103 149.191 214.381 149.66 216.632C150.597 216.647 151.496 217.003 152.19 217.632C152.96 218.512 153.19 220.012 154.67 219.632C155.43 219.432 156.28 217.982 156.61 217.272C158.824 212.495 159.98 207.297 160 202.032C161.15 201.061 162.478 200.324 163.91 199.862L163.78 199.942C166.49 199.352 169.53 198.812 171.85 200.322C173.65 201.492 174.54 203.612 175.78 205.322C176.93 206.931 178.392 208.291 180.079 209.322C181.767 210.352 183.644 211.033 185.6 211.322C185.43 213.952 184.77 217.622 184.6 220.252L187.3 216.322C187.51 216.032 187.7 215.742 187.88 215.452L187.94 215.362C188.23 214.892 188.51 214.362 188.86 213.952C189.136 214.233 189.503 214.406 189.895 214.44C190.287 214.474 190.679 214.366 190.999 214.137C191.319 213.908 191.546 213.571 191.64 213.189C191.734 212.807 191.688 212.404 191.51 212.052C191.323 211.722 191.087 211.422 190.81 211.162C191.095 211.509 191.465 211.777 191.884 211.94C192.302 212.102 192.755 212.155 193.2 212.092C193.645 212.019 194.052 211.797 194.356 211.463C194.659 211.129 194.84 210.702 194.87 210.252C194.87 209.949 194.79 209.651 194.64 209.388C194.489 209.125 194.272 208.906 194.01 208.752C195.152 208.976 196.335 208.858 197.41 208.412C198.11 208.242 198.83 207.712 198.7 206.862Z" fill="#263238"/>
<path d="M163.41 196.353C163.058 196.577 162.724 196.828 162.41 197.103C161.571 197.901 160.954 198.904 160.62 200.013C160.368 200.773 160.194 201.557 160.1 202.353C159.99 203.203 159.95 204.133 159.91 205.103C159.87 206.128 159.77 207.149 159.61 208.163C159.518 208.699 159.384 209.227 159.21 209.743C159.064 210.301 158.774 210.811 158.37 211.223C158.189 211.386 157.967 211.499 157.729 211.55C157.49 211.601 157.242 211.588 157.01 211.513C156.563 211.373 156.176 211.088 155.91 210.703C155.487 209.949 155.273 209.096 155.29 208.233L155.48 208.283C155.118 208.949 154.659 209.559 154.12 210.093C153.603 210.588 152.915 210.863 152.2 210.863C151.866 210.859 151.541 210.762 151.26 210.583C151 210.404 150.799 210.154 150.68 209.863C150.578 209.592 150.543 209.3 150.58 209.013C150.625 208.747 150.763 208.506 150.97 208.333L151.06 208.433C150.43 209.002 149.687 209.431 148.88 209.693C148.67 209.758 148.456 209.811 148.24 209.853C148.164 209.866 148.086 209.866 148.01 209.853L148.23 209.793C148.37 209.793 148.59 209.693 148.86 209.593C149.642 209.307 150.359 208.869 150.97 208.303L151.06 208.403C150.883 208.578 150.765 208.805 150.724 209.05C150.683 209.296 150.72 209.549 150.83 209.773C150.935 210.033 151.117 210.256 151.35 210.413C151.605 210.57 151.9 210.653 152.2 210.653C152.868 210.649 153.51 210.388 153.99 209.923C154.512 209.395 154.956 208.795 155.31 208.143L155.48 207.863V208.193C155.466 209.016 155.666 209.829 156.06 210.553C156.306 210.895 156.657 211.148 157.06 211.273C157.258 211.334 157.468 211.345 157.671 211.303C157.874 211.261 158.063 211.168 158.22 211.033C158.591 210.641 158.86 210.164 159 209.643C159.168 209.136 159.299 208.618 159.39 208.093C159.554 207.1 159.655 206.098 159.69 205.093C159.75 204.093 159.8 203.193 159.91 202.323C160.013 201.519 160.197 200.729 160.46 199.963C160.817 198.837 161.466 197.826 162.34 197.033C162.658 196.75 163.019 196.521 163.41 196.353Z" fill="#455A64"/>
<path d="M191.09 208.812H191.01L190.76 208.952C190.624 209.036 190.48 209.107 190.33 209.162C190.135 209.251 189.934 209.328 189.73 209.392C188.418 209.811 187.022 209.893 185.67 209.632C183.657 209.258 181.796 208.31 180.31 206.902C178.521 205.163 177.105 203.078 176.15 200.772C175.6 199.572 175.15 198.352 174.71 197.212C174.276 196.11 173.69 195.073 172.97 194.132C172.313 193.29 171.457 192.623 170.48 192.192C170.038 192.007 169.568 191.896 169.09 191.862C168.647 191.834 168.203 191.868 167.77 191.962C167.019 192.123 166.31 192.44 165.69 192.892C165.222 193.238 164.813 193.656 164.48 194.132C164.213 194.552 163.998 195.002 163.84 195.472C163.84 195.472 163.84 195.472 163.84 195.372L163.91 195.092C164.035 194.743 164.196 194.408 164.39 194.092C164.721 193.6 165.129 193.164 165.6 192.802C166.589 192.027 167.825 191.637 169.08 191.702C169.578 191.735 170.067 191.846 170.53 192.032C171.542 192.47 172.427 193.159 173.1 194.032C173.844 194.981 174.446 196.032 174.89 197.152C175.37 198.292 175.79 199.512 176.33 200.702C177.27 202.981 178.661 205.046 180.42 206.772C181.875 208.169 183.701 209.116 185.68 209.502C187.008 209.767 188.379 209.709 189.68 209.332C190.62 209.072 191.08 208.782 191.09 208.812Z" fill="#455A64"/>
<path d="M192.42 204.822C192.42 204.822 192.3 204.912 192.06 205.022C191.736 205.174 191.402 205.301 191.06 205.402C190.526 205.557 189.981 205.667 189.43 205.732C188.764 205.787 188.095 205.787 187.43 205.732C186.753 205.666 186.083 205.539 185.43 205.352C184.897 205.196 184.378 204.996 183.88 204.752C183.53 204.596 183.196 204.408 182.88 204.192C182.761 204.126 182.653 204.041 182.56 203.942C182.56 203.942 183.06 204.232 183.91 204.612C184.406 204.832 184.917 205.015 185.44 205.162C186.096 205.329 186.765 205.446 187.44 205.512C188.105 205.568 188.774 205.568 189.44 205.512C189.982 205.457 190.52 205.364 191.05 205.232C191.88 205.022 192.41 204.792 192.42 204.822Z" fill="#455A64"/>
<path opacity="0.3" d="M129.279 275.963C129.279 275.963 141.829 294.133 150.839 293.963H153.999L155.499 291.263C155.499 291.263 175.499 295.263 179.939 293.683L155.199 284.503L150.439 287.273L129.279 275.963Z" fill="black"/>
<path d="M144.729 284.283C144.729 284.283 189.729 297.393 195.029 296.173C200.329 294.953 233.199 268.613 233.199 268.613L225.779 259.683L191.829 278.443L151.089 265.513L144.729 284.283Z" fill="#FFD6BD"/>
<path d="M133.429 251.032C133.429 251.032 125.909 252.692 124.799 265.032C123.479 279.782 152.609 291.322 152.609 291.322L166.999 267.262L133.429 251.032Z" fill="#76FF94"/>
<path d="M148.999 260.652C149.114 260.677 149.226 260.717 149.329 260.772L150.239 261.182L153.669 262.792L165.879 268.652L166.099 268.752L165.979 268.962C163.139 273.882 159.779 279.702 156.179 285.962L152.999 291.442L152.889 291.622L152.689 291.552C148.678 290.211 144.811 288.469 141.149 286.352C138.227 284.627 135.515 282.566 133.069 280.212C130.842 278.113 128.831 275.795 127.069 273.292C127.229 273.429 127.373 273.584 127.499 273.752L128.669 275.132C130.133 276.826 131.686 278.442 133.319 279.972C135.785 282.262 138.494 284.274 141.399 285.972C145.051 288.041 148.896 289.749 152.879 291.072L152.579 291.192L155.749 285.702C159.369 279.502 162.749 273.702 165.609 268.782L165.709 269.092L153.579 263.092L150.199 261.372L149.319 260.902L148.999 260.652Z" fill="#263238"/>
<path d="M183.999 264.333C183.849 264.383 182.609 261.333 180.789 257.763C178.969 254.193 177.279 251.373 177.409 251.293C177.915 251.807 178.346 252.389 178.689 253.023C180.553 255.941 182.118 259.04 183.359 262.273C183.66 262.929 183.876 263.622 183.999 264.333Z" fill="#263238"/>
<path d="M75.6797 482.652C75.7333 482.541 75.8005 482.437 75.8797 482.342L76.5097 481.472C77.0997 480.702 77.9197 479.592 78.9797 478.172L88.1397 466.102L118.53 426.382C119.91 424.582 121.27 422.802 122.53 421.132V421.202L136.89 377.962L141.23 365.082C141.74 363.592 142.14 362.432 142.42 361.602L142.75 360.712C142.776 360.607 142.816 360.506 142.87 360.412C142.854 360.518 142.828 360.622 142.79 360.722C142.72 360.952 142.63 361.252 142.52 361.642C142.26 362.462 141.89 363.642 141.41 365.142C140.41 368.212 138.99 372.612 137.22 378.082L123 421.362V421.442L119 426.702L88.4997 466.322L79.1997 478.322L76.5997 481.542L75.9197 482.372C75.8485 482.473 75.7681 482.566 75.6797 482.652Z" fill="#455A64"/>
<path d="M167.59 405.442C166.191 406.212 164.712 406.826 163.18 407.272C161.708 407.889 160.172 408.338 158.6 408.612C159.996 407.834 161.471 407.207 163 406.742C164.48 406.15 166.018 405.714 167.59 405.442Z" fill="#455A64"/>
<path d="M167.31 411.763C165.98 411.653 164.669 411.374 163.41 410.933C162.107 410.652 160.846 410.202 159.66 409.593C160.987 409.703 162.294 409.982 163.55 410.423C164.856 410.707 166.119 411.157 167.31 411.763Z" fill="#455A64"/>
<path d="M168 323.442C167.643 323.743 167.258 324.008 166.85 324.232C166.1 324.732 164.98 325.382 163.56 326.132C159.877 328.087 156.003 329.658 152 330.822C147.973 331.969 143.837 332.693 139.66 332.982C138.06 333.092 136.76 333.122 135.86 333.102C135.395 333.122 134.93 333.098 134.47 333.032C134.927 332.941 135.393 332.898 135.86 332.902C136.75 332.902 138.04 332.772 139.63 332.622C143.766 332.215 147.858 331.446 151.86 330.322C155.853 329.175 159.735 327.672 163.46 325.832C164.9 325.132 166.04 324.532 166.82 324.092C167.19 323.837 167.586 323.619 168 323.442Z" fill="#263238"/>
<path d="M316.499 504.293C316.659 504.293 316.899 503.453 316.449 502.493C315.999 501.533 315.169 501.143 315.099 501.293C315.029 501.443 315.529 501.953 315.889 502.753C316.249 503.553 316.329 504.273 316.499 504.293Z" fill="#263238"/>
<path d="M261.42 330.303C261.32 330.413 260.42 331.303 259.62 332.063C258.674 332.968 257.984 334.106 257.62 335.363C257.23 336.773 256.98 337.873 256.92 337.963L255 344.153L262.2 349.433L263.35 344.223C265.012 343.561 266.561 342.643 267.94 341.503C269.53 339.973 270.25 339.283 270.66 337.963C270.738 337.717 270.76 337.456 270.726 337.201C270.691 336.945 270.6 336.7 270.46 336.483C270.46 336.483 270.37 333.643 269.34 333.553C269.637 332.831 269.707 332.036 269.54 331.273C268.88 329.843 266.89 329.953 266.89 329.953C266.979 329.886 267.051 329.799 267.097 329.698C267.144 329.596 267.165 329.485 267.158 329.374C267.151 329.263 267.117 329.155 267.058 329.061C266.999 328.966 266.917 328.888 266.82 328.833C266.611 328.704 266.363 328.656 266.121 328.699C265.88 328.741 265.662 328.871 265.51 329.063L261.51 332.633L261.42 330.303Z" fill="#FFBE9D"/>
<path d="M203.77 348.303C202.344 350.55 201.77 353.234 202.151 355.868C202.533 358.502 203.845 360.912 205.85 362.663C215.34 370.943 241.05 385.343 244.91 384.663C250.48 383.733 265.06 351.283 265.06 351.283L254.21 342.343L240.65 364.343C240.65 364.343 229.45 353.773 220.65 346.843C215.33 342.633 207.37 342.543 203.72 348.273L203.77 348.303Z" fill="#A276FF"/>
<path d="M220.17 346.443C220.308 346.532 220.438 346.632 220.56 346.743L221.64 347.653L225.77 351.203L240.77 364.203L240.47 364.253L253.99 342.253L254.14 342.013L254.36 342.193L265.21 351.123L265.36 351.253L265.28 351.433C264.13 353.973 262.87 356.643 261.56 359.333C259.27 364.043 256.93 368.603 254.49 372.903C253.26 375.053 252.01 377.133 250.68 379.113C250.01 380.113 249.33 381.113 248.58 381.973C247.867 382.907 247.026 383.735 246.08 384.433C245.581 384.8 244.969 384.981 244.35 384.943C243.778 384.878 243.215 384.754 242.67 384.573C241.6 384.243 240.58 383.833 239.59 383.423C237.59 382.563 235.73 381.653 233.93 380.733C230.33 378.893 227.05 377.033 224.09 375.293C218.18 371.793 213.56 368.693 210.47 366.413C208.93 365.273 207.76 364.343 206.99 363.693C206.6 363.373 206.31 363.103 206.12 362.933C206.019 362.851 205.925 362.76 205.84 362.663C205.954 362.728 206.062 362.805 206.16 362.893L207.05 363.613C207.84 364.233 209.05 365.133 210.59 366.253C213.71 368.473 218.35 371.523 224.28 374.973C227.28 376.693 230.53 378.523 234.12 380.343C235.92 381.253 237.8 382.163 239.77 382.993C240.77 383.403 241.77 383.803 242.77 384.123C243.283 384.292 243.813 384.41 244.35 384.473C244.863 384.498 245.369 384.342 245.78 384.033C246.679 383.357 247.48 382.559 248.16 381.663C248.89 380.773 249.56 379.813 250.23 378.843C251.54 376.843 252.79 374.843 254.01 372.653C256.44 368.363 258.76 363.813 261.01 359.113C262.32 356.423 263.58 353.753 264.73 351.223L264.8 351.523L253.97 342.583L254.33 342.523L240.73 364.523L240.6 364.723L240.42 364.563L225.53 351.393L221.48 347.763C221.03 347.353 220.68 347.043 220.48 346.763C220.367 346.665 220.264 346.558 220.17 346.443Z" fill="#263238"/>
<path d="M207.59 170.362C207.485 170.718 207.326 171.055 207.12 171.362C206.533 172.377 206.238 173.534 206.268 174.706C206.298 175.878 206.652 177.019 207.29 178.002L209.57 181.482L209.84 186.842L221.46 189.622L220.92 180.182C220.92 180.182 222.84 176.182 222.86 173.502C222.88 170.822 222.17 167.952 221.28 167.832L220.13 167.672C219.623 166.787 218.797 166.129 217.82 165.832C217.82 165.832 217.12 162.352 215.92 162.052C214.72 161.752 213.65 162.982 213.65 162.982C213.65 162.982 212.16 160.142 210.9 160.332C210.179 160.434 209.52 160.795 209.045 161.347C208.571 161.899 208.313 162.604 208.32 163.332L207.55 170.692L207.59 170.362Z" fill="#FFD6BD"/>
<path d="M180.48 60.2625C180.234 59.5311 179.712 58.9251 179.024 58.5743C178.337 58.2236 177.54 58.1561 176.803 58.3863C176.067 58.6166 175.45 59.1262 175.085 59.8059C174.719 60.4856 174.635 61.2814 174.85 62.0225L315 508.443L321.13 508.693L180.48 60.2625Z" fill="#E0E0E0"/>
<path d="M184.1 66.1729C184.1 66.1729 146.86 91.5629 118.1 93.8529C89.3398 96.1429 56.6498 98.3428 39.5098 117.583C39.5098 117.583 102.82 127.513 106.38 135.933C106.38 135.933 68.5398 165.993 62.8098 183.243C62.8098 183.243 90.0298 173.603 95.6498 171.243C114.31 163.333 150.59 166.853 164.41 161.873C179.71 156.343 194.2 140.813 206.8 138.403L184.1 66.1729Z" fill="#76FF94"/>
<path d="M193.75 130.803C193.65 130.631 193.576 130.446 193.53 130.253L193 128.673C192.54 127.213 191.91 125.223 191.13 122.793C189.58 117.793 187.47 110.953 185.19 103.353C182.91 95.7528 180.9 88.8428 179.5 83.8228C178.8 81.3228 178.26 79.2828 177.91 77.8228C177.74 77.1128 177.62 76.5628 177.56 76.1828C177.526 76.0384 177.506 75.8911 177.5 75.7428C177.5 75.7428 177.5 75.6128 177.56 75.6428C177.48 75.5428 177.56 75.7428 177.64 76.1128L178.09 77.7228L179.83 83.6328C181.35 88.6328 183.4 95.5328 185.67 103.113L191.46 122.603C192.17 125.043 192.75 127.053 193.18 128.523C193.36 129.173 193.5 129.713 193.62 130.133C193.683 130.352 193.726 130.576 193.75 130.803Z" fill="#263238"/>
<g opacity="0.3">
<path d="M180.709 85.6323C181.129 94.7823 181.559 103.982 183.609 112.912C185.659 121.842 189.419 130.552 195.749 137.172C190.029 120.206 185.009 103.019 180.689 85.6123" fill="black"/>
</g>
<path d="M239.05 299.683C240.391 301.52 241.268 303.654 241.608 305.904C241.947 308.153 241.739 310.451 241 312.603C240.26 314.683 239 316.943 240 318.933C241 320.923 243.62 321.583 244.48 323.593C245.48 325.943 243.42 328.483 243.32 331.053C243.307 332.259 243.725 333.43 244.499 334.355C245.272 335.281 246.35 335.9 247.54 336.103C244.216 337.584 240.548 338.12 236.94 337.653L235.21 333.523C235.48 334.287 235.488 335.12 235.233 335.889C234.978 336.659 234.473 337.321 233.8 337.773C232.424 338.638 230.825 339.083 229.2 339.053C225.325 339.182 221.473 338.416 217.944 336.813C214.414 335.21 211.302 332.815 208.85 329.813" fill="#263238"/>
<path d="M194.13 307.602C195.23 306.216 196.258 304.774 197.21 303.282C198.95 299.892 198.3 295.372 200.92 292.612C202.78 290.612 205.73 290.242 208.44 290.152C211.15 290.062 214.01 290.152 216.37 288.802C218.1 287.802 219.37 286.192 221.11 285.212C223.57 283.812 226.61 283.942 229.39 284.512C232.27 285.001 234.975 286.228 237.24 288.072C238.363 289.003 239.252 290.185 239.833 291.522C240.415 292.86 240.675 294.316 240.59 295.772C240.272 297.154 240.061 298.558 239.96 299.972C240.04 301.532 240.86 302.972 241.19 304.472C241.499 306.096 241.26 307.776 240.511 309.25C239.762 310.723 238.544 311.906 237.05 312.612L211.05 332.232C206.6 332.662 197.31 328.152 195 324.322C192.69 320.492 191.67 311.342 194.13 307.602Z" fill="#263238"/>
<path d="M237.4 309.313C238.14 303.463 235.66 295.633 229.78 295.143L210.91 296.263C210.048 296.19 209.191 296.444 208.508 296.974C207.824 297.503 207.365 298.27 207.22 299.123L200.87 342.893H200.75C200.75 342.893 202.48 355.893 215.1 354.473C217.6 354.183 218.43 355.243 219.41 352.683L219.47 352.373C220.24 349.133 221.68 342.443 221.68 342.443C222.38 338.943 222.68 337.503 222.68 337.543C222.68 337.583 230.31 337.723 233.68 328.373C235.32 323.733 236.58 315.823 237.4 309.313Z" fill="#FFBE9D"/>
<path d="M221.34 315.122C221.276 315.441 221.092 315.723 220.826 315.91C220.559 316.096 220.231 316.172 219.91 316.122C219.75 316.105 219.595 316.056 219.454 315.977C219.314 315.899 219.19 315.794 219.091 315.667C218.993 315.54 218.92 315.394 218.879 315.239C218.837 315.084 218.827 314.921 218.85 314.762C218.913 314.443 219.097 314.161 219.363 313.975C219.63 313.788 219.958 313.712 220.28 313.762C220.439 313.779 220.594 313.828 220.735 313.907C220.875 313.985 220.999 314.091 221.098 314.218C221.197 314.344 221.269 314.49 221.31 314.645C221.352 314.801 221.362 314.963 221.34 315.122Z" fill="#263238"/>
<path d="M233.999 317.012C233.934 317.33 233.749 317.611 233.483 317.797C233.217 317.983 232.89 318.06 232.569 318.012C232.409 317.995 232.254 317.946 232.113 317.868C231.972 317.79 231.848 317.684 231.748 317.558C231.649 317.431 231.575 317.286 231.533 317.13C231.49 316.975 231.479 316.812 231.499 316.652C231.565 316.335 231.75 316.054 232.016 315.868C232.281 315.682 232.608 315.605 232.929 315.652C233.09 315.67 233.245 315.719 233.386 315.797C233.527 315.875 233.651 315.981 233.751 316.107C233.85 316.234 233.924 316.379 233.966 316.535C234.009 316.69 234.02 316.853 233.999 317.012Z" fill="#263238"/>
<path d="M235.39 313.343C235.2 313.523 234.26 312.513 232.79 312.343C231.32 312.173 230.16 312.883 230.02 312.653C229.88 312.423 230.17 312.203 230.68 311.863C231.349 311.424 232.154 311.241 232.948 311.348C233.741 311.454 234.469 311.843 235 312.443C235.37 312.863 235.48 313.263 235.39 313.343Z" fill="#263238"/>
<path d="M221.88 311.302C221.66 311.452 220.77 310.352 219.23 310.002C217.69 309.652 216.39 310.222 216.23 310.002C216.07 309.782 216.43 309.572 217 309.302C217.763 308.964 218.616 308.884 219.43 309.072C220.237 309.258 220.958 309.709 221.48 310.352C221.91 310.832 222 311.232 221.88 311.302Z" fill="#263238"/>
<path d="M224.729 321.622C225.474 321.535 226.225 321.535 226.969 321.622C227.319 321.622 227.649 321.622 227.749 321.432C227.859 321.091 227.859 320.724 227.749 320.382C227.589 319.492 227.42 318.572 227.24 317.602C226.71 315.234 226.376 312.826 226.24 310.402C226.944 312.724 227.459 315.098 227.779 317.502C227.949 318.502 228.099 319.402 228.249 320.292C228.385 320.744 228.357 321.229 228.169 321.662C228.097 321.771 228 321.863 227.888 321.93C227.776 321.997 227.65 322.039 227.52 322.052C227.323 322.074 227.126 322.074 226.929 322.052C226.181 322.002 225.442 321.858 224.729 321.622Z" fill="#263238"/>
<path d="M222.65 337.553C218.095 336.754 213.851 334.708 210.39 331.643C210.39 331.643 212.27 338.863 222.09 339.803L222.65 337.553Z" fill="#EB996E"/>
<path d="M223.56 324.722C223.365 324.353 223.079 324.04 222.729 323.812C222.379 323.585 221.976 323.451 221.56 323.422C221.26 323.392 220.957 323.424 220.67 323.515C220.383 323.606 220.117 323.755 219.89 323.952C219.67 324.139 219.513 324.389 219.441 324.668C219.369 324.948 219.386 325.243 219.49 325.512C219.657 325.793 219.905 326.017 220.201 326.156C220.497 326.295 220.827 326.342 221.15 326.292C221.82 326.187 222.463 325.949 223.04 325.592C223.214 325.519 223.371 325.41 223.5 325.272C223.563 325.209 223.605 325.129 223.621 325.041C223.637 324.954 223.626 324.863 223.59 324.782" fill="#A276FF"/>
<path d="M220.639 321.803C220.859 321.803 220.639 323.273 221.639 324.533C222.639 325.793 224.249 325.933 224.219 326.133C224.189 326.333 223.829 326.353 223.169 326.243C222.322 326.092 221.554 325.65 220.999 324.993C220.47 324.356 220.209 323.538 220.269 322.713C220.319 322.103 220.549 321.773 220.639 321.803Z" fill="#263238"/>
<path d="M222.999 306.823C222.799 307.163 221.509 306.733 219.909 306.623C218.309 306.513 216.969 306.703 216.819 306.333C216.759 306.163 217.039 305.863 217.619 305.613C218.381 305.312 219.201 305.189 220.017 305.253C220.833 305.317 221.624 305.567 222.329 305.983C222.819 306.323 223.049 306.663 222.999 306.823Z" fill="#263238"/>
<path d="M235.15 309.132C234.83 309.382 233.84 308.872 232.58 308.612C231.32 308.352 230.22 308.372 230.03 308.012C229.95 307.842 230.18 307.572 230.7 307.372C231.407 307.148 232.161 307.113 232.885 307.271C233.61 307.429 234.281 307.774 234.83 308.272C235.21 308.672 235.3 309.012 235.15 309.132Z" fill="#263238"/>
<path d="M206.72 296.583C208.068 295.598 209.69 295.059 211.36 295.043C218.484 294.302 225.672 294.413 232.77 295.373C233.24 297.013 231.93 298.713 230.37 299.373C228.755 299.895 227.068 300.162 225.37 300.163C223.68 300.323 221.86 300.783 220.81 302.163C219.76 303.543 219.75 305.653 218.71 307.163C216.93 309.713 212.71 309.553 210.96 312.163C209.62 314.093 210.24 316.713 209.96 319.053C209.809 320.242 209.405 321.386 208.777 322.407C208.148 323.428 207.309 324.304 206.315 324.975C205.321 325.646 204.196 326.097 203.014 326.298C201.831 326.5 200.62 326.447 199.46 326.143C201.2 317.896 202.937 309.649 204.67 301.403C205 299.593 205.41 297.753 206.72 296.583Z" fill="#263238"/>
<path d="M184.79 312.652C186.39 311.852 188.26 311.302 189.22 309.792C190.62 307.602 189.46 304.262 191.29 302.412C192.96 300.732 196.29 301.742 197.86 299.992C199.11 298.622 198.55 296.992 199.24 295.652C199.726 294.985 200.409 294.487 201.193 294.228C201.977 293.97 202.823 293.964 203.61 294.212L210.34 313.292C209.91 318.962 210.17 322.112 208.15 324.952C206.938 326.429 205.889 328.031 205.02 329.732C204.593 330.59 204.401 331.545 204.465 332.501C204.528 333.457 204.844 334.379 205.38 335.172C198.61 333.892 193.38 328.732 188.5 323.822L183.39 318.622C182.815 318.125 182.372 317.493 182.1 316.782C181.61 315.062 183.2 313.442 184.79 312.652Z" fill="#263238"/>
<path d="M188.779 322.153C188.99 322.287 189.214 322.398 189.449 322.483C190.124 322.74 190.838 322.878 191.559 322.893C192.447 322.908 193.328 322.744 194.151 322.411C194.974 322.078 195.721 321.582 196.348 320.954C196.975 320.326 197.469 319.578 197.801 318.755C198.133 317.932 198.296 317.05 198.279 316.163C198.214 315.209 198.025 314.268 197.719 313.363C197.38 312.431 197.184 311.453 197.139 310.463C197.112 309.956 197.198 309.45 197.392 308.981C197.586 308.512 197.882 308.092 198.259 307.753C199.079 307.103 200.259 307.213 201.409 307.073C202.041 307.049 202.644 306.809 203.121 306.395C203.598 305.98 203.918 305.415 204.029 304.793C204.207 303.582 204.271 302.356 204.219 301.133C204.236 300.544 204.386 299.966 204.659 299.443C204.956 298.93 205.428 298.543 205.989 298.353C207.165 298.033 208.404 298.033 209.579 298.353C210.797 298.632 212.065 298.604 213.269 298.273C214.423 297.922 215.459 297.266 216.269 296.373C216.99 295.489 217.573 294.501 217.999 293.443C218.383 292.458 218.869 291.516 219.449 290.633C220.038 289.842 220.788 289.184 221.649 288.703C223.078 287.92 224.718 287.609 226.334 287.814C227.95 288.019 229.461 288.729 230.649 289.843C231.465 290.6 232.142 291.493 232.649 292.483C233.084 293.338 233.42 294.241 233.649 295.173C233.654 295.11 233.654 295.046 233.649 294.983C233.649 294.863 233.649 294.673 233.549 294.433C233.396 293.74 233.157 293.068 232.839 292.433C232.344 291.409 231.666 290.484 230.839 289.703C229.729 288.644 228.343 287.92 226.839 287.613C225.011 287.275 223.123 287.564 221.479 288.433C220.571 288.924 219.779 289.607 219.159 290.433C218.562 291.334 218.056 292.292 217.649 293.293C217.241 294.319 216.678 295.277 215.979 296.133C215.206 296.976 214.217 297.592 213.119 297.913C211.974 298.233 210.765 298.254 209.609 297.973C208.365 297.633 207.053 297.633 205.809 297.973C205.165 298.196 204.621 298.643 204.279 299.233C203.969 299.809 203.797 300.449 203.779 301.103C203.831 302.302 203.774 303.504 203.609 304.693C203.517 305.239 203.239 305.737 202.821 306.102C202.404 306.466 201.873 306.675 201.319 306.693C200.759 306.773 200.189 306.773 199.619 306.843C199.036 306.898 198.478 307.105 197.999 307.443C197.58 307.818 197.252 308.282 197.037 308.801C196.822 309.321 196.727 309.882 196.759 310.443C196.812 311.468 197.018 312.479 197.369 313.443C197.673 314.318 197.865 315.229 197.939 316.153C197.963 317.003 197.817 317.85 197.509 318.643C196.991 320.026 196.003 321.183 194.719 321.913C193.742 322.449 192.644 322.728 191.529 322.723C190.585 322.711 189.651 322.517 188.779 322.153Z" fill="#455A64"/>
<path d="M182.999 308.323C182.843 308.459 182.717 308.625 182.629 308.813C182.37 309.348 182.313 309.959 182.469 310.533C182.582 310.994 182.821 311.415 183.16 311.748C183.5 312.08 183.926 312.31 184.389 312.413C184.998 312.567 185.637 312.55 186.237 312.365C186.836 312.18 187.374 311.833 187.789 311.363C188.27 310.819 188.613 310.167 188.789 309.463C188.974 308.707 189.018 307.924 188.919 307.153C188.789 305.573 188.209 303.913 188.639 302.233C188.721 301.813 188.886 301.413 189.125 301.057C189.364 300.702 189.671 300.398 190.029 300.163C190.856 299.788 191.797 299.752 192.649 300.063C193.595 300.401 194.595 300.563 195.599 300.543C196.141 300.478 196.649 300.243 197.049 299.873C197.436 299.499 197.737 299.045 197.929 298.543C198.241 297.57 198.429 296.562 198.489 295.543C198.595 294.593 198.902 293.676 199.389 292.853C200.322 291.288 201.817 290.14 203.569 289.643C205.188 289.305 206.864 289.374 208.449 289.843C209.875 290.231 211.353 290.393 212.829 290.323C214.049 290.202 215.232 289.838 216.309 289.253C217.121 288.821 217.86 288.264 218.499 287.603C219.063 287.06 219.524 286.42 219.859 285.713C219.427 286.352 218.935 286.948 218.389 287.493C217.743 288.121 217.004 288.647 216.199 289.053C215.15 289.614 213.996 289.955 212.809 290.053C211.361 290.105 209.913 289.93 208.519 289.533C206.88 289.046 205.146 288.968 203.469 289.303C201.619 289.82 200.037 291.026 199.049 292.673C198.516 293.537 198.175 294.505 198.049 295.513C197.988 296.505 197.807 297.485 197.509 298.433C197.367 298.88 197.105 299.28 196.753 299.59C196.401 299.9 195.971 300.108 195.509 300.193C194.553 300.197 193.602 300.038 192.699 299.723C191.75 299.391 190.709 299.445 189.799 299.873C189.398 300.132 189.053 300.471 188.786 300.868C188.52 301.265 188.337 301.713 188.249 302.183C188.052 303.05 188.028 303.947 188.179 304.823C188.299 305.653 188.469 306.453 188.549 307.223C188.651 307.956 188.621 308.701 188.459 309.423C188.29 310.085 187.968 310.697 187.519 311.213C187.136 311.649 186.641 311.972 186.088 312.148C185.535 312.324 184.944 312.347 184.379 312.213C183.914 312.104 183.489 311.869 183.149 311.533C182.817 311.182 182.593 310.742 182.502 310.268C182.412 309.793 182.459 309.302 182.639 308.853C182.749 308.669 182.869 308.492 182.999 308.323Z" fill="#263238"/>
<path d="M251.839 331.253C251.872 331.868 251.7 332.476 251.349 332.983C251.146 333.267 250.883 333.503 250.579 333.676C250.275 333.848 249.937 333.953 249.589 333.983C249.128 333.993 248.672 333.873 248.275 333.638C247.877 333.403 247.553 333.062 247.339 332.653C247.09 332.18 247.019 331.633 247.139 331.113C247.276 330.537 247.517 329.992 247.849 329.503C248.509 328.503 249.559 327.453 249.849 325.963C249.995 325.203 249.982 324.422 249.81 323.668C249.637 322.914 249.31 322.204 248.849 321.583C248.368 320.927 247.768 320.367 247.079 319.933C246.37 319.502 245.606 319.165 244.809 318.933C244.04 318.714 243.293 318.423 242.579 318.063C241.912 317.726 241.387 317.162 241.099 316.473C240.865 315.784 240.824 315.044 240.979 314.333C241.127 313.635 241.372 312.961 241.709 312.333C242.411 311.166 242.966 309.916 243.359 308.613C243.608 307.428 243.5 306.196 243.049 305.073C242.648 304.169 242.082 303.348 241.379 302.653C240.87 302.137 240.401 301.582 239.979 300.993C239.637 300.48 239.396 299.906 239.269 299.303C239.269 299.303 239.269 299.303 239.269 299.423C239.258 299.546 239.258 299.67 239.269 299.793C239.368 300.252 239.551 300.69 239.809 301.083C240.218 301.693 240.676 302.268 241.179 302.803C241.839 303.492 242.367 304.295 242.739 305.173C243.158 306.246 243.245 307.42 242.989 308.543C242.596 309.815 242.042 311.031 241.339 312.163C240.986 312.82 240.727 313.524 240.569 314.253C240.39 315.032 240.431 315.846 240.689 316.603C241.009 317.383 241.598 318.021 242.349 318.403C243.082 318.776 243.849 319.077 244.639 319.303C245.404 319.516 246.136 319.829 246.819 320.233C247.47 320.638 248.037 321.164 248.489 321.783C248.92 322.358 249.226 323.018 249.386 323.719C249.546 324.42 249.558 325.147 249.419 325.853C249.179 327.223 248.199 328.213 247.509 329.293C247.161 329.819 246.914 330.406 246.779 331.023C246.651 331.614 246.74 332.232 247.029 332.763C247.271 333.211 247.635 333.582 248.08 333.832C248.524 334.081 249.03 334.2 249.539 334.173C249.919 334.137 250.286 334.014 250.611 333.812C250.935 333.611 251.208 333.337 251.409 333.013C251.682 332.622 251.832 332.159 251.839 331.683C251.86 331.54 251.86 331.395 251.839 331.253Z" fill="#263238"/>
<path d="M121.8 478.853L141.26 474.723L144.5 490.723L130.2 491.043L130.34 503.943C136.76 505.753 137.66 509.003 137.66 509.003L124.24 508.693L112.56 484.943L121.8 478.853Z" fill="#A276FF"/>
<g opacity="0.6">
<path d="M112.56 484.902L124.24 508.652L137.66 508.962L136.2 506.912L125.29 506.062L114.52 483.612L112.56 484.902Z" fill="white"/>
</g>
<path d="M130.389 497.992C130.289 498.132 129.519 497.672 128.479 497.682C127.439 497.692 126.669 498.102 126.569 497.962C126.469 497.822 127.219 497.072 128.489 497.092C129.759 497.112 130.509 497.892 130.389 497.992Z" fill="#263238"/>
<path d="M130.24 494.792C130.11 494.882 129.53 494.082 128.46 493.792C127.39 493.502 126.53 494.032 126.46 493.892C126.39 493.752 126.58 493.612 126.96 493.412C127.471 493.16 128.054 493.093 128.61 493.222C129.165 493.344 129.662 493.65 130.02 494.092C130.26 494.442 130.31 494.752 130.24 494.792Z" fill="#263238"/>
<path d="M130.42 490.683C130.27 490.763 129.83 489.973 128.91 489.623C127.99 489.273 127.13 489.573 127.07 489.423C127.01 489.273 127.21 489.163 127.58 489.033C128.078 488.87 128.617 488.881 129.109 489.062C129.601 489.244 130.017 489.585 130.29 490.033C130.48 490.443 130.49 490.663 130.42 490.683Z" fill="#263238"/>
<path d="M131.41 490.683C131.25 490.683 131.35 489.793 130.94 488.883C130.53 487.973 129.89 487.453 129.94 487.303C129.99 487.153 130.94 487.533 131.46 488.653C131.98 489.773 131.55 490.753 131.41 490.683Z" fill="#263238"/>
<path d="M132.999 489.162C132.795 488.584 132.687 487.976 132.679 487.362C132.619 486.722 132.559 486.062 132.499 485.362C132.439 484.945 132.439 484.52 132.499 484.102C132.575 483.826 132.754 483.59 132.999 483.442C133.135 483.354 133.293 483.307 133.454 483.307C133.616 483.307 133.774 483.354 133.909 483.442C134.274 483.758 134.541 484.171 134.679 484.632C134.815 485.026 134.896 485.437 134.919 485.852C134.957 486.537 134.838 487.221 134.569 487.852C134.089 488.942 133.409 489.342 133.389 489.292C133.681 488.777 133.945 488.246 134.179 487.702C134.37 487.109 134.438 486.483 134.379 485.862C134.344 485.5 134.26 485.143 134.129 484.802C134.026 484.46 133.837 484.151 133.579 483.902C133.539 483.873 133.49 483.857 133.439 483.857C133.389 483.857 133.34 483.873 133.299 483.902C133.192 483.976 133.114 484.086 133.079 484.212C133.034 484.568 133.034 484.927 133.079 485.282C133.079 485.952 133.079 486.612 133.079 487.282C133.155 487.909 133.128 488.544 132.999 489.162Z" fill="#263238"/>
<path d="M133.22 489.753C133.16 489.753 133.56 489.133 134.59 488.753C135.286 488.531 136.036 488.544 136.724 488.79C137.412 489.036 138.001 489.5 138.4 490.113C138.43 490.198 138.44 490.289 138.429 490.379C138.419 490.469 138.388 490.556 138.34 490.633C138.26 490.766 138.136 490.869 137.99 490.923C137.787 490.996 137.575 491.037 137.36 491.043C136.38 491.133 135.394 490.978 134.49 490.593C133.49 490.173 133.09 489.683 133.13 489.593C133.643 489.754 134.147 489.945 134.64 490.163C135.182 490.331 135.743 490.432 136.31 490.463C136.643 490.488 136.977 490.488 137.31 490.463C137.466 490.454 137.621 490.424 137.77 490.373C137.88 490.303 137.85 490.323 137.85 490.283C137.85 490.243 137.71 490.083 137.58 489.963C137.461 489.845 137.33 489.742 137.19 489.653C136.926 489.469 136.636 489.327 136.33 489.233C135.806 489.067 135.249 489.036 134.71 489.143C134.201 489.316 133.704 489.52 133.22 489.753Z" fill="#263238"/>
<g opacity="0.6">
<path d="M123.28 484.733C123.276 485.05 123.178 485.359 122.998 485.62C122.818 485.881 122.564 486.083 122.269 486.2C121.974 486.317 121.651 486.343 121.341 486.276C121.031 486.209 120.748 486.051 120.528 485.822C120.307 485.594 120.16 485.305 120.105 484.992C120.049 484.68 120.088 484.358 120.216 484.068C120.343 483.777 120.555 483.532 120.823 483.361C121.09 483.191 121.403 483.105 121.72 483.113C122.141 483.123 122.541 483.299 122.833 483.602C123.125 483.906 123.285 484.312 123.28 484.733Z" fill="white"/>
</g>
<path d="M269.49 480.603L269.3 498.183C269.3 498.183 288.02 505.183 288.3 508.393H253.3L252.46 480.993L269.49 480.603Z" fill="#A276FF"/>
<g opacity="0.6">
<path d="M258.72 496.972C258.396 497.082 258.124 497.307 257.955 497.603C257.786 497.9 257.73 498.248 257.8 498.582C257.893 498.913 258.111 499.194 258.408 499.367C258.704 499.541 259.056 499.593 259.39 499.512C259.741 499.405 260.039 499.17 260.224 498.853C260.409 498.536 260.469 498.161 260.39 497.802C260.256 497.469 259.997 497.201 259.668 497.055C259.339 496.909 258.967 496.898 258.63 497.022" fill="white"/>
</g>
<g opacity="0.6">
<path d="M253.3 508.443V505.673L285.98 505.873C285.98 505.873 288.43 507.373 288.28 508.443H253.3Z" fill="white"/>
</g>
<path d="M269.85 497.993C269.85 498.163 269.02 498.253 268.21 498.813C267.4 499.373 266.99 500.083 266.84 500.013C266.69 499.943 266.9 499.013 267.89 498.333C268.88 497.653 269.88 497.843 269.85 497.993Z" fill="#263238"/>
<path d="M273.469 499.382C273.469 499.542 272.789 499.842 272.249 500.562C271.709 501.282 271.559 502.032 271.389 502.022C271.219 502.012 271.089 501.082 271.789 500.202C272.489 499.322 273.459 499.222 273.469 499.382Z" fill="#263238"/>
<path d="M275.61 503.613C275.46 503.613 275.2 502.823 275.61 501.903C276.02 500.983 276.78 500.593 276.85 500.733C276.92 500.873 276.46 501.363 276.14 502.133C275.82 502.903 275.77 503.593 275.61 503.613Z" fill="#263238"/>
<path d="M269.45 493.983C269.38 494.133 268.61 493.923 267.67 493.983C266.73 494.043 266.01 494.383 265.92 494.243C265.83 494.103 266.52 493.493 267.63 493.403C268.74 493.313 269.53 493.853 269.45 493.983Z" fill="#263238"/>
<g opacity="0.3">
<path d="M269.45 484.083L269.42 487.213L252.66 487.493L252.56 484.673L269.45 484.083Z" fill="black"/>
</g>
<path d="M269.42 490.443C268.861 490.598 268.27 490.598 267.71 490.443C267.091 490.348 266.487 490.177 265.91 489.933C265.566 489.792 265.232 489.628 264.91 489.443C264.714 489.341 264.535 489.21 264.38 489.053C264.269 488.937 264.199 488.789 264.181 488.63C264.163 488.471 264.198 488.31 264.28 488.173C264.36 488.054 264.467 487.956 264.592 487.887C264.717 487.817 264.857 487.778 265 487.773C265.219 487.763 265.438 487.786 265.65 487.843C266.017 487.921 266.375 488.035 266.72 488.183C267.301 488.432 267.841 488.769 268.32 489.183C269.13 489.893 269.41 490.513 269.32 490.543C269.23 490.573 268.85 490.093 268.02 489.543C267.545 489.203 267.027 488.928 266.48 488.723C266.155 488.604 265.821 488.514 265.48 488.453C265.12 488.363 264.81 488.373 264.72 488.533C264.63 488.693 264.72 488.623 264.72 488.723C264.838 488.832 264.969 488.926 265.11 489.003C265.42 489.193 265.73 489.353 266.03 489.503C266.565 489.748 267.12 489.946 267.69 490.093C268.275 490.163 268.854 490.28 269.42 490.443Z" fill="#263238"/>
<path d="M269.21 490.683C268.877 490.202 268.705 489.627 268.72 489.043C268.638 488.033 268.843 487.021 269.31 486.123C269.394 485.893 269.537 485.69 269.725 485.534C269.913 485.378 270.139 485.274 270.38 485.233C270.53 485.23 270.678 485.271 270.806 485.351C270.934 485.431 271.036 485.546 271.1 485.683C271.195 485.881 271.259 486.094 271.29 486.313C271.349 486.694 271.349 487.081 271.29 487.463C271.207 488.103 270.97 488.714 270.6 489.243C269.96 490.143 269.27 490.363 269.25 490.303C269.23 490.243 269.77 489.883 270.25 489.023C270.536 488.527 270.706 487.973 270.75 487.403C270.783 487.069 270.767 486.731 270.7 486.403C270.63 486.043 270.49 485.753 270.36 485.803C270.23 485.853 269.91 486.083 269.77 486.373C269.615 486.676 269.482 486.991 269.37 487.313C269.198 487.867 269.104 488.442 269.09 489.023C269.11 490.033 269.3 490.653 269.21 490.683Z" fill="#263238"/>
<path d="M176.63 443.442C177.83 443.442 183.57 466.852 183.57 466.852L130.49 474.762L133.86 495.932C133.86 495.932 196.53 491.742 200.86 490.762C208.5 489.022 214.28 481.632 214.03 471.932C213.74 460.762 207.21 434.452 207.21 434.452L176.63 443.442Z" fill="#263238"/>
<path opacity="0.3" d="M210 447.263L179.2 449.493C179.2 449.493 181.76 454.813 190.43 455.433C199.1 456.053 211.75 455.433 211.75 455.433L210 447.263Z" fill="black"/>
<path d="M275.71 425.532C275.312 420.897 273.182 416.581 269.744 413.447C266.305 410.313 261.812 408.59 257.16 408.622H247.72L196.72 411.262L169 402.832C169 402.832 159.37 420.042 164.91 434.422C166.539 438.742 169.276 442.557 172.846 445.485C176.417 448.413 180.694 450.35 185.25 451.102C196.78 453.102 249.59 441.952 249.59 441.952V488.952L273.59 488.332L275.76 426.442C275.75 426.142 275.73 425.842 275.71 425.532Z" fill="#263238"/>
<path d="M249.61 441.953L249.3 442.033L248.37 442.223L244.79 442.893L231.62 445.263L212.08 448.723L200.53 450.723C196.38 451.491 192.149 451.73 187.94 451.433C185.801 451.284 183.68 450.95 181.6 450.433C179.566 449.951 177.599 449.226 175.74 448.273C172.26 446.354 169.344 443.558 167.28 440.163C165.381 437.136 164.061 433.782 163.39 430.273C162.8 427.222 162.686 424.099 163.05 421.013C163.697 416.582 164.862 412.242 166.52 408.083C167.11 406.613 167.64 405.503 168.02 404.763C168.22 404.393 168.37 404.113 168.48 403.933C168.59 403.753 168.65 403.653 168.66 403.663C168.625 403.763 168.581 403.86 168.53 403.953C168.42 404.173 168.29 404.453 168.12 404.813C167.77 405.563 167.27 406.683 166.71 408.153C165.134 412.316 164.03 416.643 163.42 421.053C163.083 424.098 163.214 427.177 163.81 430.183C164.49 433.635 165.806 436.931 167.69 439.903C169.718 443.23 172.583 445.968 176 447.843C177.826 448.772 179.756 449.48 181.75 449.953C183.804 450.466 185.898 450.8 188.01 450.953C192.179 451.237 196.368 451.002 200.48 450.253L212.03 448.253L231.59 444.913L244.79 442.703L248.38 442.123L249.32 441.993C249.414 441.968 249.512 441.955 249.61 441.953Z" fill="#455A64"/>
<path d="M186.69 492.272H186.43L185.67 492.342L182.67 492.592L171.67 493.422L133.85 496.112H133.62V495.892C132.75 490.442 131.82 484.622 130.86 478.632L130.24 474.722V474.462H130.5L183.6 466.662C186.444 468.048 189.099 469.792 191.5 471.852C192.33 472.572 192.93 473.172 193.32 473.582L193.76 474.062C193.85 474.172 193.9 474.232 193.89 474.232C193.88 474.232 193.83 474.232 193.73 474.092L193.26 473.642C192.85 473.252 192.26 472.642 191.4 471.972C188.969 469.991 186.306 468.312 183.47 466.972H183.56L130.5 474.972L130.72 474.672L131.34 478.582C132.29 484.582 133.21 490.392 134.08 495.842L133.81 495.622L171.64 493.122L182.64 492.442L185.64 492.282H186.4L186.69 492.272Z" fill="#455A64"/>
<path d="M254.93 436.203C253.754 436.853 252.662 437.645 251.68 438.563C250.824 439.595 250.102 440.73 249.53 441.943C249.47 441.943 249.53 441.453 249.74 440.733C250.084 439.792 250.617 438.93 251.304 438.202C251.992 437.473 252.82 436.891 253.74 436.493C254.44 436.203 254.91 436.143 254.93 436.203Z" fill="#455A64"/>
<path d="M212.06 410.623C211.591 410.74 211.112 410.81 210.63 410.833C209.71 410.943 208.38 411.043 206.73 411.133C203.43 411.323 198.86 411.413 193.82 411.463C188.78 411.513 184.22 411.593 180.93 411.783C179.28 411.863 177.93 411.963 177.03 412.043C176.556 412.107 176.078 412.134 175.6 412.123C176.058 411.978 176.531 411.884 177.01 411.843C177.93 411.703 179.26 411.543 180.91 411.413C184.2 411.133 188.77 411.003 193.82 410.943C198.87 410.883 203.41 410.863 206.71 410.763L210.62 410.633C211.098 410.588 211.58 410.585 212.06 410.623Z" fill="#455A64"/>
<path d="M201.85 336.192L201.32 336.822C197.835 337.556 194.619 339.233 192.023 341.67C189.428 344.107 187.551 347.211 186.6 350.642C184.66 357.502 184.06 370.182 180.09 387.372C180.09 387.372 170.34 396.192 168.52 402.832L196.69 411.322L212.06 410.462L218 392.022C223.75 392.022 226.2 389.142 228.27 384.422C231.02 378.142 221.95 349.332 221.95 349.332L222.6 354.252L201.85 336.192Z" fill="#A276FF"/>
<path opacity="0.3" d="M226 360.492L232.87 374.442L228.66 375.082C228.66 375.082 226.06 361.532 226 360.492Z" fill="black"/>
<path d="M220.77 392.022C220.77 391.972 221.26 391.862 222.09 391.492C223.258 390.958 224.311 390.201 225.19 389.262C226.485 387.864 227.452 386.193 228.02 384.372C228.677 382.125 228.897 379.773 228.67 377.442C228.454 375.085 228.07 372.745 227.52 370.442C227.05 368.322 226.62 366.392 226.35 364.762C226.132 363.472 225.999 362.17 225.95 360.862C225.908 360.389 225.925 359.912 226 359.442C226.079 359.912 226.129 360.386 226.15 360.862C226.271 362.155 226.461 363.44 226.72 364.712C227.03 366.332 227.49 368.232 227.99 370.362C228.573 372.661 228.974 375.001 229.19 377.362C229.416 379.759 229.175 382.177 228.48 384.482C227.877 386.357 226.85 388.068 225.48 389.482C224.548 390.43 223.427 391.169 222.19 391.652C221.865 391.777 221.531 391.874 221.19 391.942C220.9 392.022 220.77 392.042 220.77 392.022Z" fill="#263238"/>
<path opacity="0.3" d="M188.109 362.793C188.109 362.793 197.629 395.613 203.849 400.613C205.439 402.038 207.502 402.818 209.637 402.801C211.771 402.785 213.822 401.972 215.389 400.523L216.539 394.873L188.109 362.793Z" fill="black"/>
<path d="M278 360.173C276.91 359.173 276.28 359.553 276.28 359.553C276.28 359.553 276.86 356.893 275.47 355.963C275.05 355.673 274.81 355.523 274.69 355.453C274.55 355.103 273.69 353.193 272.26 352.873C272.26 352.873 272.07 350.373 271.02 350.143C269.02 349.703 268.19 351.833 268.19 351.833L264.6 358.693L262.89 365.693L233.49 379.343L236.63 392.823L269.63 375.823L275.51 370.183C275.51 370.183 279.08 361.143 278 360.173Z" fill="#FFBE9D"/>
<path d="M190.29 352.902C190.29 353.952 206.88 397.252 214.73 400.272C217.72 401.442 263 384.442 263 384.442L257.49 367.752C257.49 367.752 225.83 378.392 224.77 378.352C223.71 378.312 213.82 350.922 213.82 350.922C213.82 350.922 207.61 337.922 198.28 341.972C192.3 344.582 190.29 352.902 190.29 352.902Z" fill="#A276FF"/>
<path d="M224.76 378.373L225.35 378.153L227.07 377.563L233.66 375.363L257.41 367.573L257.62 367.503L257.69 367.703C259.36 372.763 261.23 378.393 263.22 384.383L263.29 384.603L263.07 384.693C255.97 387.423 248.19 390.353 240.07 393.253C235.07 395.023 230.2 396.703 225.44 398.183C223.05 398.903 220.71 399.623 218.35 400.183C217.767 400.327 217.176 400.438 216.58 400.513L215.68 400.643C215.344 400.681 215.005 400.653 214.68 400.563C213.564 400.107 212.578 399.382 211.81 398.453C210.338 396.753 209.026 394.922 207.89 392.983C206.77 391.113 205.76 389.263 204.82 387.453C202.94 383.833 201.34 380.383 199.93 377.223C197.11 370.893 195.04 365.683 193.64 362.073C192.94 360.263 192.41 358.853 192.07 357.893C191.9 357.433 191.77 357.073 191.68 356.803C191.633 356.678 191.593 356.552 191.56 356.423C191.628 356.537 191.685 356.657 191.73 356.783L192.16 357.863L193.83 361.993C195.29 365.583 197.41 370.773 200.27 377.073C201.7 380.223 203.27 383.653 205.2 387.253C206.14 389.053 207.2 390.893 208.28 392.743C209.407 394.65 210.706 396.451 212.16 398.123C212.869 398.997 213.783 399.684 214.82 400.123C215.368 400.218 215.93 400.197 216.47 400.063C217.053 399.988 217.631 399.875 218.2 399.723C220.53 399.213 222.87 398.483 225.2 397.723C229.95 396.243 234.82 394.553 239.8 392.793C247.95 389.893 255.73 386.983 262.8 384.263L262.65 384.563C260.65 378.563 258.84 372.933 257.17 367.873L257.45 368.013L233.64 375.633L227.01 377.713L225.27 378.243C225 378.333 224.76 378.373 224.76 378.373Z" fill="#263238"/>
<path d="M200.89 341.612C201.039 341.567 201.194 341.547 201.35 341.552C201.793 341.526 202.237 341.526 202.68 341.552C204.331 341.615 205.941 342.082 207.37 342.912C208.342 343.511 209.213 344.26 209.95 345.132C210.813 346.098 211.602 347.128 212.31 348.212C213.851 350.735 215.189 353.377 216.31 356.112C218.81 361.872 220.63 367.262 221.91 371.112C222.55 373.112 223.04 374.652 223.37 375.752C223.57 376.312 223.724 376.887 223.83 377.472C223.576 376.934 223.358 376.38 223.18 375.812L221.56 371.232C220.19 367.362 218.32 362.002 215.83 356.232C214.699 353.52 213.362 350.899 211.83 348.392C211.145 347.318 210.383 346.295 209.55 345.332C208.853 344.478 208.026 343.739 207.1 343.142C205.731 342.308 204.187 341.801 202.59 341.662C201.53 341.632 200.89 341.662 200.89 341.612Z" fill="#263238"/>
<path d="M272.25 352.962C272.38 353.032 272.01 353.962 271.43 354.962C270.85 355.962 270.27 356.752 270.15 356.682C270.03 356.612 270.39 355.682 270.97 354.682C271.55 353.682 272.13 352.892 272.25 352.962Z" fill="#EB996E"/>
<path d="M274.29 355.362C274.41 355.442 273.98 356.232 273.42 357.182C272.86 358.132 272.42 358.892 272.25 358.832C272.08 358.772 272.4 357.892 272.97 356.922C273.54 355.952 274.18 355.272 274.29 355.362Z" fill="#EB996E"/>
<path d="M276.28 359.532C276.41 359.592 276.28 360.212 275.9 360.922C275.52 361.632 275.18 362.142 275.05 362.072C274.92 362.002 275.1 361.392 275.44 360.692C275.78 359.992 276.16 359.442 276.28 359.532Z" fill="#EB996E"/>
<path d="M224.83 377.942C224.96 378.032 223.98 379.542 223.26 381.612C222.54 383.682 222.33 385.462 222.17 385.452C222.029 384.09 222.235 382.714 222.77 381.452C223.143 380.124 223.852 378.915 224.83 377.942Z" fill="#263238"/>
<path d="M245.79 252.693C244.85 251.373 243.91 252.163 243.91 252.163C243.91 252.163 245.03 249.363 243.68 248.093C243.27 247.703 243.04 247.493 242.92 247.393C242.82 246.983 242.23 244.743 240.72 244.123C240.72 244.123 240.72 241.493 239.6 241.063C237.83 240.393 235.85 242.413 235.85 242.413L231.29 249.123L224.51 260.373L228.29 272.373L239.05 265.683L241.19 263.603C241.19 263.603 246.89 254.233 245.79 252.693Z" fill="#FFD6BD"/>
<path d="M240.809 244.013C240.929 244.093 240.599 244.853 240.069 245.713C239.539 246.573 239.009 247.213 238.879 247.133C238.749 247.053 239.089 246.303 239.629 245.443C240.169 244.583 240.689 243.933 240.809 244.013Z" fill="#FFB394"/>
<path d="M242.899 247.102C242.873 248.061 242.52 248.981 241.899 249.712C240.999 251.012 239.899 251.662 239.799 251.542C239.699 251.422 240.639 250.632 241.469 249.412C242.299 248.192 242.759 247.052 242.899 247.102Z" fill="#FFB394"/>
<path d="M243.859 251.723C243.979 251.783 243.759 252.563 243.149 253.343C242.539 254.123 241.839 254.523 241.759 254.413C241.679 254.303 242.179 253.743 242.759 253.023C243.339 252.303 243.719 251.663 243.859 251.723Z" fill="#FFB394"/>
<path d="M260.909 330.522L267.039 325.772C267.524 326.234 267.819 326.86 267.867 327.527C267.915 328.195 267.713 328.856 267.299 329.382C266.368 330.822 265.237 332.122 263.939 333.242C263.939 333.242 264.139 336.972 262.869 339.242C261.599 341.512 256.799 339.842 256.799 339.842C256.799 339.842 255.319 334.602 260.909 330.522Z" fill="#FFBE9D"/>
<path d="M270.33 336.702C269.579 337.943 268.552 338.993 267.33 339.772C266.725 340.009 266.066 340.068 265.43 339.942C265.137 339.913 264.863 339.782 264.657 339.572C264.45 339.362 264.324 339.086 264.3 338.792C264.375 338.362 264.59 337.969 264.91 337.672L267.28 335.002C267.035 335.485 266.722 335.93 266.35 336.322C266.162 336.517 265.934 336.668 265.682 336.767C265.43 336.865 265.16 336.908 264.89 336.892C264.622 336.86 264.375 336.733 264.192 336.535C264.009 336.338 263.902 336.082 263.89 335.812C263.941 335.481 264.075 335.168 264.28 334.902L267.28 330.402" fill="#FFBE9D"/>
<path d="M270.329 338.812C269.692 340.102 268.658 341.154 267.379 341.812C266.894 342.107 266.317 342.211 265.759 342.103C265.526 342.025 265.317 341.887 265.153 341.702C264.99 341.518 264.878 341.294 264.829 341.052C264.792 340.809 264.821 340.56 264.912 340.332C265.004 340.103 265.155 339.903 265.349 339.753" fill="#FFBE9D"/>
<path d="M265.349 339.723C265.419 339.773 264.949 340.123 264.999 340.843C265.023 341.039 265.095 341.227 265.211 341.388C265.326 341.549 265.481 341.678 265.659 341.763C265.895 341.849 266.146 341.881 266.395 341.857C266.645 341.833 266.885 341.753 267.099 341.623C268.013 341.188 268.827 340.568 269.489 339.803C269.999 339.203 270.249 338.803 270.329 338.803C270.409 338.803 270.249 339.323 269.779 340.013C269.156 340.909 268.307 341.627 267.319 342.093C267.034 342.252 266.716 342.343 266.39 342.359C266.064 342.375 265.738 342.314 265.439 342.183C265.196 342.053 264.993 341.86 264.85 341.624C264.707 341.388 264.631 341.118 264.629 340.843C264.624 340.658 264.656 340.475 264.723 340.303C264.79 340.132 264.891 339.975 265.019 339.843C265.199 339.733 265.339 339.693 265.349 339.723Z" fill="#EB996E"/>
<path d="M264.45 338.852C264.685 339.131 264.988 339.345 265.33 339.472C265.691 339.605 266.079 339.649 266.46 339.602C266.93 339.528 267.376 339.343 267.76 339.062C268.759 338.236 269.683 337.322 270.52 336.332C270.093 337.643 269.219 338.761 268.05 339.492C267.598 339.822 267.067 340.025 266.51 340.082C266.051 340.113 265.591 340.02 265.18 339.812C264.892 339.685 264.653 339.467 264.5 339.192C264.4 338.992 264.42 338.862 264.45 338.852Z" fill="#EB996E"/>
<path d="M264.08 336.303C264.16 336.243 264.39 336.693 265.08 336.703C265.952 336.652 266.78 336.298 267.42 335.703C268.047 335.058 268.563 334.315 268.95 333.503C269.28 332.873 269.5 332.503 269.56 332.503C269.62 332.503 269.56 332.963 269.29 333.643C268.973 334.56 268.453 335.394 267.77 336.083C267.407 336.427 266.977 336.693 266.508 336.865C266.039 337.037 265.539 337.111 265.04 337.083C264.881 337.064 264.728 337.013 264.589 336.934C264.45 336.855 264.328 336.749 264.23 336.623C264.08 336.443 264.06 336.313 264.08 336.303Z" fill="#EB996E"/>
<path d="M261.66 340.202C262.273 339.685 262.779 339.053 263.15 338.342C263.501 337.559 263.681 336.711 263.68 335.852C263.677 335.341 263.64 334.83 263.57 334.322C263.5 334.016 263.5 333.699 263.57 333.392C263.684 333.074 263.894 332.798 264.17 332.602C265.009 331.945 265.777 331.201 266.46 330.382C266.985 329.703 267.329 328.901 267.46 328.052C267.56 327.483 267.512 326.898 267.32 326.352C267.18 325.982 267.02 325.802 267.05 325.772C267.08 325.742 267.28 325.882 267.51 326.272C267.795 326.834 267.903 327.468 267.82 328.092C267.741 329.019 267.413 329.907 266.87 330.662C266.185 331.532 265.4 332.318 264.53 333.002C264.327 333.131 264.17 333.32 264.08 333.542C264.035 333.777 264.035 334.018 264.08 334.252C264.154 334.786 264.184 335.324 264.17 335.862C264.148 336.786 263.915 337.692 263.49 338.512C263.314 338.903 263.061 339.253 262.747 339.543C262.433 339.834 262.063 340.058 261.66 340.202Z" fill="#EB996E"/>
<path d="M217.3 166.613C217.534 167.483 217.649 168.381 217.64 169.283C217.684 170.279 217.563 171.276 217.28 172.233C217.114 172.823 216.82 173.369 216.42 173.833C216.178 174.088 215.87 174.271 215.53 174.363C215.343 174.411 215.148 174.421 214.957 174.392C214.767 174.363 214.584 174.295 214.42 174.193C213.893 173.752 213.539 173.139 213.42 172.463C213.28 171.869 213.17 171.299 213.09 170.753C212.94 169.783 212.87 168.803 212.88 167.823C212.828 166.918 212.933 166.011 213.19 165.143C213.27 165.143 213.19 166.143 213.25 167.813C213.297 168.771 213.4 169.726 213.56 170.673C213.66 171.213 213.77 171.763 213.92 172.333C214.008 172.882 214.283 173.384 214.7 173.753C214.921 173.87 215.176 173.906 215.421 173.855C215.665 173.804 215.885 173.668 216.04 173.473C216.396 173.071 216.659 172.597 216.81 172.083C217.097 171.176 217.248 170.233 217.26 169.283C217.224 168.393 217.237 167.501 217.3 166.613Z" fill="#FFB394"/>
<path d="M220.9 169.112C221.034 169.586 221.075 170.082 221.02 170.572C221.03 171.779 220.745 172.971 220.19 174.042C220.014 174.355 219.795 174.641 219.54 174.892C219.276 175.162 218.916 175.316 218.54 175.322C218.234 175.299 217.942 175.186 217.7 174.997C217.458 174.809 217.277 174.553 217.18 174.262C216.979 173.79 216.954 173.261 217.11 172.772C217.21 172.772 217.2 173.352 217.52 174.112C217.605 174.313 217.743 174.486 217.919 174.615C218.095 174.743 218.303 174.822 218.52 174.842C218.97 174.842 219.4 174.342 219.72 173.782C220.229 172.775 220.538 171.678 220.63 170.552C220.644 170.061 220.735 169.575 220.9 169.112Z" fill="#FFB394"/>
<path d="M210 185.222C213.18 183.222 210.52 172.412 208.54 169.872C210.71 167.672 211.7 165.202 210.16 162.522C208.16 164.522 204.75 167.012 204.16 172.522L204.78 176.732L210 185.222Z" fill="#FFD6BD"/>
<path d="M210.8 180.732C210.961 179.782 211.071 178.824 211.13 177.862C211.147 175.548 210.374 173.298 208.94 171.482C208.617 171.068 208.259 170.684 207.87 170.332L207.64 170.112L207.9 169.932C208.683 169.377 209.327 168.647 209.78 167.8C210.233 166.953 210.483 166.012 210.51 165.052C210.492 164.262 210.401 163.476 210.24 162.702C210.376 162.873 210.475 163.07 210.53 163.282C210.728 163.852 210.836 164.449 210.85 165.052C210.873 165.966 210.695 166.874 210.33 167.712C209.865 168.765 209.13 169.675 208.2 170.352V169.952C208.611 170.321 208.989 170.726 209.33 171.162C210.845 173.063 211.607 175.455 211.47 177.882C211.435 178.605 211.307 179.321 211.09 180.012C211.043 180.269 210.944 180.514 210.8 180.732Z" fill="#FFB394"/>
</svg>
