<svg width="188" height="187" viewBox="0 0 188 187" fill="none" xmlns="http://www.w3.org/2000/svg">
<path d="M43.3031 104.71V99.4719L58.7328 75.0934H63.1007V82.5508H60.4373L50.0502 99.0103V99.2944H71.5879V104.71H43.3031ZM60.6504 111.457V103.112L60.7214 100.768V75.0934H66.9359V111.457H60.6504ZM77.2608 111.457V106.699L89.8851 94.3228C91.0925 93.1036 92.0987 92.0205 92.9036 91.0735C93.7085 90.1265 94.3122 89.2092 94.7147 88.3214C95.1171 87.4336 95.3184 86.4866 95.3184 85.4805C95.3184 84.3323 95.0579 83.3498 94.5371 82.533C94.0163 81.7044 93.3001 81.0652 92.3887 80.6154C91.4772 80.1656 90.4415 79.9407 89.2814 79.9407C88.0859 79.9407 87.0383 80.1893 86.1387 80.6864C85.2391 81.1718 84.5407 81.8642 84.0435 82.7638C83.5582 83.6635 83.3155 84.7347 83.3155 85.9776H77.0478C77.0478 83.6694 77.5745 81.663 78.628 79.9585C79.6815 78.2539 81.1316 76.9341 82.9782 75.9989C84.8366 75.0638 86.9673 74.5962 89.3702 74.5962C91.8087 74.5962 93.9512 75.052 95.7978 75.9634C97.6444 76.8749 99.0766 78.1237 100.095 79.7099C101.124 81.296 101.639 83.1071 101.639 85.1431C101.639 86.5044 101.379 87.842 100.858 89.1559C100.337 90.4698 99.4199 91.9258 98.106 93.5238C96.8039 95.1218 94.9751 97.0572 92.6195 99.3299L86.3517 105.704V105.953H102.19V111.457H77.2608ZM127.758 104.639V102.721C127.758 101.313 128.054 100.016 128.646 98.8327C129.249 97.649 130.125 96.6961 131.274 95.9741C132.422 95.252 133.813 94.891 135.446 94.891C137.127 94.891 138.536 95.252 139.672 95.9741C140.808 96.6843 141.667 97.6313 142.247 98.815C142.838 99.9987 143.134 101.301 143.134 102.721V104.639C143.134 106.047 142.838 107.344 142.247 108.527C141.655 109.711 140.785 110.664 139.637 111.386C138.5 112.108 137.103 112.469 135.446 112.469C133.789 112.469 132.386 112.108 131.238 111.386C130.09 110.664 129.22 109.711 128.628 108.527C128.048 107.344 127.758 106.047 127.758 104.639ZM132.392 102.721V104.639C132.392 105.574 132.617 106.432 133.067 107.213C133.517 107.995 134.31 108.385 135.446 108.385C136.594 108.385 137.382 108.001 137.808 107.231C138.246 106.45 138.465 105.586 138.465 104.639V102.721C138.465 101.774 138.258 100.91 137.843 100.129C137.429 99.3358 136.63 98.9393 135.446 98.9393C134.334 98.9393 133.546 99.3358 133.085 100.129C132.623 100.91 132.392 101.774 132.392 102.721ZM109.274 83.8292V81.9116C109.274 80.4911 109.576 79.189 110.18 78.0053C110.784 76.8216 111.66 75.8746 112.808 75.1644C113.956 74.4424 115.347 74.0813 116.98 74.0813C118.649 74.0813 120.052 74.4424 121.188 75.1644C122.337 75.8746 123.201 76.8216 123.781 78.0053C124.361 79.189 124.651 80.4911 124.651 81.9116V83.8292C124.651 85.2496 124.355 86.5517 123.763 87.7354C123.183 88.9073 122.319 89.8484 121.171 90.5586C120.022 91.2688 118.626 91.6239 116.98 91.6239C115.311 91.6239 113.903 91.2688 112.754 90.5586C111.618 89.8484 110.754 88.9014 110.162 87.7177C109.57 86.534 109.274 85.2378 109.274 83.8292ZM113.944 81.9116V83.8292C113.944 84.7762 114.163 85.6403 114.601 86.4215C115.051 87.1909 115.844 87.5756 116.98 87.5756C118.117 87.5756 118.898 87.1909 119.324 86.4215C119.762 85.6403 119.981 84.7762 119.981 83.8292V81.9116C119.981 80.9646 119.774 80.1005 119.36 79.3192C118.945 78.5262 118.152 78.1296 116.98 78.1296C115.856 78.1296 115.069 78.5262 114.619 79.3192C114.169 80.1123 113.944 80.9764 113.944 81.9116ZM111.298 111.457L136.298 75.0934H140.737L115.737 111.457H111.298Z" fill="black"/>
<circle cx="94" cy="93.5" r="86.669" stroke="#676B68" stroke-opacity="0.5" stroke-width="13.6621"/>
<path d="M180.669 93.5C180.669 112.773 174.245 131.497 162.412 146.71C150.579 161.923 134.013 172.758 115.333 177.502C96.6531 182.246 76.9245 180.629 59.2667 172.905C41.6089 165.181 27.0294 151.792 17.8333 134.854" stroke="#76FF94" stroke-width="13.6621" stroke-linecap="round"/>
</svg>
