<svg width="187" height="187" viewBox="0 0 187 187" fill="none" xmlns="http://www.w3.org/2000/svg">
<path d="M56.6059 111.497C53.9662 111.497 51.6225 111.053 49.5747 110.165C47.5387 109.278 45.9407 108.064 44.7806 106.526C43.6324 104.975 43.0642 103.217 43.0761 101.252C43.0642 99.7251 43.3957 98.3224 44.0704 97.044C44.7451 95.7656 45.6566 94.7003 46.8048 93.848C47.9648 92.9839 49.2551 92.4335 50.6755 92.1967V91.9482C48.8052 91.5339 47.2901 90.581 46.1301 89.0895C44.9819 87.5862 44.4137 85.852 44.4255 83.8871C44.4137 82.0168 44.9345 80.3478 45.988 78.88C47.0415 77.4122 48.4856 76.258 50.3204 75.4176C52.1552 74.5653 54.2503 74.1392 56.6059 74.1392C58.9378 74.1392 61.0152 74.5653 62.8382 75.4176C64.6729 76.258 66.117 77.4122 67.1705 78.88C68.2359 80.3478 68.7686 82.0168 68.7686 83.8871C68.7686 85.852 68.1826 87.5862 67.0107 89.0895C65.8507 90.581 64.3533 91.5339 62.5186 91.9482V92.1967C63.939 92.4335 65.2174 92.9839 66.3538 93.848C67.502 94.7003 68.4134 95.7656 69.0882 97.044C69.7747 98.3224 70.118 99.7251 70.118 101.252C70.118 103.217 69.538 104.975 68.3779 106.526C67.2179 108.064 65.6199 109.278 63.5839 110.165C61.5597 111.053 59.2338 111.497 56.6059 111.497ZM56.6059 106.419C57.9672 106.419 59.1509 106.188 60.157 105.727C61.1632 105.253 61.9445 104.59 62.5008 103.738C63.0571 102.886 63.3412 101.903 63.3531 100.79C63.3412 99.6304 63.0394 98.6065 62.4475 97.7188C61.8675 96.8191 61.0685 96.1148 60.0505 95.6058C59.0444 95.0968 57.8962 94.8423 56.6059 94.8423C55.3038 94.8423 54.1438 95.0968 53.1258 95.6058C52.1078 96.1148 51.3029 96.8191 50.711 97.7188C50.131 98.6065 49.8469 99.6304 49.8588 100.79C49.8469 101.903 50.1192 102.886 50.6755 103.738C51.2319 104.578 52.0131 105.235 53.0193 105.709C54.0373 106.182 55.2328 106.419 56.6059 106.419ZM56.6059 89.853C57.7186 89.853 58.7011 89.6281 59.5534 89.1783C60.4175 88.7285 61.0981 88.1011 61.5953 87.2962C62.0924 86.4912 62.3469 85.562 62.3588 84.5085C62.3469 83.4669 62.0983 82.5554 61.613 81.7741C61.1277 80.9811 60.453 80.3714 59.5889 79.9453C58.7248 79.5073 57.7304 79.2884 56.6059 79.2884C55.4577 79.2884 54.4456 79.5073 53.5697 79.9453C52.7056 80.3714 52.0309 80.9811 51.5455 81.7741C51.0721 82.5554 50.8412 83.4669 50.8531 84.5085C50.8412 85.562 51.078 86.4912 51.5633 87.2962C52.0605 88.0893 52.7411 88.7166 53.6052 89.1783C54.4811 89.6281 55.4814 89.853 56.6059 89.853ZM88.5972 111.497C86.2298 111.497 84.1109 111.053 82.2407 110.165C80.3704 109.266 78.8849 108.035 77.784 106.472C76.695 104.91 76.115 103.122 76.0439 101.11H82.436C82.5544 102.602 83.1995 103.821 84.3714 104.768C85.5432 105.703 86.9519 106.17 88.5972 106.17C89.8875 106.17 91.0357 105.875 92.0418 105.283C93.048 104.691 93.8411 103.868 94.4211 102.815C95.0011 101.761 95.2852 100.56 95.2733 99.2102C95.2852 97.8371 94.9952 96.6179 94.4033 95.5526C93.8115 94.4872 93.0006 93.6527 91.9708 93.049C90.941 92.4335 89.7573 92.1257 88.4197 92.1257C87.3306 92.1139 86.2594 92.3151 85.2059 92.7294C84.1524 93.1437 83.3179 93.6882 82.7023 94.3629L76.7542 93.3864L78.654 74.6364H99.7478V80.1406H84.105L83.0574 89.782H83.2705C83.9452 88.9889 84.8981 88.3319 86.1292 87.8111C87.3602 87.2784 88.7097 87.0121 90.1775 87.0121C92.3792 87.0121 94.3441 87.5329 96.0724 88.5746C97.8006 89.6044 99.1618 91.0249 100.156 92.8359C101.15 94.647 101.648 96.7185 101.648 99.0504C101.648 101.453 101.091 103.596 99.9786 105.478C98.8778 107.348 97.3448 108.822 95.3799 109.899C93.4268 110.964 91.1659 111.497 88.5972 111.497ZM127.038 104.182V102.264C127.038 100.856 127.334 99.5594 127.926 98.3757C128.53 97.192 129.406 96.2391 130.554 95.517C131.702 94.795 133.093 94.4339 134.726 94.4339C136.407 94.4339 137.816 94.795 138.952 95.517C140.089 96.2273 140.947 97.1742 141.527 98.358C142.119 99.5417 142.415 100.844 142.415 102.264V104.182C142.415 105.59 142.119 106.887 141.527 108.07C140.935 109.254 140.065 110.207 138.917 110.929C137.78 111.651 136.384 112.012 134.726 112.012C133.069 112.012 131.667 111.651 130.518 110.929C129.37 110.207 128.5 109.254 127.908 108.07C127.328 106.887 127.038 105.59 127.038 104.182ZM131.672 102.264V104.182C131.672 105.117 131.897 105.975 132.347 106.756C132.797 107.538 133.59 107.928 134.726 107.928C135.875 107.928 136.662 107.544 137.088 106.774C137.526 105.993 137.745 105.129 137.745 104.182V102.264C137.745 101.317 137.538 100.453 137.123 99.6719C136.709 98.8788 135.91 98.4822 134.726 98.4822C133.614 98.4822 132.827 98.8788 132.365 99.6719C131.903 100.453 131.672 101.317 131.672 102.264ZM108.555 83.3722V81.4545C108.555 80.0341 108.856 78.732 109.46 77.5483C110.064 76.3646 110.94 75.4176 112.088 74.7074C113.236 73.9853 114.627 73.6243 116.261 73.6243C117.93 73.6243 119.332 73.9853 120.469 74.7074C121.617 75.4176 122.481 76.3646 123.061 77.5483C123.641 78.732 123.931 80.0341 123.931 81.4545V83.3722C123.931 84.7926 123.635 86.0947 123.043 87.2784C122.463 88.4503 121.599 89.3913 120.451 90.1016C119.303 90.8118 117.906 91.1669 116.261 91.1669C114.592 91.1669 113.183 90.8118 112.035 90.1016C110.898 89.3913 110.034 88.4444 109.442 87.2607C108.851 86.0769 108.555 84.7808 108.555 83.3722ZM113.224 81.4545V83.3722C113.224 84.3191 113.443 85.1832 113.881 85.9645C114.331 86.7339 115.124 87.1186 116.261 87.1186C117.397 87.1186 118.178 86.7339 118.604 85.9645C119.042 85.1832 119.261 84.3191 119.261 83.3722V81.4545C119.261 80.5076 119.054 79.6435 118.64 78.8622C118.226 78.0691 117.432 77.6726 116.261 77.6726C115.136 77.6726 114.349 78.0691 113.899 78.8622C113.449 79.6553 113.224 80.5194 113.224 81.4545ZM110.579 111L135.579 74.6364H140.018L115.018 111H110.579Z" fill="black"/>
<circle cx="93.5" cy="93.5" r="86.669" stroke="#5C5C5C" stroke-opacity="0.5" stroke-width="13.6621"/>
<path d="M93.5 6.83105C112.963 6.83105 131.86 13.3825 147.147 25.4301C162.434 37.4777 173.22 54.3202 177.769 73.2446C182.318 92.1691 180.364 112.074 172.223 129.753C164.081 147.432 150.226 161.856 132.889 170.701C115.552 179.547 95.7415 182.299 76.6495 178.515C57.5574 174.731 40.2949 164.63 27.6423 149.841C14.9898 135.051 7.68377 116.433 6.90114 96.985C6.11852 77.5373 11.9048 58.3922 23.328 42.6335" stroke="#76FF94" stroke-width="13.6621" stroke-linecap="round"/>
</svg>
