<svg width="188" height="187" viewBox="0 0 188 187" fill="none" xmlns="http://www.w3.org/2000/svg">
<circle cx="94.0938" cy="93.5" r="86.669" stroke="#5C5C5C" stroke-opacity="0.5" stroke-width="13.6621"/>
<path d="M56.4701 74.1392C58.2101 74.151 59.9028 74.4588 61.5482 75.0625C63.2054 75.6544 64.6969 76.625 66.0226 77.9744C67.3484 79.312 68.4019 81.1053 69.1832 83.3544C69.9644 85.6035 70.355 88.3852 70.355 91.6996C70.3669 94.8246 70.0354 97.6181 69.3607 100.08C68.6978 102.531 67.7449 104.602 66.502 106.295C65.2591 107.987 63.7617 109.278 62.0099 110.165C60.258 111.053 58.2871 111.497 56.0972 111.497C53.8008 111.497 51.7648 111.047 49.9893 110.148C48.2255 109.248 46.7992 108.017 45.7101 106.455C44.6211 104.892 43.9523 103.105 43.7037 101.092H50.1846C50.516 102.536 51.1907 103.685 52.2087 104.537C53.2385 105.377 54.5347 105.798 56.0972 105.798C58.6185 105.798 60.5598 104.703 61.9211 102.513C63.2823 100.323 63.963 97.2808 63.963 93.3864H63.7144C63.1344 94.428 62.3827 95.3277 61.4594 96.0852C60.5361 96.831 59.4885 97.4051 58.3167 97.8075C57.1566 98.21 55.9256 98.4112 54.6235 98.4112C52.4928 98.4112 50.5752 97.9022 48.8706 96.8842C47.1779 95.8662 45.8344 94.4695 44.8401 92.6939C43.8576 90.9183 43.3605 88.8883 43.3486 86.6037C43.3486 84.2363 43.8931 82.1115 44.9822 80.2294C46.083 78.3355 47.6159 76.844 49.5809 75.755C51.5458 74.6541 53.8422 74.1155 56.4701 74.1392ZM56.4878 79.4659C55.2094 79.4659 54.0553 79.7796 53.0255 80.407C52.0075 81.0225 51.2026 81.8629 50.6107 82.9283C50.0307 83.9818 49.7407 85.1596 49.7407 86.4616C49.7525 87.7519 50.0425 88.9238 50.6107 89.9773C51.1907 91.0308 51.9779 91.8653 52.9722 92.4808C53.9784 93.0964 55.1266 93.4041 56.4168 93.4041C57.3756 93.4041 58.2693 93.2206 59.0979 92.8537C59.9265 92.4867 60.6486 91.9777 61.2641 91.3267C61.8915 90.6638 62.3768 89.9122 62.7201 89.0717C63.0752 88.2313 63.2468 87.3435 63.235 86.4084C63.235 85.1655 62.9391 84.0173 62.3472 82.9638C61.7672 81.9103 60.9682 81.0639 59.9502 80.4247C58.944 79.7855 57.7899 79.4659 56.4878 79.4659ZM89.7087 111.692C86.7849 111.692 84.2755 110.953 82.1803 109.473C80.097 107.982 78.493 105.833 77.3685 103.028C76.2558 100.21 75.6995 96.8191 75.6995 92.8537C75.7113 88.8883 76.2736 85.5147 77.3863 82.733C78.5108 79.9394 80.1147 77.8087 82.1981 76.3409C84.2932 74.8731 86.7968 74.1392 89.7087 74.1392C92.6207 74.1392 95.1242 74.8731 97.2194 76.3409C99.3145 77.8087 100.918 79.9394 102.031 82.733C103.156 85.5265 103.718 88.9001 103.718 92.8537C103.718 96.831 103.156 100.228 102.031 103.045C100.918 105.851 99.3145 107.993 97.2194 109.473C95.136 110.953 92.6325 111.692 89.7087 111.692ZM89.7087 106.135C91.9814 106.135 93.7748 105.016 95.0887 102.779C96.4144 100.53 97.0773 97.2216 97.0773 92.8537C97.0773 89.9654 96.7755 87.5388 96.1718 85.5739C95.5681 83.6089 94.7158 82.1293 93.615 81.1349C92.5141 80.1288 91.212 79.6257 89.7087 79.6257C87.4478 79.6257 85.6604 80.7502 84.3465 82.9993C83.0326 85.2365 82.3697 88.5213 82.3579 92.8537C82.346 95.7538 82.636 98.1922 83.2279 100.169C83.8316 102.146 84.6839 103.637 85.7847 104.643C86.8856 105.638 88.1936 106.135 89.7087 106.135ZM129.06 104.182V102.264C129.06 100.856 129.356 99.5594 129.948 98.3757C130.551 97.192 131.427 96.2391 132.575 95.517C133.724 94.795 135.114 94.4339 136.748 94.4339C138.429 94.4339 139.837 94.795 140.974 95.517C142.11 96.2273 142.968 97.1742 143.548 98.358C144.14 99.5417 144.436 100.844 144.436 102.264V104.182C144.436 105.59 144.14 106.887 143.548 108.07C142.957 109.254 142.087 110.207 140.938 110.929C139.802 111.651 138.405 112.012 136.748 112.012C135.091 112.012 133.688 111.651 132.54 110.929C131.392 110.207 130.522 109.254 129.93 108.07C129.35 106.887 129.06 105.59 129.06 104.182ZM133.694 102.264V104.182C133.694 105.117 133.919 105.975 134.369 106.756C134.819 107.538 135.612 107.928 136.748 107.928C137.896 107.928 138.683 107.544 139.109 106.774C139.547 105.993 139.766 105.129 139.766 104.182V102.264C139.766 101.317 139.559 100.453 139.145 99.6719C138.731 98.8788 137.932 98.4822 136.748 98.4822C135.635 98.4822 134.848 98.8788 134.386 99.6719C133.925 100.453 133.694 101.317 133.694 102.264ZM110.576 83.3722V81.4545C110.576 80.0341 110.878 78.732 111.482 77.5483C112.085 76.3646 112.961 75.4176 114.109 74.7074C115.258 73.9853 116.649 73.6243 118.282 73.6243C119.951 73.6243 121.354 73.9853 122.49 74.7074C123.638 75.4176 124.502 76.3646 125.082 77.5483C125.662 78.732 125.953 80.0341 125.953 81.4545V83.3722C125.953 84.7926 125.657 86.0947 125.065 87.2784C124.485 88.4503 123.621 89.3913 122.472 90.1016C121.324 90.8118 119.927 91.1669 118.282 91.1669C116.613 91.1669 115.204 90.8118 114.056 90.1016C112.92 89.3913 112.056 88.4444 111.464 87.2607C110.872 86.0769 110.576 84.7808 110.576 83.3722ZM115.246 81.4545V83.3722C115.246 84.3191 115.465 85.1832 115.903 85.9645C116.353 86.7339 117.146 87.1186 118.282 87.1186C119.418 87.1186 120.2 86.7339 120.626 85.9645C121.064 85.1832 121.283 84.3191 121.283 83.3722V81.4545C121.283 80.5076 121.076 79.6435 120.661 78.8622C120.247 78.0691 119.454 77.6726 118.282 77.6726C117.158 77.6726 116.37 78.0691 115.921 78.8622C115.471 79.6553 115.246 80.5194 115.246 81.4545ZM112.6 111L137.6 74.6364H142.039L117.039 111H112.6Z" fill="black"/>
<path d="M94.0938 6.83105C114.767 6.83105 134.759 14.2206 150.462 27.666C166.165 41.1115 176.545 59.7272 179.729 80.1536C182.912 100.58 178.69 121.472 167.823 139.058C156.956 156.645 140.161 169.767 120.468 176.058C100.776 182.349 79.483 181.394 60.4329 173.365C41.3828 165.336 25.83 150.762 16.5815 132.273C7.33302 113.784 4.99792 92.5986 9.99764 72.5393C14.9974 52.48 27.0026 34.8685 43.8467 22.8832" stroke="#76FF94" stroke-width="13.6621" stroke-linecap="round"/>
</svg>
