<svg width="104" height="145" viewBox="0 0 104 145" fill="none" xmlns="http://www.w3.org/2000/svg">
<path d="M65.9022 30.4196C41.7876 68.219 28.373 99.8207 23.8583 144.373L24.924 144.118L27.0509 144.007C27.0509 144.007 28.2387 115.866 38.0992 91.6992C48.8299 65.4111 65.9022 30.4196 65.9022 30.4196Z" fill="#1AB03B"/>
<path d="M39.5176 85.1449C39.5176 85.1449 59.7808 86.8835 67.2197 85.4318C74.6585 83.9801 91.0223 77.4107 91.0223 77.4107C91.0223 77.4107 73.5535 70.4443 63.9341 72.4001C54.3148 74.3558 40.1252 83.5306 40.1252 83.5306L39.5176 85.1449Z" fill="#1AB03B"/>
<path d="M82.4281 77.4451C82.3929 77.4507 82.3569 77.4508 82.3216 77.4451L81.9978 77.4699C81.711 77.4701 81.293 77.5153 80.7684 77.5361C79.6865 77.5818 78.121 77.6279 76.1868 77.666C74.2525 77.7042 71.9453 77.7385 69.3922 77.8302C68.1136 77.876 66.7735 77.9382 65.3883 78.0659C64.6957 78.1277 63.999 78.2181 63.2941 78.3411C62.5891 78.4642 61.9005 78.7017 61.1873 78.8901C58.3182 79.6399 55.5681 80.2138 53.072 80.7713C50.576 81.3287 48.3299 81.8574 46.4568 82.3449C44.5837 82.8325 43.0835 83.2667 42.0424 83.5738L40.8455 83.9261L40.534 84.0121C40.5 84.0256 40.464 84.0339 40.4275 84.0367C40.4275 84.0367 40.4602 84.0367 40.5299 83.9917L40.8333 83.8852L42.0179 83.4758C43.0508 83.1523 44.5469 82.6895 46.42 82.1897C48.2931 81.6899 50.5187 81.1367 53.0271 80.5752C55.5354 80.0136 58.2774 79.4233 61.1301 78.6736C61.8433 78.4892 62.5401 78.264 63.2533 78.1287C63.9664 77.9933 64.6754 77.9111 65.3721 77.8493C66.7614 77.7258 68.1056 77.6635 69.3842 77.6259C71.9455 77.5464 74.2485 77.5326 76.1828 77.5108L80.7644 77.4422L81.9938 77.4209L82.3175 77.4206C82.3555 77.4223 82.393 77.4306 82.4281 77.4451Z" fill="#263238"/>
<path d="M32.4776 107.103C32.4776 107.103 52.8201 106.99 60.0996 104.868C67.3791 102.747 83.0554 94.7192 83.0554 94.7192C83.0554 94.7192 65.0281 89.3671 55.6008 92.1767C46.1734 94.9863 32.9091 105.423 32.9091 105.423L32.4776 107.103Z" fill="#1AB03B"/>
<path d="M74.5155 95.5346L74.4089 95.5592L74.0892 95.6125C73.8064 95.6536 73.3925 95.7193 72.8597 95.7891C71.7859 95.9369 70.2286 96.1219 68.3065 96.3357C66.3844 96.5496 64.0893 96.7922 61.5525 97.1168C60.2861 97.2771 58.9541 97.4619 57.5893 97.7162C56.9089 97.8392 56.2163 97.995 55.54 98.1834C54.8637 98.3718 54.1791 98.6665 53.4905 98.9162C50.7113 99.9274 48.0184 100.751 45.5795 101.533C43.1407 102.315 40.9601 103.044 39.1401 103.699C37.3201 104.354 35.8608 104.927 34.8525 105.316L33.6965 105.778L33.3932 105.893L33.2866 105.926C33.3163 105.903 33.3495 105.885 33.385 105.872L33.6801 105.737L34.8197 105.238C35.8199 104.829 37.2792 104.227 39.0869 103.556C40.8946 102.884 43.0834 102.131 45.5223 101.345C47.9611 100.559 50.6459 99.7068 53.4168 98.7161C54.1096 98.4663 54.7818 98.1921 55.4664 97.9792C56.1509 97.7662 56.8599 97.635 57.5485 97.5119C58.9215 97.2617 60.2534 97.0769 61.5239 96.9207C64.0649 96.6084 66.3599 96.3861 68.2861 96.1887L72.8434 95.7074L74.0729 95.5676L74.3966 95.5388C74.4356 95.5301 74.4759 95.5287 74.5155 95.5346Z" fill="#263238"/>
<path d="M27.1388 129.171C27.1388 129.171 47.4289 127.682 54.5448 125.066C61.6607 122.45 76.7723 113.381 76.7723 113.381C76.7723 113.381 58.4122 109.267 49.2221 112.705C40.032 116.144 27.4924 127.463 27.4924 127.463L27.1388 129.171Z" fill="#1AB03B"/>
<path d="M68.3002 114.776C68.2669 114.793 68.2308 114.804 68.1937 114.808L67.8903 114.89C67.6116 114.952 67.2018 115.046 66.6608 115.153C65.5992 115.374 64.0582 115.665 62.1524 116.01C60.2466 116.354 57.976 116.752 55.4677 117.24C54.2136 117.486 52.8979 117.765 51.5535 118.109C50.8814 118.279 50.2064 118.479 49.5287 118.711C48.8688 118.965 48.2088 119.288 47.5324 119.587C44.8269 120.778 42.2035 121.785 39.8178 122.731C37.4321 123.676 35.3087 124.552 33.5379 125.33C31.767 126.107 30.3486 126.766 29.3607 127.228L28.2374 127.769L27.9423 127.904C27.9103 127.921 27.8757 127.934 27.8398 127.94L27.9341 127.883L28.217 127.728L29.3238 127.155C30.2913 126.672 31.6974 125.976 33.4642 125.187C35.231 124.397 37.3585 123.496 39.736 122.543C42.1135 121.589 44.7369 120.578 47.4342 119.387C48.1106 119.088 48.7583 118.769 49.4428 118.511C50.1274 118.253 50.8118 118.073 51.4922 117.901C52.8448 117.557 54.1645 117.286 55.4228 117.044C57.9352 116.56 60.2098 116.183 62.1156 115.855L66.6239 115.063L67.8535 114.841L68.1732 114.788L68.3002 114.776Z" fill="#263238"/>
<path d="M26.4666 129.788C26.4666 129.788 11.6883 119.551 7.79909 114.152C4.63038 109.754 1.66309 98.687 1.66309 98.687C1.66309 98.687 13.618 102.932 18.9241 109.707C24.2303 116.482 26.9963 128.333 26.9963 128.333L26.4666 129.788Z" fill="#1AB03B"/>
<path d="M5.02832 102.677C5.12291 102.743 5.21194 102.817 5.29453 102.897L6.01942 103.534C6.66238 104.13 7.57564 104.963 8.68957 105.984C9.80349 107.004 11.1467 108.262 12.6169 109.658C14.2127 111.165 15.7169 112.766 17.1213 114.452C18.5166 116.154 19.8243 117.926 21.0393 119.761C22.165 121.443 23.1311 122.987 23.9334 124.29C24.7356 125.593 25.3742 126.655 25.8121 127.39L26.3115 128.24C26.3736 128.335 26.427 128.436 26.4711 128.542C26.3989 128.453 26.3333 128.358 26.2746 128.26L25.7424 127.443L23.8063 124.38C22.9876 123.09 22.0092 121.554 20.8753 119.888C19.7413 118.221 18.4436 116.408 16.9573 114.611C15.5499 112.931 14.0459 111.333 12.4529 109.826C11.0401 108.393 9.70502 107.168 8.59933 106.094L5.9743 103.595L5.26584 102.909C5.18007 102.839 5.10061 102.761 5.02832 102.677Z" fill="#263238"/>
<path d="M31.8784 108.697C31.8784 108.697 16.0282 96.0051 11.66 89.8343C7.29187 83.6636 0.0292969 67.6602 0.0292969 67.6602C0.0292969 67.6602 17.4899 74.647 23.0944 82.6678C28.6988 90.6885 32.568 107.099 32.568 107.099L31.8784 108.697Z" fill="#1AB03B"/>
<path d="M6.2124 73.5967C6.2124 73.5967 6.24517 73.6171 6.29841 73.6661L6.53184 73.8906L7.41638 74.7685L10.6925 77.9695C12.0726 79.3169 13.7311 80.9133 15.5247 82.7344C16.4215 83.6408 17.3511 84.6085 18.2683 85.6579C18.7296 86.1806 19.1759 86.7319 19.6072 87.3118C20.0165 87.9162 20.3726 88.537 20.7615 89.1701C22.3005 91.6777 23.8889 93.9892 25.2971 96.1129C26.7053 98.2366 27.9497 100.177 28.9485 101.831C29.9472 103.485 30.7125 104.845 31.2364 105.792L31.8175 106.891C31.8789 107.005 31.928 107.103 31.9649 107.177C31.982 107.21 31.9971 107.244 32.0099 107.279C31.9848 107.252 31.9628 107.221 31.9444 107.189L31.7807 106.911L31.1626 105.833C30.6183 104.902 29.8406 103.546 28.8214 101.912C27.8021 100.279 26.5536 98.3429 25.1372 96.2233C23.7208 94.1038 22.1283 91.7882 20.5811 89.2805C20.1963 88.6556 19.8361 88.0144 19.435 87.4345C19.0338 86.8546 18.5711 86.3156 18.1166 85.8011C17.2035 84.7598 16.278 83.788 15.3894 82.8775C13.604 81.0523 11.9577 79.4477 10.59 78.084C9.2222 76.7203 8.13292 75.6138 7.37126 74.8176C6.99453 74.4297 6.71198 74.1234 6.51543 73.9152L6.29841 73.6743C6.26641 73.6523 6.23749 73.6262 6.2124 73.5967Z" fill="#263238"/>
<path d="M40.1762 84.9889C40.1762 84.9889 34.3216 65.5686 30.2281 59.2097C26.1347 52.8509 13.9932 40.1318 13.9932 40.1318C13.9932 40.1318 13.9266 58.9025 19.2769 67.0951C24.6271 75.2876 38.414 85.031 38.414 85.031L40.1762 84.9889Z" fill="#1AB03B"/>
<path d="M17.2007 48.0806C17.2007 48.0806 17.2253 48.1092 17.258 48.1745L17.4012 48.4604L17.9414 49.5755C18.4078 50.5435 19.0994 51.9363 19.9875 53.6354C20.8755 55.3345 21.9765 57.344 23.2617 59.5332C23.9002 60.6318 24.5878 61.7713 25.3082 62.9394C26.0287 64.1074 26.8433 65.2999 27.5841 66.5701C29.0658 69.1024 30.3754 71.5734 31.6319 73.7789C32.8885 75.9844 34.0878 77.9366 35.148 79.5335C36.2083 81.1303 37.1417 82.3922 37.7845 83.2416C38.1079 83.65 38.3618 83.9808 38.5419 84.2176L38.7384 84.4749C38.7794 84.5321 38.7999 84.5647 38.7957 84.5688C38.768 84.5434 38.742 84.5161 38.7179 84.4872L38.5091 84.2422L37.7189 83.2907C37.0556 82.4454 36.0812 81.2162 35.0209 79.6153C33.9607 78.0143 32.7286 76.0785 31.4639 73.873C30.1991 71.6675 28.8813 69.2006 27.3997 66.6724C26.6588 65.4104 25.8688 64.222 25.132 63.0498C24.3952 61.8777 23.7116 60.73 23.0854 59.6314C21.8125 57.43 20.7238 55.4123 19.8481 53.7009C18.9723 51.9895 18.3013 50.5885 17.8553 49.6164C17.6302 49.1303 17.4461 48.7423 17.3561 48.485L17.2293 48.1868L17.2007 48.0806Z" fill="#263238"/>
<path d="M50.1349 61.071C50.1349 61.071 47.8698 42.2774 45.0389 35.2844C42.2081 28.2913 32.6703 13.5111 32.6703 13.5111C32.6703 13.5111 29.092 31.9452 32.8065 40.9888C36.5211 50.0323 48.2573 62.196 48.2573 62.196L50.1349 61.071Z" fill="#1AB03B"/>
<path d="M34.3169 21.9185C34.3169 21.9185 34.3169 21.9511 34.366 22.0165C34.4151 22.0818 34.4314 22.1962 34.4805 22.3188C34.5828 22.5965 34.7218 22.9846 34.8895 23.4789L36.4396 27.7476C37.0899 29.5571 37.8629 31.7058 38.7177 34.0914C39.5725 36.4769 40.4845 39.1199 41.3594 41.9099C43.175 47.4736 45.1098 52.4121 46.4883 55.9945C47.1714 57.7714 47.7154 59.2174 48.1245 60.2345L48.5622 61.3905L48.6685 61.6928C48.682 61.7274 48.6929 61.7629 48.7012 61.799C48.6801 61.7683 48.6623 61.7354 48.648 61.701L48.5212 61.4028C48.4066 61.1291 48.2471 60.7452 48.0507 60.2632L46.3653 56.0681C44.95 52.5021 42.9905 47.5678 41.175 41.9959C40.2959 39.2017 39.3921 36.571 38.5496 34.1773C37.7071 31.7835 36.9505 29.6349 36.3125 27.8171C35.6745 25.9993 35.1838 24.5492 34.8239 23.5239C34.6603 23.0296 34.5336 22.6333 34.4395 22.3515L34.3414 22.0451C34.3293 22.0037 34.3211 21.9613 34.3169 21.9185Z" fill="#263238"/>
<path d="M49.1586 62.706C49.1586 62.706 67.2535 65.2142 73.9953 64.2615C80.7372 63.3088 95.7189 58.1827 95.7189 58.1827C95.7189 58.1827 80.3811 51.1126 71.6638 52.4018C62.9465 53.6909 49.7825 61.2714 49.7825 61.2714L49.1586 62.706Z" fill="#1AB03B"/>
<path d="M88.0104 57.8083L87.9121 57.8083L87.6211 57.8085C87.367 57.8087 86.9859 57.809 86.5024 57.8093C85.5271 57.81 84.1215 57.7702 82.4045 57.7142C80.6875 57.6582 78.5975 57.582 76.3027 57.5428C75.1553 57.5232 73.9505 57.5199 72.7047 57.5698C72.0818 57.5703 71.4506 57.6402 70.8154 57.7183C70.1802 57.7963 69.5448 57.9766 68.8973 58.1282C66.2947 58.6653 63.7946 59.0511 61.52 59.4368C59.2453 59.8225 57.2207 60.1835 55.5157 60.532C53.8107 60.8805 52.4458 61.2002 51.499 61.4174L50.4088 61.6756L50.126 61.7411L50.0276 61.7412C50.0276 61.7412 50.0563 61.7412 50.1178 61.7044L50.3965 61.6225L51.4786 61.3234C52.4213 61.0817 53.7862 60.7334 55.4871 60.3727C57.188 60.0119 59.2209 59.6182 61.4873 59.2285C63.7538 58.8387 66.2497 58.4447 68.8441 57.9076C69.4958 57.7723 70.127 57.6166 70.7787 57.4976C71.4303 57.3787 72.0614 57.3701 72.6884 57.3492C73.9424 57.3034 75.1472 57.3107 76.2988 57.3467C78.5977 57.3981 80.6671 57.4947 82.4046 57.563L86.5024 57.7235L87.6212 57.7636L87.9121 57.7634L88.0104 57.8083Z" fill="#263238"/>
<path d="M60.4976 40.9162C60.4976 40.9162 77.3963 42.8329 83.6464 41.7865C89.8966 40.7402 103.731 35.6231 103.731 35.6231C103.731 35.6231 89.2858 29.4023 81.1954 30.8054C73.105 32.2084 61.0395 39.5675 61.0395 39.5675L60.4976 40.9162Z" fill="#1AB03B"/>
<path d="M96.5426 35.4565C96.4234 35.4753 96.3027 35.4836 96.182 35.4813C95.9402 35.4814 95.5919 35.5062 95.137 35.5106C94.2313 35.5112 92.9241 35.5122 91.3054 35.5133C89.6867 35.5144 87.7607 35.479 85.6215 35.5173C84.5519 35.5181 83.4291 35.5475 82.2734 35.6218C81.6915 35.6577 81.1054 35.7194 80.5152 35.8069C79.9373 35.9136 79.343 36.0733 78.7405 36.2168C76.3305 36.7782 74.0149 37.1966 71.9164 37.6067C69.818 38.0168 67.9285 38.4022 66.3505 38.7629C64.7726 39.1235 63.5061 39.4554 62.633 39.6807L61.6247 39.9429C61.5077 39.9777 61.3886 40.0051 61.2682 40.0249C61.379 39.9736 61.4942 39.9325 61.6125 39.9021L62.6085 39.599C63.4815 39.3492 64.7399 38.9969 66.3179 38.6199C67.8958 38.2429 69.7771 37.8248 71.8756 37.4147C73.974 37.0046 76.2897 36.5699 78.6915 36.0084C79.294 35.8691 79.876 35.7093 80.4826 35.5986C81.0892 35.4878 81.6752 35.4506 82.2571 35.4135C83.4251 35.3432 84.548 35.3219 85.6216 35.3212C87.7608 35.3197 89.6868 35.3551 91.3055 35.3785L95.1371 35.4371L96.1779 35.4363C96.2999 35.4332 96.4218 35.4399 96.5426 35.4565Z" fill="#263238"/>
<path d="M60.0012 41.6186C60.0012 41.6186 60.0126 25.5774 58.3777 19.4946C56.7428 13.4118 50.7611 0.0061058 50.7611 0.0061058C50.7611 0.0061058 46.8375 14.2319 48.9628 22.0958C51.0882 29.9597 58.9107 42.3263 58.9107 42.3263L60.0012 41.6186Z" fill="#1AB03B"/>
<path d="M51.3789 7.03369C51.4096 7.15033 51.4315 7.26915 51.4442 7.38912C51.4768 7.62199 51.5298 7.96517 51.5869 8.4105C51.7051 9.29705 51.8517 10.5881 52.0227 12.1815C52.1937 13.7749 52.3849 15.6706 52.6416 17.7706C52.7679 18.8206 52.9106 19.9236 53.1106 21.039C53.2085 21.6027 53.3229 22.1747 53.4741 22.7466C53.6253 23.3185 53.8462 23.8822 54.0302 24.4623C54.7867 26.7907 55.4039 29.0375 55.9926 31.0719C56.5812 33.1063 57.1291 34.9323 57.6279 36.456C58.1268 37.9797 58.5398 39.2052 58.8302 40.0507L59.1737 41.027C59.2181 41.1381 59.2523 41.2529 59.2759 41.3702C59.2196 41.2638 59.1718 41.1532 59.1327 41.0393L58.7523 40.0794C58.4373 39.2624 57.9874 38.037 57.4845 36.5051C56.9815 34.9733 56.4009 33.18 55.804 31.1374C55.2071 29.0949 54.5776 26.8644 53.8293 24.5401C53.6413 23.9559 53.4204 23.4004 53.2691 22.8162C53.1179 22.232 52.9995 21.656 52.9016 21.0881C52.7057 19.9483 52.5671 18.8411 52.4449 17.7911C52.2005 15.683 52.038 13.7831 51.8752 12.1898L51.5049 8.41464C51.4601 7.98565 51.4276 7.64246 51.4032 7.38915C51.3844 7.27165 51.3763 7.15268 51.3789 7.03369Z" fill="#263238"/>
<path d="M63.0277 36.7551C63.0277 36.7551 75.2149 25.4857 78.3742 19.992C81.5335 14.4983 86.338 0.602874 86.338 0.602874C86.338 0.602874 72.3424 7.81212 68.2968 14.9163C64.2512 22.0204 62.5771 36.5675 62.5771 36.5675L63.0277 36.7551Z" fill="#1AB03B"/>
<path d="M81.6345 6.05262C81.5722 6.1558 81.5023 6.25419 81.4253 6.34695C81.2776 6.53909 81.0684 6.81708 80.7854 7.16458C80.2235 7.87593 79.395 8.88982 78.3614 10.1327C77.3278 11.3755 76.0851 12.8432 74.7398 14.5071C74.0713 15.3248 73.374 16.216 72.6889 17.1563C72.3485 17.6264 72.0244 18.1169 71.7208 18.6279C71.4172 19.1388 71.1832 19.6988 70.9 20.2628C69.8084 22.4781 68.6595 24.526 67.646 26.394C66.6325 28.2619 65.7338 29.9746 65.0115 31.4174C64.2893 32.8602 63.7434 34.0496 63.3699 34.8671C63.1893 35.2758 63.0416 35.5782 62.9349 35.8112C62.8918 35.9243 62.8368 36.0326 62.7707 36.1341C62.8039 36.0178 62.8464 35.9044 62.898 35.7949C62.9924 35.5579 63.1279 35.2391 63.3085 34.8344C63.6697 34.017 64.1951 32.7908 64.9009 31.3521C65.6068 29.9134 66.485 28.1844 67.4985 26.3001C68.5121 24.4158 69.6446 22.3638 70.7321 20.1689C71.007 19.6172 71.2533 19.0654 71.5528 18.534C71.8524 18.0026 72.1928 17.5203 72.5374 17.046C73.2183 16.1017 73.9197 15.2228 74.5883 14.3928C75.9417 12.7575 77.1968 11.2775 78.2467 10.0469L80.7076 7.12786L81.3761 6.31021C81.4553 6.21767 81.5417 6.13154 81.6345 6.05262Z" fill="#263238"/>
<path opacity="0.1" d="M40.1255 83.5134L39.5178 85.1482C39.5178 85.1482 46.6315 85.7561 53.9749 85.9552L63.9344 72.3993C54.3192 74.3183 40.1255 83.5134 40.1255 83.5134Z" fill="black"/>
<path opacity="0.1" d="M32.9384 105.423L32.4782 107.103C32.4782 107.103 47.8657 107.615 50.6246 106.314L55.6136 92.177C46.2314 94.9825 32.9384 105.423 32.9384 105.423Z" fill="black"/>
<path opacity="0.1" d="M27.4796 127.467L27.1383 129.171C27.1383 129.171 42.3009 129.021 49.4127 126.409L49.2216 112.71C40.0233 116.136 27.4796 127.467 27.4796 127.467Z" fill="black"/>
<path opacity="0.1" d="M49.7836 61.2712L49.1597 62.7058C49.1597 62.7058 56.7895 63.6034 62.1575 64.1103L71.6649 52.4016C62.9476 53.6907 49.7836 61.2712 49.7836 61.2712Z" fill="black"/>
<path opacity="0.1" d="M61.0432 39.5674L60.4972 40.9161C60.4972 40.9161 64.9145 41.4196 70.0695 41.7674L81.1992 30.8052C73.117 32.2042 61.0432 39.5674 61.0432 39.5674Z" fill="black"/>
</svg>
