<svg width="90" height="125" viewBox="0 0 90 125" fill="none" xmlns="http://www.w3.org/2000/svg">
<path d="M32.5946 26.3056C53.3991 59.02 64.98 86.3656 68.9025 124.907L67.9842 124.686L66.1516 124.588C66.1516 124.588 65.1075 100.245 56.5942 79.3333C47.3295 56.586 32.5946 26.3056 32.5946 26.3056Z" fill="#1AB03B"/>
<path d="M55.3657 73.6675C55.3657 73.6675 37.9085 75.1566 31.4982 73.8955C25.088 72.6344 10.9844 66.9399 10.9844 66.9399C10.9844 66.9399 26.0302 60.9266 34.3194 62.6254C42.6087 64.3241 54.841 72.2707 54.841 72.2707L55.3657 73.6675Z" fill="#1AB03B"/>
<path d="M18.3906 66.9738C18.421 66.9787 18.452 66.9787 18.4824 66.9739L18.7614 66.9955C19.0085 66.9959 19.3687 67.0354 19.8207 67.0537C20.7529 67.0941 22.1017 67.135 23.7682 67.1694C25.4348 67.2038 27.4227 67.2352 29.6224 67.3164C30.7241 67.357 31.8787 67.4118 33.0723 67.5232C33.6691 67.5771 34.2694 67.6558 34.8769 67.7628C35.4843 67.8698 36.0778 68.0757 36.6924 68.2392C39.165 68.8898 41.5349 69.3883 43.6858 69.8724C45.8368 70.3564 47.7724 70.8153 49.3866 71.2384C51.0008 71.6615 52.2936 72.0381 53.1908 72.3046L54.2223 72.6102L54.4907 72.6848C54.5201 72.6966 54.5511 72.7038 54.5826 72.7062C54.5826 72.7062 54.5543 72.7061 54.4942 72.6671L54.2328 72.5748L53.2119 72.2198C52.3217 71.9392 51.0324 71.5378 49.4181 71.1041C47.8039 70.6704 45.886 70.1903 43.7244 69.7028C41.5628 69.2152 39.2 68.7026 36.7416 68.052C36.127 67.892 35.5264 67.6966 34.9119 67.5791C34.2974 67.4615 33.6864 67.3898 33.0861 67.3359C31.889 67.228 30.7309 67.1732 29.6292 67.1397C27.4224 67.0691 25.4381 67.0554 23.7716 67.0351L19.8241 66.9724L18.7648 66.9531L18.4859 66.9527C18.4531 66.9541 18.4209 66.9612 18.3906 66.9738Z" fill="#263238"/>
<path d="M61.4498 92.6621C61.4498 92.6621 43.923 92.55 37.6496 90.7095C31.3761 88.8689 17.8638 81.9136 17.8638 81.9136C17.8638 81.9136 33.3919 77.2971 41.5164 79.7343C49.6409 82.1715 61.0768 91.2089 61.0768 91.2089L61.4498 92.6621Z" fill="#1AB03B"/>
<path d="M25.221 82.6281L25.3128 82.6495L25.5883 82.6958C25.832 82.7316 26.1887 82.7887 26.6478 82.8495C27.573 82.9781 28.9149 83.1393 30.5712 83.3256C32.2274 83.512 34.2049 83.7236 36.3909 84.0062C37.4821 84.1457 38.6298 84.3066 39.8059 84.5275C40.3922 84.6345 40.9891 84.7697 41.5719 84.9332C42.1547 85.0967 42.7448 85.3521 43.3383 85.5686C45.7335 86.4453 48.0543 87.1593 50.1561 87.8376C52.258 88.5159 54.1373 89.148 55.7058 89.7159C57.2744 90.2838 58.5321 90.7806 59.4012 91.1177L60.3975 91.5187L60.6589 91.618L60.7507 91.6464C60.7252 91.6266 60.6965 91.611 60.6659 91.6004L60.4115 91.4833L59.4293 91.0506C58.5673 90.6958 57.3095 90.1743 55.7515 89.5923C54.1936 89.0102 52.3072 88.357 50.2053 87.6751C48.1035 86.9933 45.7897 86.2545 43.4016 85.3955C42.8045 85.179 42.2251 84.9413 41.6352 84.7566C41.0453 84.5719 40.4343 84.4578 39.8409 84.3509C38.6578 84.1334 37.5101 83.9726 36.4153 83.8366C34.2258 83.5646 32.2483 83.3707 30.5886 83.1984L26.6618 82.7788L25.6024 82.657L25.3234 82.6318C25.2898 82.6243 25.255 82.623 25.221 82.6281Z" fill="#263238"/>
<path d="M66.064 111.759C66.064 111.759 48.5812 110.456 42.4483 108.188C36.3154 105.92 23.2889 98.0644 23.2889 98.0644C23.2889 98.0644 39.1047 94.5193 47.0252 97.5004C54.9458 100.482 65.758 110.281 65.758 110.281L66.064 111.759Z" fill="#1AB03B"/>
<path d="M30.5884 99.2774C30.6171 99.2922 30.6482 99.3018 30.6802 99.3058L30.9416 99.3769C31.1818 99.4303 31.535 99.5121 32.0012 99.6047C32.9159 99.797 34.2439 100.05 35.8862 100.349C37.5284 100.649 39.485 100.995 41.6465 101.419C42.7272 101.632 43.8609 101.875 45.0195 102.173C45.5988 102.32 46.1804 102.494 46.7645 102.695C47.3333 102.916 47.9022 103.196 48.4851 103.455C50.817 104.487 53.0781 105.36 55.1342 106.179C57.1904 106.999 59.0205 107.758 60.5468 108.432C62.0732 109.106 63.2957 109.677 64.1472 110.077L65.1154 110.546L65.3698 110.663C65.3973 110.678 65.4271 110.689 65.4581 110.694L65.3768 110.645L65.133 110.51L64.1789 110.014C63.345 109.596 62.133 108.993 60.6102 108.308C59.0874 107.624 57.2537 106.843 55.2046 106.017C53.1555 105.19 50.8944 104.314 48.5696 103.281C47.9866 103.023 47.4283 102.746 46.8384 102.522C46.2484 102.299 45.6585 102.142 45.0722 101.993C43.9066 101.694 42.7693 101.459 41.685 101.249C39.52 100.829 37.56 100.5 35.9177 100.215L32.0328 99.527L30.9733 99.3345L30.6978 99.2881L30.5884 99.2774Z" fill="#263238"/>
<path d="M66.6447 112.291C66.6447 112.291 79.3699 103.446 82.7168 98.7791C85.4437 94.9768 87.9922 85.4062 87.9922 85.4062C87.9922 85.4062 77.6952 89.0695 73.1284 94.9259C68.5617 100.782 66.1873 111.032 66.1873 111.032L66.6447 112.291Z" fill="#1AB03B"/>
<path d="M85.0972 88.8555C85.0157 88.9126 84.9391 88.9763 84.868 89.046L84.2439 89.5964C83.6904 90.1115 82.9041 90.8313 81.9451 91.7134C80.9861 92.5955 79.8297 93.6823 78.5641 94.889C77.1902 96.1915 75.8955 97.575 74.6867 99.0323C73.4858 100.504 72.3604 102.036 71.3149 103.622C70.3462 105.076 69.515 106.411 68.8247 107.537C68.1345 108.664 67.5851 109.582 67.2083 110.218L66.7787 110.952C66.7253 111.035 66.6793 111.122 66.6414 111.213C66.7035 111.136 66.76 111.055 66.8105 110.97L67.2684 110.264L68.9343 107.615C69.6387 106.5 70.4805 105.172 71.4563 103.732C72.4321 102.291 73.5489 100.724 74.8281 99.1704C76.0395 97.7176 77.3341 96.3365 78.7055 95.0342C79.9217 93.7955 81.0711 92.737 82.0229 91.8089L84.2828 89.6494L84.8927 89.0566C84.9665 88.9956 85.0349 88.9283 85.0972 88.8555Z" fill="#263238"/>
<path d="M61.9674 94.0419C61.9674 94.0419 75.6143 83.0748 79.3733 77.7403C83.1323 72.4057 89.3779 58.5679 89.3779 58.5679C89.3779 58.5679 74.3393 64.5988 69.5164 71.5328C64.6936 78.4667 61.372 92.659 61.372 92.659L61.9674 94.0419Z" fill="#1AB03B"/>
<path d="M84.0522 63.7012C84.0522 63.7012 84.024 63.7188 83.9782 63.7611L83.7772 63.9552L83.0158 64.7139L80.1955 67.4805C79.0074 68.645 77.5796 70.0247 76.0356 71.5986C75.2636 72.382 74.4634 73.2184 73.6739 74.1255C73.2768 74.5773 72.8927 75.0538 72.5216 75.5551C72.1693 76.0777 71.863 76.6144 71.5284 77.1617C70.2042 79.3297 68.8374 81.328 67.6257 83.164C66.4139 85 65.3432 86.6771 64.4839 88.1072C63.6246 89.5373 62.9662 90.7132 62.5156 91.5325L62.0157 92.4824C61.9629 92.5813 61.9206 92.6661 61.8889 92.7296C61.8742 92.7582 61.8613 92.7877 61.8502 92.8179C61.8718 92.7942 61.8908 92.7682 61.9066 92.7403L62.0475 92.5001L62.5792 91.5679C63.0475 90.7628 63.7165 89.5904 64.5935 88.1781C65.4704 86.7657 66.5447 85.0921 67.7635 83.2597C68.9823 81.4272 70.3527 79.4254 71.6839 77.2574C72.015 76.7171 72.3248 76.1627 72.67 75.6614C73.0153 75.16 73.4135 74.6941 73.8048 74.2494C74.5907 73.3494 75.3874 72.5094 76.1523 71.7225C77.6893 70.145 79.1065 68.7582 80.2839 67.5796C81.4613 66.4009 82.399 65.4446 83.0547 64.7564C83.379 64.4211 83.6222 64.1564 83.7914 63.9764L83.9782 63.7682C84.0058 63.7493 84.0307 63.7267 84.0522 63.7012Z" fill="#263238"/>
<path d="M54.8002 73.5283C54.8002 73.5283 59.8302 56.7338 63.3524 51.2363C66.8746 45.7388 77.3262 34.7456 77.3262 34.7456C77.3262 34.7456 77.3973 50.9825 72.7936 58.0652C68.1899 65.148 56.3185 73.566 56.3185 73.566L54.8002 73.5283Z" fill="#1AB03B"/>
<path d="M74.5693 41.6196C74.5693 41.6196 74.5482 41.6443 74.52 41.7008L74.3968 41.9481L73.9323 42.9122C73.5311 43.7492 72.9362 44.9535 72.1724 46.4226C71.4085 47.8917 70.4614 49.6291 69.3557 51.5218C68.8064 52.4717 68.2147 53.4569 67.5949 54.4667C66.975 55.4766 66.274 56.5075 65.6367 57.6057C64.3619 59.795 63.2354 61.9316 62.1544 63.8384C61.0735 65.7453 60.0416 67.4331 59.1292 68.8136C58.2169 70.1941 57.4136 71.285 56.8604 72.0193C56.582 72.3723 56.3636 72.6582 56.2085 72.863L56.0394 73.0854C56.0042 73.1348 55.9866 73.163 55.9901 73.1666C56.014 73.1446 56.0364 73.121 56.0571 73.096L56.2368 72.8842L56.917 72.0618C57.4878 71.331 58.3265 70.2685 59.2388 68.8845C60.1511 67.5004 61.2113 65.8268 62.2993 63.9199C63.3874 62.0131 64.5209 59.8801 65.7957 57.6943C66.4331 56.6032 67.1129 55.5758 67.7469 54.5624C68.3808 53.549 68.9689 52.5568 69.5076 51.6069C70.6027 49.7036 71.5392 47.9591 72.2925 46.4793C73.0458 44.9996 73.6229 43.7882 74.0065 42.9477C74.2 42.5274 74.3584 42.1919 74.4357 41.9693L74.5448 41.7115L74.5693 41.6196Z" fill="#263238"/>
<path d="M46.2018 52.833C46.2018 52.833 48.1396 36.578 50.5735 30.531C53.0074 24.484 61.2142 11.7059 61.2142 11.7059C61.2142 11.7059 64.3107 27.6542 61.1169 35.4743C57.9232 43.2943 47.8204 53.8074 47.8204 53.8074L46.2018 52.833Z" fill="#1AB03B"/>
<path d="M59.8022 18.98C59.8022 18.98 59.8023 19.0083 59.76 19.0647C59.7177 19.1212 59.7038 19.2202 59.6616 19.3261C59.5737 19.5663 59.4541 19.9019 59.31 20.3293L57.9776 24.0207C57.4187 25.5855 56.7542 27.4435 56.0195 29.5064C55.2848 31.5694 54.501 33.8549 53.7492 36.2677C52.189 41.079 50.5256 45.3494 49.3405 48.4472C48.7533 49.9837 48.2856 51.2342 47.9339 52.1137L47.5577 53.1133L47.4663 53.3747C47.4547 53.4046 47.4453 53.4353 47.4382 53.4666C47.4563 53.44 47.4717 53.4116 47.4839 53.3818L47.593 53.124C47.6915 52.8873 47.8287 52.5553 47.9975 52.1385L49.4465 48.511C50.6634 45.4274 52.348 41.1605 53.9081 36.3421C54.6635 33.9258 55.4403 31.6509 56.1644 29.5809C56.8885 27.5109 57.5388 25.6528 58.0872 24.0809C58.6355 22.509 59.0573 21.2549 59.3666 20.3683C59.5072 19.9409 59.6161 19.5982 59.6969 19.3545L59.7812 19.0895C59.7916 19.0537 59.7986 19.0171 59.8022 18.98Z" fill="#263238"/>
<path d="M47.0423 54.2512C47.0423 54.2512 31.4539 56.4077 25.6446 55.5787C19.8352 54.7497 6.92345 50.3046 6.92345 50.3046C6.92345 50.3046 20.1331 44.2002 27.6447 45.3216C35.1563 46.4431 46.5037 53.0098 46.5037 53.0098L47.0423 54.2512Z" fill="#1AB03B"/>
<path d="M13.5658 49.9847L13.6505 49.9848L13.9012 49.9852C14.1201 49.9856 14.4484 49.9861 14.8651 49.9867C15.7054 49.988 16.9164 49.9546 18.3957 49.9074C19.875 49.8602 21.6756 49.7959 23.6527 49.7636C24.6413 49.7474 25.6794 49.7455 26.7528 49.7896C27.2895 49.7904 27.8333 49.8514 28.3807 49.9194C28.928 49.9874 29.4755 50.1437 30.0336 50.2754C32.2763 50.7419 34.4306 51.0774 36.3907 51.4127C38.3508 51.748 40.0954 52.0617 41.5647 52.3644C43.034 52.6671 44.2101 52.9446 45.026 53.1332L45.9656 53.3573L46.2093 53.4143L46.294 53.4144C46.294 53.4144 46.2693 53.4144 46.2163 53.3825L45.9761 53.3114L45.0436 53.052C44.2312 52.8422 43.055 52.5399 41.5892 52.2266C40.1235 51.9133 38.3717 51.5713 36.4187 51.2325C34.4656 50.8937 32.3149 50.5511 30.0792 50.0846C29.5176 49.9671 28.9737 49.8319 28.4121 49.7286C27.8506 49.6252 27.3068 49.6173 26.7666 49.5988C25.6861 49.5582 24.6481 49.5637 23.656 49.5939C21.6753 49.6368 19.8924 49.7189 18.3955 49.7766L14.8649 49.9125L13.9011 49.9463L13.6504 49.946L13.5658 49.9847Z" fill="#263238"/>
<path d="M37.2599 35.3905C37.2599 35.3905 22.7017 37.0361 17.3159 36.1265C11.9301 35.2168 0.00694796 30.7804 0.00694796 30.7804C0.00694796 30.7804 12.448 25.4098 19.4196 26.6294C26.3912 27.849 36.7921 34.2235 36.7921 34.2235L37.2599 35.3905Z" fill="#1AB03B"/>
<path d="M6.19695 30.6453C6.29972 30.6617 6.4037 30.669 6.50769 30.667C6.716 30.6673 7.01615 30.689 7.40807 30.6931C8.18836 30.6944 9.31467 30.6961 10.7093 30.6983C12.104 30.7004 13.7634 30.6712 15.6065 30.7059C16.528 30.7073 17.4955 30.7336 18.4912 30.7987C18.9926 30.8301 19.4976 30.8839 20.0062 30.9601C20.5042 31.0528 21.0163 31.1914 21.5355 31.3159C23.6124 31.8034 25.6078 32.167 27.4161 32.5232C29.2244 32.8795 30.8526 33.2142 32.2124 33.5274C33.5722 33.8405 34.6637 34.1285 35.416 34.324L36.2849 34.5516C36.3858 34.5817 36.4884 34.6055 36.5922 34.6227C36.4967 34.5783 36.3974 34.5426 36.2955 34.5163L35.4371 34.2534C34.6847 34.0366 33.6003 33.731 32.2405 33.4037C30.8806 33.0764 29.2594 32.7134 27.4512 32.3572C25.6429 32.0009 23.6474 31.6232 21.5776 31.1358C21.0584 31.0148 20.5568 30.8762 20.0341 30.7799C19.5114 30.6837 19.0065 30.6511 18.5051 30.6185C17.4987 30.5569 16.5313 30.5377 15.6062 30.5362C13.7632 30.5334 12.1038 30.5626 10.7091 30.5816L7.40797 30.6295L6.51116 30.6281C6.4061 30.6253 6.30102 30.6311 6.19695 30.6453Z" fill="#263238"/>
<path d="M37.6873 36.0009C37.6873 36.0009 37.6658 22.125 39.0699 16.8646C40.4741 11.6041 45.618 0.0123872 45.618 0.0123872C45.618 0.0123872 49.009 12.3207 47.1835 19.1215C45.3581 25.9223 38.6275 36.6138 38.6275 36.6138L37.6873 36.0009Z" fill="#1AB03B"/>
<path d="M45.0904 6.09033C45.064 6.19121 45.0453 6.29397 45.0344 6.39773C45.0065 6.59915 44.9611 6.89596 44.9122 7.28113C44.811 8.04792 44.6856 9.16458 44.5395 10.5427C44.3933 11.9209 44.2299 13.5606 44.0103 15.3769C43.9023 16.2851 43.7802 17.2391 43.6087 18.2038C43.5247 18.6914 43.4266 19.186 43.2967 19.6806C43.1669 20.1752 42.977 20.6627 42.8189 21.1643C42.1688 23.1779 41.6387 25.1209 41.133 26.8803C40.6273 28.6396 40.1566 30.2187 39.7279 31.5363C39.2992 32.854 38.9442 33.9137 38.6947 34.645L38.3994 35.4892C38.3613 35.5852 38.3319 35.6846 38.3116 35.7859C38.36 35.694 38.4012 35.5983 38.4348 35.4999L38.7618 34.6698C39.0326 33.9633 39.4193 32.9036 39.8516 31.5789C40.2838 30.2542 40.7827 28.7034 41.2955 26.9371C41.8082 25.1707 42.349 23.2418 42.992 21.2317C43.1536 20.7266 43.3435 20.2462 43.4734 19.741C43.6032 19.2358 43.7048 18.7376 43.7888 18.2464C43.9568 17.2606 44.0753 16.303 44.1798 15.3948C44.3888 13.5714 44.5275 11.9282 44.6666 10.55L44.9828 7.28477C45.0211 6.91372 45.0489 6.61688 45.0697 6.39779C45.0858 6.29616 45.0928 6.19326 45.0904 6.09033Z" fill="#263238"/>
<path d="M35.0752 31.7919C35.0752 31.7919 24.5667 22.0349 21.8406 17.2805C19.1146 12.5261 14.9649 0.502883 14.9649 0.502883C14.9649 0.502883 27.0286 6.74915 30.5194 12.8973C34.0103 19.0454 35.4633 31.6299 35.4633 31.6299L35.0752 31.7919Z" fill="#1AB03B"/>
<path d="M19.0215 5.21842C19.0752 5.30772 19.1355 5.39288 19.2019 5.47317C19.3293 5.63949 19.5097 5.8801 19.7538 6.1809C20.2385 6.79663 20.9531 7.67425 21.8445 8.75008C22.7359 9.82591 23.8077 11.0964 24.968 12.5367C25.5446 13.2444 26.146 14.0159 26.7369 14.8297C27.0306 15.2366 27.3102 15.6612 27.5722 16.1034C27.8341 16.5456 28.0361 17.0301 28.2805 17.5182C29.2227 19.4353 30.214 21.2075 31.0886 22.8241C31.9632 24.4406 32.7388 25.9227 33.3621 27.1713C33.9855 28.4199 34.4567 29.4491 34.779 30.1565C34.935 30.5102 35.0625 30.7719 35.1546 30.9735C35.1918 31.0714 35.2393 31.1651 35.2962 31.2529C35.2676 31.1523 35.2308 31.0542 35.1863 30.9594C35.1048 30.7543 34.9879 30.4784 34.832 30.1283C34.5202 29.4209 34.0666 28.3599 33.4574 27.1149C32.8481 25.8699 32.0902 24.3737 31.2156 22.743C30.341 21.1123 29.3637 19.3365 28.4251 17.4371C28.1878 16.9596 27.9753 16.4821 27.7168 16.0223C27.4583 15.5624 27.1646 15.1449 26.8674 14.7345C26.2801 13.9171 25.6751 13.1563 25.0985 12.4379C23.9311 11.0224 22.8487 9.74126 21.9432 8.67601L19.8209 6.14919L19.2442 5.44143C19.176 5.36133 19.1015 5.28676 19.0215 5.21842Z" fill="#263238"/>
<path opacity="0.1" d="M54.8424 72.2547L55.3672 73.6693C55.3672 73.6693 49.2386 74.1899 42.9118 74.3568L34.3209 62.6236C42.6066 64.2905 54.8424 72.2547 54.8424 72.2547Z" fill="black"/>
<path opacity="0.1" d="M61.0501 91.2136L61.4478 92.6669C61.4478 92.6669 48.1905 93.0987 45.8125 91.971L41.5037 79.7391C49.5894 82.1726 61.0501 91.2136 61.0501 91.2136Z" fill="black"/>
<path opacity="0.1" d="M65.7697 110.282L66.0651 111.757C66.0651 111.757 53.0011 111.616 46.8717 109.352L47.0263 97.5012C54.9539 100.472 65.7697 110.282 65.7697 110.282Z" fill="black"/>
<path opacity="0.1" d="M46.5055 53.0053L47.0441 54.2467C47.0441 54.2467 40.471 55.0175 35.8464 55.4521L27.6464 45.317C35.1581 46.4385 46.5055 53.0053 46.5055 53.0053Z" fill="black"/>
<path opacity="0.1" d="M36.7863 34.224L37.2577 35.3911C37.2577 35.3911 33.4522 35.8234 29.011 36.1205L19.4138 26.63C26.3784 27.846 36.7863 34.224 36.7863 34.224Z" fill="black"/>
</svg>
