<svg width="103" height="122" viewBox="0 0 103 122" fill="none" xmlns="http://www.w3.org/2000/svg">
<path d="M55.7962 95.6961C55.7962 95.6961 57.2672 86.1862 63.9714 79.63C70.6756 73.0737 79.2014 72.0604 85.4247 70.0468C89.8533 68.3791 93.9535 66.0903 97.5708 63.2666C97.5708 63.2666 90.9503 78.8817 86.5335 84.3582C82.1167 89.8347 76.0746 93.5169 72.1656 94.3659C68.2566 95.215 55.7962 95.6961 55.7962 95.6961Z" fill="#1AB03B"/>
<path d="M42.4719 37.5939C42.4719 37.5939 42.0144 28.8436 37.8742 24.7944C33.734 20.7452 12.6637 15.5886 12.6637 15.5886C12.6637 15.5886 19.1044 26.2192 27.5971 31.7922C36.0898 37.3652 42.4719 37.5939 42.4719 37.5939Z" fill="#1AB03B"/>
<path d="M47.8897 44.9338C47.8897 44.9338 52.6455 44.3775 53.6823 32.9429C54.7191 21.5082 46.1242 0.878697 46.1242 0.878697C46.1242 0.878697 38.9972 18.203 40.6971 28.8691C42.397 39.5352 43.6007 39.0444 47.8897 44.9338Z" fill="#1AB03B"/>
<path d="M43.4705 75.9835C43.4705 75.9835 41.9201 61.2873 31.0422 56.4445C22.5482 52.8414 13.844 49.6501 4.96767 46.8844C4.96767 46.8844 9.96083 59.6833 16.1337 65.0583C22.3066 70.4333 28.5506 76.8695 34.0665 78.3639C35.7282 78.8058 37.4949 78.8166 39.1601 78.3951C40.8253 77.9736 42.3203 77.1372 43.4705 75.9835Z" fill="#1AB03B"/>
<path d="M56.592 50.1314C59.6804 42.6821 64.8767 36.0802 71.6757 30.9676C83.0137 22.4623 89.6494 21.8843 89.6494 21.8843C89.6494 21.8843 87.6849 36.6822 78.6685 44.3987C69.6521 52.1152 56.592 50.1314 56.592 50.1314Z" fill="#1AB03B"/>
<path d="M50.6504 121.906L46.9224 34.4043" stroke="#263238" stroke-miterlimit="10"/>
<path d="M49.2742 101.615L68.7822 84.3735" stroke="#263238" stroke-miterlimit="10"/>
<path d="M48.4629 81.2352L25.5821 64.2329" stroke="#263238" stroke-miterlimit="10"/>
<path d="M47.7581 57.4455L72.2905 40.0674" stroke="#263238" stroke-miterlimit="10"/>
<path d="M46.6511 41.5007L33.1208 30.7863" stroke="#263238" stroke-miterlimit="10"/>
</svg>
