<svg width="104" height="91" viewBox="0 0 104 91" fill="none" xmlns="http://www.w3.org/2000/svg">
<path d="M39.5688 65.1633C39.5688 65.1633 28.5599 61.2319 23.4851 53.6401C18.4103 46.0483 17.1313 32.9198 17.1313 32.9198C21.3495 34.2249 25.4413 35.8915 29.3789 37.9083C30.6138 40.0326 31.5307 42.4347 32.0965 45.0279C32.483 43.4043 32.7711 41.7677 32.9583 40.1321C34.3027 41.0094 35.5082 42.1294 36.5407 43.4604C40.8373 49.4229 39.5688 65.1633 39.5688 65.1633Z" fill="#1AB03B"/>
<path d="M23.0588 39.8956C21.7519 38.482 20.409 37.1172 19.1103 35.6956C19.0283 35.6141 19.1556 35.4349 19.2308 35.516C21.7678 37.8371 24.2308 40.3068 26.5865 42.8803C27.4057 43.7799 28.2113 44.6787 28.9901 45.6523L28.8646 45.2283C28.646 44.5097 28.4259 43.7995 28.1719 43.0872C27.7059 41.6478 27.1353 40.2773 26.4658 38.9896C26.4391 38.9455 26.4848 38.8803 26.5319 38.9256C27.1911 40.2319 27.8474 41.5549 28.423 42.907C28.6941 43.5609 28.9336 44.2382 29.1581 44.9232C29.2734 45.2871 29.3767 45.6418 29.477 46.0133C29.5109 46.1343 29.5516 46.2558 29.5841 46.3852C30.8002 47.8867 31.9637 49.4531 33.0462 51.091C33.7171 52.1062 34.3503 53.1531 34.946 54.2317C34.8033 52.5235 34.7149 50.8186 34.5041 49.1062C34.5144 49.0474 34.5731 49.0255 34.5789 49.1108C34.7658 50.8811 34.9974 52.6712 35.0668 54.4854C35.7327 55.6873 36.3473 56.9341 36.9105 58.226L36.9092 57.9965C36.894 57.3328 36.8721 56.6686 36.8486 56.0129C36.7906 54.7262 36.7092 53.4551 36.5774 52.198C36.3791 49.5897 35.7701 47.1292 34.7814 44.9423C34.7562 44.8898 34.8018 44.8246 34.8474 44.8783C36.3932 48.267 37.2067 52.1749 37.2248 56.2992C37.2449 56.8952 37.2567 57.4993 37.2617 58.1029C37.2605 58.4257 37.273 58.7494 37.2635 59.0803C37.5041 59.6727 37.7446 60.2652 37.955 60.8728C39.2416 64.6259 40.1623 68.605 40.7011 72.741C41.3169 77.3867 41.7157 82.1114 41.896 86.8941C41.8799 86.9866 41.7789 87.0145 41.7804 86.8871C40.9955 78.5967 40.1782 70.1769 37.6738 62.6487C37.1391 61.0611 36.5397 59.5291 35.8719 58.0354C34.029 57.7737 32.263 57.2092 30.6195 56.3563C28.8257 55.4297 27.1725 54.213 25.6981 52.7345C24.8618 51.8608 24.0727 50.9249 23.3343 49.931C23.3287 49.9279 23.324 49.9232 23.3205 49.9171C23.3171 49.911 23.3151 49.9038 23.3146 49.896C23.3142 49.8883 23.3153 49.8802 23.3179 49.8724C23.3204 49.8647 23.3244 49.8574 23.3294 49.8514C23.3345 49.8453 23.3405 49.8406 23.3469 49.8376C23.3534 49.8346 23.36 49.8333 23.3664 49.834C23.3728 49.8346 23.3788 49.8372 23.3837 49.8414C23.3887 49.8456 23.3926 49.8514 23.395 49.8582C24.6974 51.5277 26.2109 52.9374 27.8947 54.0493C29.5373 55.1959 31.3079 56.1013 33.1756 56.7497C33.9655 57.0272 34.7792 57.2467 35.6042 57.4413C34.8352 55.7877 33.9877 54.1988 33.0652 52.6812C32.7663 52.1871 32.451 51.7091 32.1424 51.2314C31.0244 50.0162 29.8015 48.9437 28.4881 48.0266C26.8305 46.8126 25.2131 45.5245 23.5832 44.2697C22.6639 43.551 21.7732 42.8255 20.8276 42.1392C20.8228 42.1343 20.8193 42.1277 20.8174 42.1202C20.8155 42.1127 20.8152 42.1044 20.8167 42.0961C20.8181 42.0877 20.8212 42.0796 20.8257 42.0725C20.8301 42.0654 20.8358 42.0594 20.8422 42.0551C22.5052 43.2779 24.2086 44.4267 25.8939 45.5999C27.4807 46.7076 29.088 47.8166 30.5776 49.0884L30.7605 49.2609C29.5301 47.4866 28.2121 45.8599 26.8572 44.2479C25.6518 42.764 24.3604 41.3004 23.0588 39.8956Z" fill="#263238"/>
<path d="M22.1726 46.6993C23.0501 47.2927 23.9673 47.8249 24.7951 48.4517C25.6839 49.1023 26.5373 49.8135 27.3523 50.5827C27.356 50.5859 27.3591 50.5901 27.3613 50.5951C27.3635 50.6001 27.3648 50.6057 27.3652 50.6116C27.3655 50.6176 27.3648 50.6237 27.3632 50.6297C27.3616 50.6358 27.3591 50.6415 27.3558 50.6467C27.3525 50.6519 27.3485 50.6564 27.3441 50.6599C27.3396 50.6635 27.3347 50.666 27.3297 50.6674C27.3247 50.6688 27.3197 50.6689 27.315 50.6679C27.3102 50.6669 27.3059 50.6647 27.3021 50.6615C26.4454 50.0329 25.5679 49.4395 24.7014 48.7829C23.8348 48.1264 22.988 47.3981 22.0832 46.7938C22.0878 46.7668 22.1267 46.669 22.1726 46.6993Z" fill="#263238"/>
<path d="M91.0712 1.77961C88.4095 4.96607 86.5218 8.94035 85.6785 13.1329C85.4618 14.3828 85.2827 16.1268 85.043 18.1807C81.889 20.0229 78.9483 22.5009 76.3651 25.4932C78.89 24.0193 81.5992 23.4126 84.16 23.7476C83.8582 25.1535 83.4724 26.5469 83.0059 27.916C81.3772 27.8272 79.6983 28.1247 78.0599 28.7927C79.539 28.8635 80.9396 29.3127 82.1732 30.1118C78.7715 37.8818 71.4421 45.6326 54.4051 48.0689C54.3423 38.2811 57.1286 28.2141 62.2876 19.59C69.2933 7.86036 91.0712 1.77961 91.0712 1.77961Z" fill="#1AB03B"/>
<path d="M44.8147 78.3484C45.6239 75.0999 46.5001 71.8558 47.4432 68.616C49.3274 62.1364 51.4368 55.7211 53.8087 49.4221C54.9183 46.4605 56.1612 43.5571 57.5308 40.7272C57.5753 40.1981 57.6428 39.668 57.733 39.1392C57.8377 38.5023 57.9424 37.8653 58.0458 37.2365C58.2553 35.9626 58.5217 34.7007 58.814 33.4405C59.3841 30.9439 60.118 28.4794 61.0079 26.0733C61.5253 24.6793 62.1164 23.3149 62.6441 21.9381C62.6486 21.9296 62.6548 21.9224 62.6619 21.9176C62.6691 21.9128 62.677 21.9105 62.6846 21.911C62.6921 21.9115 62.6991 21.9148 62.7045 21.9204C62.71 21.9261 62.7138 21.9338 62.7154 21.9428C61.793 24.3433 60.998 26.7954 60.3363 29.2814C59.6472 31.7286 59.0615 34.2003 58.5818 36.6857C58.469 37.3716 58.3575 38.0494 58.2448 38.7353C58.1978 39.0212 58.1494 39.3151 58.1011 39.6091C59.2662 37.2913 60.5308 35.0399 61.8886 32.8665C64.0695 29.4288 66.427 26.1547 68.9425 23.0697C69.0087 22.6943 69.1137 22.3238 69.2547 21.9677C69.405 21.5318 69.5487 21.0955 69.699 20.6597C70.01 19.7639 70.3392 18.8775 70.6813 17.992C71.3719 16.2215 72.1685 14.5239 72.907 12.7812C72.9115 12.7727 72.9177 12.7656 72.9248 12.7607C72.932 12.7559 72.9399 12.7536 72.9475 12.7541C72.955 12.7546 72.962 12.7579 72.9674 12.7635C72.9729 12.7692 72.9767 12.777 72.9783 12.7859C72.2749 14.5144 71.6968 16.3171 71.0866 18.0764L70.1836 20.6997C70.0334 21.1356 69.8883 21.58 69.738 22.0159C69.7358 22.0486 69.7304 22.0815 69.7219 22.1139C70.5234 21.143 71.3352 20.1893 72.1573 19.2528C75.8866 15.0156 79.8525 11.1324 83.8389 7.28357C84.3291 6.81225 84.8243 6.34952 85.3196 5.88679C85.3263 5.84596 85.4039 5.89233 85.3607 5.95553C81.5072 9.91215 77.6975 13.9212 74.0176 18.1368C73.1459 19.1361 72.2801 20.1523 71.4203 21.1854C71.8278 20.8985 72.239 20.6283 72.6437 20.3577C73.6823 19.6583 74.7284 18.9924 75.7924 18.3771C76.8564 17.7619 77.9553 17.1737 79.0085 16.6238C80.0618 16.0739 81.2831 15.6176 82.3784 14.9714C82.4173 14.9739 82.4467 15.0336 82.3974 15.0551C81.3081 15.5681 80.2388 16.1737 79.1978 16.8673C78.1215 17.5175 77.0511 18.1846 75.9867 18.8686C74.9392 19.5427 73.8931 20.2087 72.8481 20.9077C71.9814 21.4781 71.1169 22.1147 70.2245 22.6421C67.9145 25.4726 65.7255 28.4492 63.6697 31.5555C62.388 33.5083 61.1813 35.5285 60.0545 37.6078L60.6693 37.3345L62.2422 36.6123C63.2547 36.1505 64.2646 35.7051 65.2745 35.2597C67.202 34.4122 69.1368 33.6395 71.0415 32.6916C72.112 32.1759 73.1644 31.5777 74.1917 30.9009C74.2306 30.9034 74.2549 30.9545 74.2107 30.9847C70.5102 33.5729 66.5888 35.3129 62.6921 37.0628L61.001 37.8268C60.5344 38.0355 60.0689 38.2773 59.5882 38.4521C58.0396 41.3607 56.6469 44.3726 55.4209 47.4644C52.9605 53.6978 50.7504 60.0385 48.7999 66.46C46.8344 72.8765 45.1538 79.3529 43.6053 85.8628C43.4127 86.6756 43.2202 87.4884 43.0146 88.3003C42.9609 88.6269 42.5462 88.5997 42.6064 88.2735C43.1801 84.9435 44.0001 81.6296 44.8147 78.3484Z" fill="#263238"/>
<path d="M61.416 25.0578C61.973 23.1115 62.6569 21.2232 63.3481 19.3274C63.3497 19.3168 63.3544 19.307 63.3612 19.2999C63.368 19.2929 63.3763 19.2893 63.3844 19.2899C63.3925 19.2905 63.3996 19.2953 63.4042 19.3032C63.4088 19.3111 63.4106 19.3215 63.409 19.332C62.7602 21.1908 62.2395 23.0995 61.6591 24.9957C61.0787 26.8918 60.5597 28.8732 60.0576 30.8236L60.021 30.8208C60.403 28.8814 60.8687 26.9573 61.416 25.0578Z" fill="#263238"/>
<path d="M68.9699 31.7484C70.3585 30.8166 71.785 29.9989 73.2382 29.3017C73.9434 28.9298 74.6584 28.5855 75.3749 28.2323C76.0913 27.8792 76.8561 27.5833 77.5901 27.2131C77.6333 27.2158 77.6656 27.2812 77.6105 27.3049C76.9012 27.6585 76.2093 28.1218 75.5114 28.4942C74.8134 28.8667 74.067 29.3084 73.3386 29.688C71.9086 30.5031 70.493 31.3191 69.0309 31.9422C69.0124 31.9425 68.995 31.9367 68.9806 31.9253C68.9662 31.9138 68.9552 31.8973 68.9489 31.8774C68.9427 31.8575 68.9413 31.835 68.945 31.8123C68.9487 31.7895 68.9573 31.7675 68.9699 31.7484Z" fill="#263238"/>
<path opacity="0.1" d="M41.9264 42.837C41.9264 42.837 32.0613 39.1244 28.787 30.1694C25.6568 21.647 26.6163 7.50082 26.7163 6.25256C26.703 7.39593 26.7209 19.8135 32.8072 25.9737C37.4281 30.7138 42.0464 34.6401 41.9264 42.837Z" fill="#263238"/>
<path d="M41.9414 42.8562C41.9414 42.8562 32.0714 39.1424 28.7959 30.1842C25.6645 21.6587 26.6252 7.50719 26.7253 6.25847C26.7274 6.23043 26.7323 6.20226 26.7398 6.17456C26.7398 6.17456 30.2065 15.2547 35.0641 17.8148C39.9217 20.3749 45.9042 28.5741 41.9414 42.8562Z" fill="#1AB03B"/>
<path d="M26.2631 11.3006C26.7771 13.6608 27.4408 15.9424 28.2487 18.1263C29.0778 20.1996 30.1591 22.0722 31.4607 23.689C32.59 25.1321 33.8118 26.4494 34.9593 27.8607L34.9687 27.8036C34.7954 27.3058 34.5936 26.8225 34.3904 26.3474C33.9712 25.3963 33.4923 24.4908 33.0055 23.593C32.0474 21.8232 31.0645 20.0847 30.2584 18.1847C29.8078 17.1264 29.4519 15.9981 29.1961 14.8167C29.2041 14.7678 29.2612 14.7386 29.2673 14.8214C30.1847 19.1527 32.954 22.0726 34.6559 25.8043C34.9028 26.3309 35.1228 26.8795 35.3146 27.4472C35.4784 27.8569 35.5993 28.2965 35.675 28.7572C36.7258 30.1072 37.6254 31.6303 38.3556 33.2954C38.403 32.4638 38.4052 31.6376 38.3622 30.8225C38.3096 29.6937 38.13 28.6028 37.8283 27.5801C37.8363 27.5311 37.8831 27.4847 37.8945 27.535C38.2156 28.5549 38.4309 29.6374 38.5358 30.7597C38.6014 31.6536 38.574 32.5714 38.4542 33.4916C38.8086 34.3612 39.1119 35.268 39.362 36.2063C39.3674 35.9345 39.3713 35.671 39.3729 35.3825C39.3834 34.1218 39.3681 32.8593 39.3358 31.6205C39.2825 29.0811 38.8664 26.6403 38.1063 24.4077C38.102 24.3965 38.1019 24.383 38.1058 24.3701C38.1098 24.3572 38.1175 24.346 38.1273 24.339C38.1371 24.332 38.1482 24.3298 38.1582 24.3327C38.1681 24.3357 38.176 24.3437 38.1803 24.3549C38.9681 26.5625 39.4773 28.9475 39.6924 31.4379C39.8087 32.6823 39.8604 33.9224 39.869 35.2256C39.8787 35.8446 39.8741 36.4709 39.8695 37.0972C39.8613 37.4264 39.866 37.7565 39.8514 38.0853C40.39 40.8773 40.6906 43.7723 40.7487 46.7273C40.8534 52.0117 40.6793 57.3511 40.2273 62.7122C39.8237 68.3254 39.1304 73.9554 38.1517 79.5676C38.0368 80.269 37.8831 80.968 37.7345 81.6754C37.7051 81.8549 37.4813 81.8649 37.5083 81.6605C37.867 78.8727 38.2645 76.0875 38.5896 73.3058C38.9147 70.5241 39.1765 67.7299 39.3903 64.949C39.832 59.478 40.027 54.0271 39.9743 48.6219C39.9224 43.9932 39.6367 39.3161 38.3095 35.1722C37.6482 33.1144 36.7385 31.228 35.6073 29.5689C34.4754 27.903 33.1769 26.4158 31.9486 24.8589C30.6991 23.3312 29.621 21.6 28.7358 19.7002C27.8549 17.5959 27.1533 15.3603 26.6408 13.0239C26.4938 12.4453 26.3468 11.8668 26.2076 11.2804C26.1532 11.2933 26.2517 11.2504 26.2631 11.3006Z" fill="#263238"/>
<path d="M88.4254 39.6713C88.4254 39.6713 85.2503 58.6896 75.0816 63.6119C64.913 68.5342 60.8018 63.6809 54.1962 65.1387C54.5229 64.7007 60.3773 57.0522 67.8686 55.3045C75.5729 53.4818 84.8157 47.4557 88.4254 39.6713Z" fill="#1AB03B"/>
<path opacity="0.1" d="M88.4254 39.6713C88.4254 39.6713 85.2503 58.6896 75.0816 63.6119C64.913 68.5342 60.8018 63.6809 54.1962 65.1387C57.8439 63.4051 61.6018 62.3344 65.334 61.9655C71.3052 61.4376 83.216 57.4395 88.4254 39.6713Z" fill="black"/>
<path d="M54.7984 65.8822C56.0939 64.7385 57.4883 63.7977 58.9403 63.0877C59.1548 62.9879 59.3732 62.9057 59.5862 62.8144C59.7073 62.6693 59.8348 62.5321 59.9679 62.4038C60.303 62.0714 60.6472 61.7539 61.0005 61.4514C61.6744 60.8787 62.3802 60.3726 63.1092 59.9394C64.8042 58.9401 66.588 58.2756 68.3041 57.3556C68.3459 57.3581 68.3786 57.4121 68.3239 57.4435C67.4808 57.8784 66.6479 58.3746 65.8166 58.8622C64.9853 59.3498 64.184 59.7872 63.3829 60.3027C62.6765 60.7642 61.9907 61.2822 61.3308 61.8528C61.1405 62.0148 60.9542 62.1943 60.7679 62.3739C61.8455 62.0185 62.9297 61.7448 64.0137 61.5545C65.7495 61.2426 67.478 61.0517 69.2184 60.7141C70.0694 60.5485 70.92 60.3304 71.7668 60.0609C72.6512 59.351 73.5327 58.6584 74.3929 57.8863C75.4269 56.9623 76.4012 55.935 77.3029 54.8184C77.3104 54.7755 77.4003 54.8242 77.3564 54.8736C75.9348 56.6437 74.3914 58.2648 72.7494 59.7125C73.1708 59.5557 73.5883 59.3814 74.0088 59.1899C77.4302 57.6552 80.589 55.0743 83.1427 51.7271C83.1517 51.6756 83.2401 51.7329 83.1978 51.7738C81.0246 54.6536 78.4476 57.0498 75.6299 58.8104C74.2212 59.6916 72.7583 60.3864 71.2708 60.8809C69.553 61.3948 67.8274 61.7748 66.1053 62.0184C64.4196 62.2472 62.7297 62.6209 61.0487 63.1364C59.4935 63.6547 57.9759 64.456 56.5517 65.5108C53.8508 67.5871 51.4872 70.321 49.6466 73.4977C47.268 77.7205 45.442 82.2871 44.2463 87.003C44.2101 87.209 43.9386 87.1926 43.9888 86.9876C45.7713 79.1349 48.9164 71.052 54.7984 65.8822Z" fill="#263238"/>
<path d="M65.4749 59.087C66.1067 58.2401 66.8766 57.5597 67.7182 57.1044C68.6824 56.6021 69.5796 55.8718 70.35 54.9623C70.3591 54.9105 70.4479 54.9682 70.4039 55.0178C69.7041 55.8474 68.9068 56.543 68.049 57.0721C67.125 57.5661 66.2634 58.2672 65.5163 59.1331C65.4862 59.1836 65.4393 59.1285 65.4749 59.087Z" fill="#263238"/>
</svg>
