<svg width="74" height="96" viewBox="0 0 74 96" fill="none" xmlns="http://www.w3.org/2000/svg">
<path d="M34.4113 74.232C34.4113 74.232 32.9957 67.1038 27.7264 62.3725C22.4571 57.6411 15.9915 57.1506 11.2312 55.8314C7.83606 54.7154 4.6688 53.1202 1.84863 51.106C1.84863 51.106 7.34598 62.6751 10.8546 66.6653C14.3633 70.6556 19.0406 73.2396 22.0174 73.7546C24.9941 74.2696 34.4113 74.232 34.4113 74.232Z" fill="#1AB03B"/>
<path d="M42.5969 29.9637C42.5969 29.9637 42.6608 23.3466 45.6546 20.1583C48.6483 16.97 64.3807 12.4018 64.3807 12.4018C64.3807 12.4018 59.8628 20.63 53.6339 25.108C47.4051 29.586 42.5969 29.9637 42.5969 29.9637Z" fill="#1AB03B"/>
<path d="M38.7439 35.6754C38.7439 35.6754 35.1375 35.4086 33.9876 26.8142C32.8378 18.2197 38.6597 2.37783 38.6597 2.37783C38.6597 2.37783 44.5941 15.2204 43.6544 23.3229C42.7147 31.4255 41.7907 31.0938 38.7439 35.6754Z" fill="#1AB03B"/>
<path d="M43.0772 58.9624C43.0772 58.9624 43.7747 47.8238 51.8267 43.8201C58.1198 40.8284 64.5848 38.1406 71.1933 35.7685C71.1933 35.7685 67.8373 45.5862 63.3524 49.8402C58.8676 54.0942 54.3632 59.1513 50.2493 60.4562C49.0097 60.843 47.6771 60.908 46.4071 60.6435C45.1371 60.379 43.9822 59.7959 43.0772 58.9624Z" fill="#1AB03B"/>
<path d="M32.3454 39.8781C29.7757 34.3567 25.6427 29.5424 20.3483 25.9034C11.5201 19.8504 6.49463 19.6276 6.49463 19.6276C6.49463 19.6276 8.45264 30.7299 15.5038 36.2624C22.555 41.7948 32.3454 39.8781 32.3454 39.8781Z" fill="#1AB03B"/>
<path d="M39.1353 93.842L39.1353 27.6996" stroke="#263238" stroke-width="0.755214" stroke-miterlimit="10"/>
<path d="M39.5212 78.4901L24.2476 66.108" stroke="#263238" stroke-width="0.755214" stroke-miterlimit="10"/>
<path d="M39.4787 63.0869L56.1964 49.5226" stroke="#263238" stroke-width="0.755214" stroke-miterlimit="10"/>
<path d="M39.2454 45.1122L20.1763 32.7886" stroke="#263238" stroke-width="0.755214" stroke-miterlimit="10"/>
<path d="M39.5681 33.0454L49.4326 24.526" stroke="#263238" stroke-width="0.755214" stroke-miterlimit="10"/>
</svg>
